<svg enable-background="new 0 0 24 24" fill="#d40055" height="40" viewBox="0 0 24 24" width="40" xmlns="http://www.w3.org/2000/svg"><path d="m0 0h24v24h-24z" fill="none"/><path d="m9.5 5.5c1.1 0 2-.9 2-2s-.9-2-2-2-2 .9-2 2 .9 2 2 2zm-3.75 3.4-2.75 14.1h2.1l1.75-8 2.15 2v6h2v-7.55l-2.05-2.05.6-3c1.3 1.6 3.25 2.6 5.45 2.6v-2c-1.85 0-3.45-1-4.35-2.45l-.95-1.6c-.35-.6-1-.95-1.7-.95-.25 0-.5.05-.75.15l-5.25 2.15v4.7h2v-3.35zm7.25-6.9v7h3.75v14h1.5v-14h3.75v-7zm5.01 6v-1.75h-3.51v-1.5h3.51v-1.75l2.49 2.5z"/></svg>