<svg enable-background="new 0 0 24 24" height="24" viewBox="0 0 24 24" width="24" xmlns="http://www.w3.org/2000/svg"><path d="m19.054 11.347h1.291v1.291h-1.291z"/><path d="m19.134 15.221h-1.291v-1.323h-1.291v-2.551h2.502v-1.291h-2.502v-1.331h1.291v-3.874h-1.392v-1.226-.033-1.259h-9.003v-.035h-2.583v16.852h-1.291v1.26h-1.291v1.291h7.747v-1.291h-1.291v-1.26h-1.291v-15.525h7.712v1.226h-1.19v3.874h1.291v1.331h-2.663v1.291h2.663v3.833h1.291v1.301h1.291v1.322h1.271v1.23h1.291v-2.582h-1.271z"/><path d="m20.425 17.742h1.292v1.291h-1.292z"/><path d="m11.307 11.347h1.291v1.291h-1.291z"/><path d="m13.949 15.221h-1.291v1.23h-1.271v2.582h1.292v-1.23h1.27v-1.322h1.291v-2.583h-1.291z"/><path d="m10.075 17.742h1.291v1.291h-1.291z"/></svg>