<svg height="250" viewBox="0 0 250 250" width="250" xmlns="http://www.w3.org/2000/svg"><g fill="#028c8c"><path d="m155.65 189.64-27.63-43.71c-6.26-13.19 8.03-27.39 20.86-19.73 3.45 2.06 5.03 4.49 7.18 7.74 1.46 2.21 2.67 4.59 4.24 6.73 3.26-3.96 9.22-4.8 13.51-1.99 3.47-5.26 11.49-6.85 16.6-3.08 4.1-5.83 11.23-6.63 17.29-3.21 1.83 1.03 3.21 2.57 4.65 4.08 8.81 15.16 21.94 29.41 25.69 46.92.86 3.99 1 7.74 1.51 11.72.72 5.64 2.47 5.99 4.6 10.32 2.61 5.3.76 10.97-3.51 14.73l-35.35 22.34c-6.03 3.47-14.26 1.75-17.46-4.67-.8-1.61-.86-4.05-2.5-4.81-6.05-2.02-12.11-4.05-18.18-6.02-12.34-4.01-24.96-7.47-37-12.25-14.43-8.71-7.24-30.09 9.63-28.76 1.45.11 3.23.63 4.7.93 3.75.78 7.48 1.81 11.2 2.73zm-15.28-56.5c-2.29.4-4.67 3.06-4.73 5.42-.06 2.62 2.72 6.29 4.12 8.57 9.56 15.58 19.74 30.8 29.34 46.37 2.31 3.67.17 7.6-4.02 7.99-7.66-1.56-15.25-4.28-22.88-5.85-1.74-.36-3.41-.83-5.2-.58-3.95.55-6.69 4.59-5.49 8.45.93 2.98 3.28 3.62 5.9 4.51 16.94 5.75 34.26 10.48 51.15 16.39 2.23.95 4.48 2.33 5.49 4.64.72 1.66.67 3.89 2.48 4.84 2.28 1.2 4.19.14 6.2-.95 10.48-5.7 20.43-13.39 30.96-19.13 5.07-3.49.77-6.28-1-9.89-2.77-5.64-2.07-12.42-3.46-18.5-1.6-7-5.03-13.34-8.75-19.39-4.2-6.83-8.78-13.86-13.23-20.54-.95-1.43-2.68-4.4-3.92-5.37-3.16-2.48-7.44-.44-5.54 3.57 1.51 3.19 4.56 6.53 6.08 9.68 2.23 4.63-3.39 8.23-7.02 5.05-2.62-3.72-4.81-7.74-7.33-11.53-1.59-2.39-3.12-5.67-6.6-4.67-1.56.45-2.63 2.26-2.11 3.82l8.86 15.05c.71 4.74-5.53 7.16-8.28 3.21-2.08-3.61-4.18-7.24-6.4-10.77-1-1.58-3.3-5.76-4.44-6.82-2.78-2.59-6.7.41-4.85 3.73 2.93 5.09 6.76 10.08 9.57 15.2 1.43 2.61.49 5.57-2.47 6.43-2.15.62-3.93-.51-5.21-2.13l-21.26-34.18c-1.57-1.87-3.44-3.05-5.99-2.61z"/><path d="m49.76 99.1 56.5-.08c7.45.76 13.44 5.79 14.98 13.16.8 20.93.12 42 .35 62.98-.84 8.25-7.17 14.21-15.34 15.06h-55.74c-7.49-.68-13.76-6.1-14.77-13.65l.03-63.87c1.05-7.14 6.72-12.94 13.98-13.6zm.55 9.27c-2.66.69-4.84 2.63-5.28 5.42v60.53c.26 3.6 2.82 5.96 6.33 6.33h54.05c3.47-.44 6.08-3.09 6.34-6.61v-59.97c-.63-2.98-3.02-5.34-6.06-5.77l-55.39.07z"/><path d="m220.1 41.96c-.98-8.45-7.65-15.16-16.17-15.91h-68.82c-2.64 0-4.78 2.14-4.78 4.79 0 2.64 2.14 4.78 4.78 4.78h67.97c4.51.32 7.06 3.09 7.73 7.47l-.02 78.88c0 1.11.72 2.68 1.5 3.42 2.67 2.53 7.44.8 7.8-2.87v-80.56z"/><path d="m110.18 200.92h-79.07c-3.63-.41-6.35-2.9-6.62-6.62v-151.5c.34-4.42 3.47-6.87 7.74-7.18h69.94c2.64 0 4.78-2.14 4.78-4.78 0-2.64-2.14-4.78-4.78-4.78h-71.62c-8.64.87-15.03 7.48-15.63 16.18v152.06c.58 8.69 5.99 15.14 14.78 16.19h80.23c5.5-.94 5.7-8.26.26-9.56z"/><path d="m123.28 61.46c2.38-2.16 4.64-4.46 6.9-6.75.9-.91 1.7-2.12 2.66-2.97 5.09-4.47 10.9 1.6 6.91 6.62l-18.3 18.29c-1.97 1.45-4.24 1.07-6.06-.42-6.15-5.04-11.94-12.6-17.83-18.07-1.51-1.19-1.69-3.68-.86-5.41 1.23-2.56 4.75-3.46 7.01-1.72l10.27 10.13v-48.46c0-.1.65-1.51.79-1.75 1.63-2.74 5.58-2.85 7.49-.34.23.3 1.01 1.56 1.01 1.81v49.04z"/><path d="m59.04 123 39.32-.05c5.06.93 5.27 8.51.02 9.28l-39.4-.02c-4.74-1.37-4.78-7.98.05-9.21z"/><path d="m59.33 142.43 32.28-.05c5.17 1.06 5.19 8.18 0 9.25h-32.33c-5.07-.93-5.03-8.49.05-9.2z"/><path d="m58.75 161.55h23.25c5.13 2.04 4.26 8.63-1.37 9.21-6.7.68-14.49-.41-21.3-.04-4.84-1.12-5.27-7.46-.57-9.17z"/></g></svg>