<svg height="250" viewBox="0 0 250 250" width="250" xmlns="http://www.w3.org/2000/svg"><g fill="#d040b2"><path d="m138.24 10.77c26.32-2.21 51.05 8.66 65.57 30.81 15.86 24.19 14.02 57.31-5.19 79.08-8.79 9.96-28.51 21.38-31.93 33.55-1.79 6.35-.16 11.33-3.85 17.71-10.96 19-38.42 12.1-41.24-9.8-2.39-18.58 6.64-35.01 19.51-47.47 8.1-7.84 24.27-18.27 27.35-28.95 4.93-17.07-8.62-34.53-26.71-31.5-16.34 2.74-16.68 22.04-32.43 23.87-19.51 2.27-29.54-16.4-22.06-33.24 8.09-18.21 31.43-32.44 50.97-34.08zm.4 10.38c-15.49 1.37-38.23 14.54-42.93 30.14-4.09 13.57 9.99 22.44 19.04 12.25 6.22-7.01 7.92-13.12 17.71-17.43 34.02-14.96 64.91 29.98 35.22 58.78-16.05 15.56-37.14 27-36.16 53.31.37 9.86 8.55 18.32 18.36 12.73 6.54-3.73 5.13-9.8 6.06-15.9 2.63-17.16 17.46-24.42 28.91-34.97 42.45-39.15 10.3-103.9-46.21-98.91z"/><path d="m106.34 98.09v7.19c4.47.99 13.18 2.29 16.75 5.01 3.13 2.39 1.63 7.7-1.95 8.78-2.77.83-7.01-1.37-9.91-2.1-43.7-11.01-77.84 34.28-56.59 73.36 9.72 17.88 24.81 24.41 44.33 26.34 2.91.29 6.83-.67 7.69 3.49 1.58 7.63-5.15 7.21-10.51 6.91-38.95-2.15-64.95-37.91-56.61-75.81 2.35-10.66 8.16-20.16 15.31-28.22 0-.53-3.67-4.79-4.29-4.95-1.33-.34-2.29 2.6-5.54 1.18s-4.91-5.58-2.56-8.61c1.2-1.55 11.5-9.4 13.6-10.75 3.17-2.03 6.19.13 7.45 3.27s-.11 4.09-2.19 6.28l3.77 4.55c.63.16 7.35-3.68 8.76-4.29 5.12-2.22 10.57-3.73 16.11-4.45v-7.19c-3.84.37-7.12-.19-7.58-4.59-.41-3.85.82-7.01 4.97-7.4 5.25-.49 16.36-.51 21.6 0 2.77.27 4.55 1.87 4.93 4.65.74 5.4-2.25 8.07-7.55 7.35z"/><path d="m140.63 190.44c35.84-4.05 38.58 49.74 4.27 50.6-32.59.82-34.63-47.17-4.27-50.6zm2.4 10.39c-21.04 1.7-16.27 34.43 4.89 29.24 17.06-4.18 13.28-30.71-4.89-29.24z"/><path d="m103.63 158.7c.1.17.96.4 1.33.85 9.27 11.21-6.69 22.35-14.36 13.17-4.1-4.91-1.96-10.94 2.16-14.95l.1-29.45c1.56-5.36 9.51-5.11 10.66.33l.11 30.04z"/></g></svg>