<svg height="250" viewBox="0 0 250 250" width="250" xmlns="http://www.w3.org/2000/svg"><g fill="#d040b2"><path d="m92.24 22.27c.4 0 .72.32.72.72v21.43c0 .4-.32.72-.72.72h-68.9c-.4 0-.72-.32-.72-.72v-21.43c0-.4.32-.72.72-.72zm0-10h-68.9c-5.92 0-10.72 4.8-10.72 10.72v21.43c0 5.92 4.8 10.72 10.72 10.72h68.9c5.92 0 10.72-4.8 10.72-10.72v-21.43c0-5.92-4.8-10.72-10.72-10.72z"/><path d="m192.14 22.27c.4 0 .72.32.72.72v21.43c0 .4-.32.72-.72.72h-68.9c-.4 0-.72-.32-.72-.72v-21.43c0-.4.32-.72.72-.72zm0-10h-68.9c-5.92 0-10.72 4.8-10.72 10.72v21.43c0 5.92 4.8 10.72 10.72 10.72h68.9c5.92 0 10.72-4.8 10.72-10.72v-21.43c0-5.92-4.8-10.72-10.72-10.72z"/><path d="m202.99 143.12c.4 0 .72.32.72.72v21.43c0 .4-.32.72-.72.72h-68.9c-.4 0-.72-.32-.72-.72v-21.43c0-.4.32-.72.72-.72zm0-10h-68.9c-5.92 0-10.72 4.8-10.72 10.72v21.43c0 5.92 4.8 10.72 10.72 10.72h68.9c5.92 0 10.72-4.8 10.72-10.72v-21.43c0-5.92-4.8-10.72-10.72-10.72z"/><path d="m92.24 143.12c.4 0 .72.32.72.72v21.43c0 .4-.32.72-.72.72h-68.9c-.4 0-.72-.32-.72-.72v-21.43c0-.4.32-.72.72-.72zm0-10h-68.9c-5.92 0-10.72 4.8-10.72 10.72v21.43c0 5.92 4.8 10.72 10.72 10.72h68.9c5.92 0 10.72-4.8 10.72-10.72v-21.43c0-5.92-4.8-10.72-10.72-10.72z"/><path d="m227.75 202.79c.4 0 .72.32.72.72v21.43c0 .4-.32.72-.72.72h-27.18c-.4 0-.72-.32-.72-.72v-21.43c0-.4.32-.72.72-.72zm0-10h-27.18c-5.92 0-10.72 4.8-10.72 10.72v21.43c0 5.92 4.8 10.72 10.72 10.72h27.18c5.92 0 10.72-4.8 10.72-10.72v-21.43c0-5.92-4.8-10.72-10.72-10.72z"/><path d="m95.54 202.79c.4 0 .72.32.72.72v21.43c0 .4-.32.72-.72.72h-71.05c-.4 0-.72-.32-.72-.72v-21.43c0-.4.32-.72.72-.72zm0-10h-71.05c-5.92 0-10.72 4.8-10.72 10.72v21.43c0 5.92 4.8 10.72 10.72 10.72h71.05c5.92 0 10.72-4.8 10.72-10.72v-21.43c0-5.92-4.8-10.72-10.72-10.72z"/><path d="m228.48 83.84c.4 0 .72.32.72.72v21.43c0 .4-.32.72-.72.72h-71.58c-.4 0-.72-.32-.72-.72v-21.43c0-.4.32-.72.72-.72zm0-10h-71.58c-5.92 0-10.72 4.8-10.72 10.72v21.43c0 5.92 4.8 10.72 10.72 10.72h71.58c5.92 0 10.72-4.8 10.72-10.72v-21.43c0-5.92-4.8-10.72-10.72-10.72z"/><path d="m126.89 83.84c.4 0 .72.32.72.72v21.43c0 .4-.32.72-.72.72h-26.25c-.4 0-.72-.32-.72-.72v-21.43c0-.4.32-.72.72-.72zm0-10h-26.25c-5.92 0-10.72 4.8-10.72 10.72v21.43c0 5.92 4.8 10.72 10.72 10.72h26.25c5.92 0 10.72-4.8 10.72-10.72v-21.43c0-5.92-4.8-10.72-10.72-10.72z"/></g></svg>