<svg height="250" viewBox="0 0 250 250" width="250" xmlns="http://www.w3.org/2000/svg"><g fill="#fc943b"><path d="m49.79 12.21 149.95-.08c9.48 1.3 17.39 8.81 18.66 18.37v189.52c-1.36 9.28-9.09 16.71-18.38 17.83h-149.5c-9.78-.97-17.67-8.65-18.92-18.38v-188.96c1.3-9.47 8.77-16.91 18.19-18.3zm2.18 9.81c-5.6.57-9.95 4.22-10.83 9.86v186.25c.61 5.69 5.19 9.48 10.75 9.94h146.23c5.69-.45 10.18-4.44 10.75-10.21v-185.45c-.72-6.23-5.44-10.07-11.57-10.48z"/><path d="m61.99 211c-2.47-.18-3.95-2.32-4.34-4.4v-37.42c.32-2.15 2.07-3.83 4.48-4.31l37.35-.07c2.62.34 4.5 2.12 4.92 4.66v36.97c-.23 2.35-1.88 4.22-4.11 4.58h-38.3zm3.93-38.68c-.55 0-1 .45-1 1v29.4c0 .55.45 1 1 1h29.95c.55 0 1-.45 1-1v-29.4c0-.55-.45-1-1-1z"/><path d="m62.84 93.1c-1.64-.21-4.41-1.03-5.12-4.21l-.07-37.6c.39-2.24 1.86-3.91 3.87-4.39l29.68.07c1.8.39 2.63 1.79 2.8 2.97.17 1.19-.24 2.77-1.89 3.63-.16.08-1.09.47-1.43.59h-24.76c-.55 0-1 .45-1 1v29.41c0 .55.45 1 1 1h29.95c.55 0 1-.45 1-1v-9.12c.04-.3.66-1.54 1-1.98.9-1.15 2.11-1.81 3.32-1.81 1.41 0 2.52.88 3.08 2.43-.05 1.87.05 3.89.14 5.85.13 2.88.27 5.87-.03 8.44-.31 2.71-2.33 4.47-5.41 4.73h-36.13z"/><path d="m62.56 152.18c-2.36-.26-4.25-1.8-4.84-3.96l-.07-37.59c.38-2.42 2.17-4.32 4.38-4.66l28.64.07c1.67.32 3.02 1.57 3.37 3.14.31 1.38-.24 2.67-1.49 3.54-.19.12-1.23.64-1.61.79h-25.04c-.55 0-1 .45-1 1v29.4c0 .55.45 1 1 1h29.95c.55 0 1-.45 1-1v-9.29c.16-.46 1.02-2.04 1.27-2.33.82-1.01 1.96-1.58 3.12-1.58 1.45 0 2.59.88 3.08 2.36-.12 2.09-.02 4.38.09 6.59.13 2.84.27 5.79-.08 8.27-.38 2.68-2.9 4.08-5.09 4.26h-36.68z"/><path d="m122.68 128.49c-2.46-.12-3.53-2.01-3.68-3.6-.16-1.66.64-3.57 2.78-4.14l66.16-.07c2.39.48 3.38 2.37 3.31 4.06-.07 1.57-1.11 3.48-3.81 3.76h-64.76z"/><path d="m121.4 187.44c-2.02-.99-2.5-2.89-2.28-4.24.23-1.46 1.32-3.1 3.69-3.37l64.14-.07c2.76.24 4.17 2.05 4.31 3.75.12 1.44-.69 3.36-3.34 4.07l-66.51-.14z"/><path d="m122.41 69.14c-2.3-.08-3.22-1.88-3.3-3.39-.09-1.66.78-3.47 2.9-3.8l65.21-.07c2.57.18 3.56 2 3.6 3.5.05 1.64-.98 3.43-3.4 3.77h-65.01z"/><path d="m83.56 139.38c-.96 0-1.93-.35-2.86-1.05-1.94-1.44-5.18-5.09-7.12-7.28l-.52-.59c-1.81-2.03-2.6-2.93-2.34-5.37.16-1.46 1.74-2.78 3.33-2.78.1 0 .21 0 .31.02 1.75.21 2.71 1.32 3.81 2.61.34.4.68.79 1.05 1.18.63.65 1.28 1.28 1.93 1.92.64.62 1.27 1.25 1.89 1.88.19.19.45.3.72.3h.05c.29-.02.56-.16.73-.38 6.15-7.84 12.78-16.17 20.27-25.45.41-.51.79-1.04 1.16-1.55 1.32-1.84 2.37-3.3 4.67-3.61.09-.01.19-.02.29-.02.94 0 2.15.51 2.71 1.13 1.74 1.95.23 4.63-.5 5.69-3.68 5.33-8.14 10.53-12.46 15.55-4.16 4.85-8.47 9.86-12.12 15.03-1.19 1.27-3.01 2.76-5 2.76z"/><path d="m83.59 80.27c-.5 0-.99-.1-1.51-.31-1.28-.51-2.88-2.37-4.16-3.85-.49-.56-.94-1.09-1.34-1.5-.56-.58-1.16-1.17-1.77-1.76-1.23-1.19-2.51-2.43-3.46-3.72-.93-1.26-1.08-2.83-.39-4.19.61-1.21 1.72-1.93 2.98-1.93.66 0 1.34.2 2.04.59 1.26.71 2.49 2.13 3.67 3.5 1.02 1.19 2.08 2.41 3.23 3.29.19.18.52.5 1.09.5.14 0 .29-.02.44-.06.36-.09.64-.38.73-.74.08-.34.48-.84.77-1.21l.14-.17c2.38-3.03 4.86-6.07 7.25-9.01 2.09-2.57 4.26-5.23 6.35-7.87.72-.91 1.56-2.08 2.44-3.33 1.93-2.71 4.11-5.78 5.83-7.13.9-.71 1.92-1.08 2.94-1.08 1.36 0 2.56.67 3.14 1.74.66 1.22.44 2.78-.62 4.39-2.15 3.28-5.14 6.88-8.03 10.36-1.11 1.34-2.19 2.64-3.18 3.88-1.1 1.38-2.23 2.81-3.38 4.26-3.26 4.13-6.62 8.4-9.92 12.02-1.5 1.64-3.29 3.33-5.28 3.33z"/></g></svg>