<svg enable-background="new 0 0 24 24" height="24" viewBox="0 0 24 24" width="24" xmlns="http://www.w3.org/2000/svg"><g clip-rule="evenodd" fill-rule="evenodd"><path d="m4.222 11.49c.021-.244.037-.49.064-.732.15-1.285.488-2.509 1.198-3.609.356-.553.8-1.026 1.337-1.407.258-.184.52-.361.781-.538.044-.03.099-.044.148-.065.01.008.019.016.028.025-.024.063-.041.13-.073.19-.249.459-.511.912-.749 1.376-.438.85-.77 1.74-.951 2.682-.006.03-.01.062-.016.099.169-.035.33-.075.491-.099 1.161-.178 2.361.531 2.769 1.629.429 1.159.062 2.361-.941 3.083-1.097.789-2.723.539-3.536-.543-.303-.402-.485-.848-.534-1.349-.002-.027-.011-.055-.016-.082 0-.22 0-.44 0-.66z"/><path d="m15.153 12.194c-.057.241-.094.49-.177.72-.407 1.137-1.649 1.848-2.838 1.639-1.099-.193-1.936-.994-2.136-2.066-.047-.254-.057-.517-.053-.775.013-.875.134-1.736.378-2.578.281-.973.696-1.879 1.385-2.638.195-.216.409-.419.636-.598.313-.246.648-.464.975-.691.045-.031.1-.046.149-.069.01.007.02.015.028.022-.021.063-.037.132-.068.19-.219.402-.447.8-.662 1.205-.444.842-.793 1.722-.998 2.655-.021.1-.039.199-.057.285.253-.036.5-.092.749-.103.771-.029 1.429.244 1.963.796.407.42.641.925.708 1.507.004.023.013.048.018.071z"/><path d="m10.528 16.971h9.25v1.891h-9.25z"/></g></svg>