<svg height="250" viewBox="0 0 250 250" width="250" xmlns="http://www.w3.org/2000/svg"><path d="m239.11 93.15c0-15.28-12.4-27.73-27.67-27.8-.04 0-.09 0-.13 0-2.78 0-5.46.41-8 1.18-9.91-10.34-23.14-17.9-38.81-21.93-6.62-1.7-13.47-2.7-20.42-3.03-3.44-11.4-14-19.73-26.49-19.79-.04 0-.09 0-.13 0-15.33 0-27.8 12.47-27.8 27.8 0 .9.05 1.79.13 2.67-.1.04-.2.08-.29.13-16.06 7.28-29.65 17.49-40.16 29.35-3.28-1.36-6.88-2.12-10.64-2.12-.01 0-.02 0-.04 0-15.31.02-27.76 12.48-27.76 27.8 0 10.56 5.92 19.77 14.62 24.47-1.64 13 .03 26.07 5.53 38.19 2.93 6.46 6.8 12.33 11.46 17.56-1.99 3.83-3.13 8.18-3.13 12.79 0 15.28 12.38 27.71 27.64 27.8h.17c10.7 0 20.01-6.08 24.65-14.97 5.55.91 11.2 1.37 16.92 1.37 15.33 0 31.08-3.23 46.13-9.56 5.08 5.48 12.33 8.91 20.37 8.92h.02c15.33 0 27.8-12.47 27.8-27.8 0-4.86-1.26-9.44-3.46-13.42 13.81-16.18 21.98-35.27 22.96-54.19 9.73-4.33 16.54-14.08 16.54-25.41zm-27.67-19.97c10.96.07 19.85 9 19.85 19.98 0 7.47-4.13 13.99-10.21 17.41-.17.09-.34.18-.51.27-.36.19-.72.36-1.09.53-.18.08-.35.16-.53.23-.49.2-.99.39-1.5.56-.05.01-.09.03-.14.05-.55.17-1.12.32-1.69.45-.17.04-.35.07-.53.1-.43.08-.86.15-1.3.21-.18.02-.36.05-.54.06-.6.06-1.21.1-1.82.1s-.09 0-.13 0c-.21 0-.42-.03-.63-.03-10.72-.33-19.35-9.14-19.35-19.95 0-5.83 2.52-11.06 6.51-14.72 1.47-1.34 3.13-2.46 4.94-3.33.09-.04.18-.09.27-.13.37-.17.75-.32 1.13-.47.17-.06.34-.13.51-.19.36-.13.72-.25 1.09-.35.2-.06.4-.1.61-.16.84-.22 1.7-.39 2.59-.49.77-.09 1.54-.15 2.33-.15h.13zm-93.98-43.58s.09 0 .13 0c8.08.05 15.02 4.93 18.12 11.88.12.27.23.54.34.81.14.36.27.71.39 1.08.08.23.15.47.21.71.13.44.24.88.34 1.33.03.15.06.31.09.46.1.53.19 1.07.25 1.62 0 .07.01.14.02.21.06.62.1 1.25.1 1.89s-.04 1.31-.1 1.96c-.06.64-.16 1.27-.28 1.89-1.79 9.14-9.83 16.07-19.47 16.13-.04 0-.09 0-.13 0-7.49 0-14.03-4.15-17.45-10.27-.11-.2-.21-.41-.32-.61-.16-.32-.32-.64-.47-.97-.09-.21-.19-.42-.27-.63-.17-.42-.33-.85-.47-1.29-.04-.11-.08-.22-.12-.34-.17-.54-.31-1.1-.43-1.67-.04-.18-.07-.36-.1-.55-.08-.43-.15-.86-.2-1.3-.02-.18-.05-.36-.06-.54-.06-.6-.09-1.21-.09-1.83 0-11.02 8.96-19.98 19.98-19.98zm-98.75 77.8c0-11 8.94-19.96 19.94-19.98h.04c1.85 0 3.64.27 5.34.75.47.13.93.28 1.39.44.06.02.12.04.18.07.45.17.89.34 1.32.54h.02c.86.39 1.69.85 2.48 1.35.06.04.13.08.19.12.28.18.54.37.8.57.22.16.43.32.65.48.22.17.43.35.64.53.26.22.51.45.76.69.16.15.33.31.49.47 3.54 3.61 5.73 8.54 5.73 13.97 0 11.02-8.96 19.98-19.98 19.98-.01 0-.02 0-.04 0-.09 0-.18-.01-.28-.01-.92-.01-1.81-.1-2.7-.24-.19-.03-.38-.05-.56-.09-.38-.07-.75-.15-1.13-.24-.17-.04-.34-.09-.51-.13-.39-.11-.78-.22-1.16-.35-.04-.01-.08-.03-.12-.04-1.37-.47-2.66-1.09-3.88-1.83-.05-.03-.1-.06-.14-.09-.4-.25-.8-.51-1.18-.79-5.01-3.63-8.29-9.52-8.29-16.17zm48.47 113c-.06 0-.11 0-.17 0-10.94-.09-19.82-9.02-19.82-19.98 0-2.41.45-4.72 1.24-6.86.7-1.89 1.67-3.65 2.87-5.23.04-.06.09-.12.13-.18.25-.32.51-.62.77-.92.12-.14.24-.27.36-.4.24-.26.49-.52.75-.77.16-.16.33-.31.5-.46.25-.22.49-.45.75-.66.39-.32.79-.62 1.2-.9.01 0 .02-.02.03-.03 3.19-2.22 7.05-3.54 11.21-3.57h.17c11.02 0 19.98 8.97 19.98 19.98 0 .62-.04 1.23-.09 1.84-.02.18-.04.36-.06.54-.05.44-.12.88-.2 1.32-.03.18-.06.35-.1.53-.12.56-.26 1.12-.43 1.66 0 .02 0 .04-.02.06-.17.56-.38 1.1-.6 1.64-.07.17-.14.33-.22.5-.17.38-.35.76-.55 1.13-.09.16-.17.33-.26.49-.26.47-.54.92-.83 1.37-.02.04-.05.08-.07.11-3.6 5.31-9.68 8.8-16.56 8.8zm27.78-18.81c.02-.39.03-.78.03-1.18 0-15.33-12.47-27.81-27.81-27.81-.06 0-.11 0-.17 0-6.26.04-12.04 2.16-16.68 5.7-3.37-3.99-6.19-8.4-8.36-13.2-4.31-9.5-5.79-19.7-4.8-29.95.49.03.99.04 1.48.04h.04c15.33 0 27.8-12.47 27.8-27.8 0-7.22-2.77-13.81-7.3-18.76 9.11-9.96 20.73-18.59 34.36-24.91 4.85 8.16 13.75 13.65 23.92 13.65h.13c13.9-.06 25.42-10.38 27.38-23.77 5.64.36 11.18 1.23 16.55 2.61 12.32 3.17 22.85 8.82 30.99 16.48-5.52 5.08-8.99 12.37-8.99 20.45 0 15.02 11.98 27.29 26.89 27.77-1.43 14.84-8.04 29.76-18.79 42.76-4.59-3.35-10.24-5.33-16.34-5.33 0 0-.01 0-.02 0-15.32 0-27.79 12.48-27.79 27.8 0 2.94.46 5.77 1.31 8.42-17.76 7.19-36.43 9.6-53.82 7zm80.31 4.56s-.01 0-.02 0c-4.84 0-9.28-1.74-12.73-4.61s0 0 0 0c-.43-.35-.83-.73-1.23-1.12-.18-.17-.34-.36-.51-.54-.22-.23-.43-.46-.64-.7-.2-.23-.39-.46-.57-.7-.15-.19-.29-.38-.43-.58-.21-.29-.42-.58-.61-.87-.04-.06-.08-.13-.12-.2-.77-1.23-1.42-2.54-1.92-3.93 0-.02-.01-.03-.02-.05-.17-.48-.32-.97-.46-1.47-.45-1.66-.71-3.4-.71-5.21 0-11.01 8.96-19.97 19.97-19.98h.02c4.1 0 7.92 1.25 11.09 3.37.16.11.32.23.48.35.31.22.61.44.91.68.21.17.42.35.62.53.22.19.44.39.65.59.22.21.44.43.65.65.16.17.31.34.47.52.9 1.01 1.7 2.1 2.38 3.27.01.02.02.04.03.06.24.41.46.83.66 1.26.03.06.06.12.08.18.21.44.4.88.58 1.33.87 2.24 1.37 4.66 1.37 7.2 0 11.02-8.96 19.98-19.98 19.98z" fill="#5c42ca"/></svg>