<svg height="250" viewBox="0 0 250 250" width="250" xmlns="http://www.w3.org/2000/svg"><g fill="#5c42ca"><path d="m185.85 141.01c-3.39-4.05-11.42-5.76-9.94 1.44.23 1.1 9.43 13.38 10.52 14.29 2.14 1.79 4.62 1.72 6.82.1 1.08-.8 10.15-13.09 10.42-14.39 1.5-7.18-6.56-5.5-9.94-1.44 0-13.05-10.58-23.62-23.62-23.62h-40.62v-11.25s-4.82.1-4.82.1l-4.32.09.14 11.06h-41.62c-13.05 0-23.62 10.58-23.62 23.62-3.39-4.06-11.44-5.74-9.94 1.44.27 1.3 9.34 13.58 10.42 14.39 2.17 1.61 4.74 1.6 6.92 0 .8-.59 10.28-13.51 10.41-14.38 1.13-7.35-6.52-5.41-9.93-1.44 0-8.7 7.05-15.75 15.75-15.75h91.24c8.7 0 15.75 7.05 15.75 15.75z"/><path d="m58.81 170.87h.38l41.87.06c-5.59 22.29-9.87 39.03-15.85 60.43h-50.93c-5.98-21.41-10.27-38.16-15.86-60.44l40.4-.05m.38-10-48.93.06c-2.06.45-3.8 2.45-3.28 5.49 7.05 28.17 11.82 47.09 19.72 74.94h66.08c7.9-27.85 12.67-46.77 19.72-74.94.51-3.02-1.19-5.01-3.23-5.48l-50.07-.07z"/><path d="m189.48 170.87h.38l41.87.06c-5.59 22.28-9.87 39.03-15.85 60.43h-50.93c-5.98-21.4-10.26-38.15-15.86-60.44l40.4-.05m.38-10-48.93.06c-2.06.45-3.8 2.45-3.29 5.49 7.05 28.17 11.82 47.09 19.72 74.94h66.08c7.9-27.85 12.67-46.77 19.72-74.94.51-3.02-1.19-5.01-3.23-5.48z"/><path d="m150.91 23.68 11.11 18.79h-21.45zm-.12-13.98c-.18 0-.35 0-.53.02-1.91.16-3.75 1.19-4.8 3.11l-16.87 30.65c-2.23 4.05.7 9 5.32 9h34.98c4.7 0 7.62-5.11 5.23-9.16l-18.11-30.65c-1.18-1.99-3.2-2.97-5.22-2.97z"/><path d="m102.31 72.09 11.11 18.79h-21.45zm-.12-13.99c-.25 0-.5.01-.75.04-1.83.22-3.57 1.25-4.58 3.09l-16.87 30.65c-2.23 4.05.7 9 5.32 9h34.98c4.7 0 7.62-5.11 5.23-9.16l-18.11-30.65c-1.18-1.99-3.2-2.98-5.22-2.98z"/><path d="m101.56 19.67h.34c6.36.06 11.53 5.29 11.53 11.64s-5.17 11.57-11.51 11.64c-.12 0-.24 0-.35 0-6.32-.12-11.43-5.3-11.43-11.65s5.11-11.53 11.43-11.65m.2-9.98c-11.96 0-21.65 9.69-21.65 21.65s9.69 21.65 21.65 21.65c.07 0 .15-.01.22-.01 11.85-.12 21.43-9.76 21.43-21.64s-9.58-21.52-21.43-21.64c-.07 0-.15-.01-.22-.01z"/><path d="m150.75 68.27h.34c6.36.06 11.53 5.29 11.53 11.64s-5.17 11.57-11.51 11.64c-.12 0-.24 0-.35 0-6.32-.12-11.43-5.3-11.43-11.65s5.11-11.53 11.43-11.65m.21-9.98c-11.96 0-21.65 9.69-21.65 21.65s9.69 21.65 21.65 21.65c.07 0 .15-.01.22-.01 11.85-.12 21.43-9.76 21.43-21.64s-9.58-21.52-21.43-21.64c-.07 0-.15-.01-.22-.01z"/><path d="m60.17 182.32s.05 0 .06.03l18.13 30.67s-.03.07-.08.08h-35.01s-.05-.06-.03-.11l16.87-30.65s.04-.03.04-.03h.03m-.01-5.99c-.25 0-.5.01-.75.04-1.83.22-3.57 1.25-4.58 3.09l-16.87 30.65c-2.23 4.05.7 9 5.32 9h34.98c4.7 0 7.62-5.11 5.23-9.16l-18.11-30.65c-1.18-1.99-3.2-2.98-5.22-2.98z"/><path d="m190.66 182.92c8.56.08 15.5 7.07 15.5 15.65s-6.94 15.57-15.5 15.65c-.11 0-.21 0-.31-.01-8.54-.09-15.49-7.1-15.49-15.64s6.95-15.55 15.48-15.64c.11 0 .21 0 .32-.01m-.15-6c-.07 0-.15.01-.22.01-11.85.12-21.43 9.76-21.43 21.64s9.58 21.52 21.43 21.64c.07 0 .15.01.22.01 11.96 0 21.65-9.69 21.65-21.65s-9.69-21.65-21.65-21.65z"/></g></svg>