<svg height="250" viewBox="0 0 250 250" width="250" xmlns="http://www.w3.org/2000/svg"><g fill="#028c8c"><path d="m41.63 8.78 166.03-.09c9.85 1.19 16.46 8.38 17.1 18.26v195.51c-.39 10.37-7.9 18.15-18.26 18.85h-162.92c-9-.6-16.24-6.48-17.89-15.43-.61-67.29-.61-134.77 0-202.06 1.58-7.98 7.89-13.88 15.93-15.04zm.28 8.76c-4.46 1.1-7.46 4.52-7.82 9.12v196.96c.47 5.46 5.06 9.07 10.37 9.21h151.16c5.89-.43 19.89-3.74 20.37-9.79v-196.09c-.08-4.76-3.87-9.04-8.62-9.49z"/><path d="m178.24 72.33c-3.52 0-7.17-.12-10.71-.24-3.57-.12-7.25-.24-10.84-.24-2.26 0-4.29.05-6.19.15-.6-.15-1.31-.46-1.69-1.14-.34-.62-.33-1.44.03-2.33.12-.21.62-.72.95-.96h35.01c.53 0 1.04-.21 1.41-.58l.44-.44c.38-.38.59-.88.59-1.42v-29.66c0-1.1-.9-2-2-2h-120.39c-1.1 0-2 .9-2 2v30.1c0 1.1.9 2 2 2h37.2c.39.25 1.07.86 1.25 1.12.32.58.31 1.4-.07 2.13-.17.32-.65 1.07-1.57 1.21l-38.59.02c-2.45-.31-4.32-2.07-4.7-4.42l.03-34.67c.64-2.61 2.7-4.24 5.42-4.25h122.16c2.56.04 5.44 1.31 5.75 4.76.51 5.63.28 11.85.05 17.86-.21 5.53-.43 11.24-.08 16.62-.49 2.37-2.46 3.9-5.29 4.12-2.43.19-5.1.29-8.16.29z"/><path d="m142.79 102.58c11.65.71 25-1.21 36.45-.07 5.56.55 9.87 5.51 10.37 10.96.91 9.94-.68 21.19.02 31.27-.71 6.7-5.56 10.74-12.14 11.24-10.47.79-21.87-.59-32.44.01-6.3-.46-11.1-4.34-12.11-10.68.85-10.35-1.15-22.57.03-32.69.59-5.07 4.85-9.25 9.83-10.04zm1.16 8.45c-1.41.58-2.36 1.4-2.55 3l.23 31.34c.97 1.59 2.23 2 4 2.13 10.19.76 21.29-.6 31.58 0 2.02-.06 3.69-1.27 3.94-3.37-.68-9.49.88-20.19 0-29.53-.16-1.75-.82-2.65-2.33-3.51l-34.87-.07z"/><path d="m142.79 165.98c11.65.71 25-1.21 36.45-.07 5.3.53 9.9 5.4 10.37 10.67-.65 10.19.89 21.5.02 31.56-.53 6.17-5.55 10.64-11.56 11.23-10.91-.64-22.82.87-33.61.02-5.73-.45-10.94-4.8-11.53-10.68-1.02-10.19.73-22.04.03-32.4.71-5.28 4.61-9.34 9.83-10.33zm1.75 8.17c-1.58.53-2.93 1.54-3.14 3.29v30.4c.2 1.68 1.94 3.12 3.65 3.07 10.4-.78 22.23 1 32.46 0 2.08-.2 3.52-1.52 3.65-3.65-.69-9.4.87-19.99 0-29.25-.22-2.33-1.66-3.61-3.96-3.93z"/><path d="m79.75 175.34v12.56h14.17c.13 0 1.74.76 2 .92 2.69 1.76 2.53 5.68-.11 7.39-.23.15-1.47.74-1.59.74h-14.46v18.55c0 .09-.88 1.4-1.05 1.58-2.4 2.49-6.75 1.35-7.65-1.94l-.08-44.65c.1-2.41 1.87-4.25 4.25-4.52 7.93-.89 17.54.61 25.65.07 3.72.68 4.84 6.04 1.95 8.24-.21.16-1.78 1.04-1.88 1.04h-21.18z"/><path d="m90.56 111.05v38.72c0 .49-1.27 2.27-1.76 2.62-1.65 1.15-4.53 1.02-5.98-.43-.34-.34-1.31-2.16-1.31-2.48v-38.42h-11.83c-1.52 0-3.45-2.47-3.63-3.97-.43-3.58 2.18-5.15 5.37-5.39 9.91-.74 20.85.47 30.86.14 3.25.74 4.9 4.29 3.04 7.16-.43.66-2.18 2.06-2.91 2.06h-11.83z"/><path d="m105.38 62.12c-2-1.77-.98-6.94-.25-9.27 4.08-13.08 20.81-17.78 31.9-10.48 10.32 6.79 11.68 20.95 2.11 29.07-3.21 2.73-8.46 3.94-9.24 8.53-.49 2.87.25 6.71-4.02 7.37-6.05.94-6.34-5.46-5.76-9.78 1.36-10.07 14.42-10.92 15.29-18.56 1.19-10.33-13.34-14.04-19.2-6.14-2.32 3.13-1.59 8.13-5.33 9.75-1.69.73-4.05.77-5.49-.5z"/><path d="m123.82 90.92c8.81-1.6 9.57 12.84-.06 11.32-5.73-.91-6.12-10.2.06-11.32z"/><path d="m158.34 131.43c.02-.26.11-.53.29-.72 3.17-3.38 7.24-9.76 10.43-12.38 4.04-3.32 9.26 1.2 6.66 5.49-4.99 5.14-9.41 11.85-14.44 16.83-2.07 2.05-4.37 2.5-6.74.59l-8.52-10.47c-1.04-2.97.67-6.37 4.01-6.37 3.59 0 5.31 4.75 7.59 6.75.25.22.33.38.73.28z"/><path d="m150.67 179.71c4.46-.92 7.35 4.92 10.49 7.22 3.23-1.98 8.23-10.95 12.67-5.97 4.11 4.61-3.79 8.83-6.12 12.02 2.02 3.57 9.78 6.9 6.53 11.77-4.09 6.13-9.71-3.06-12.88-5.51-3.43 2.02-8.01 10.94-12.67 6.26-4.42-4.44 3.78-9.23 6.12-12.31.15-.85-6.78-6.1-7.22-8.21s.76-4.8 3.07-5.27z"/></g></svg>