<svg height="250" viewBox="0 0 250 250" width="250" xmlns="http://www.w3.org/2000/svg"><g fill="#fc943b"><path d="m67.32 96.25h-18.12s-17.79-.02-17.79-.02c-5.72 0-10.37 4.62-10.4 10.35l-.15 37.37c-.02 5.75 4.64 10.43 10.39 10.43h17.94s18.11 0 18.11 0c5.74 0 10.39-4.65 10.39-10.39v-37.35c0-5.74-4.65-10.39-10.38-10.39zm-5.15 46.47c0 1.11-.9 2.01-2.01 2.01h-21.29c-.19-2.57.08-5.17-.03-7.74-.16-3.73 0-6.47 0-10.04.02-5.94-.76-14.64-.04-20.18.42-3.21 7.43-2.27 7.89.1l.1 30.35h13.36c1.11 0 2.01.9 2.01 2.01v3.48z"/><path d="m62.16 201.15c0-7.76-6.29-14.05-14.05-14.05s-14.05 6.29-14.05 14.05 6.29 14.05 14.05 14.05 14.05-6.29 14.05-14.05zm-17.47 3.54c-4.6-4.25 1.68-11.54 6.88-7.11 4.81 4.09-2.15 11.49-6.88 7.11z"/><path d="m153.57 182.62c0-5.73-4.66-10.37-10.39-10.37h-37.34c-5.74 0-10.39 4.65-10.39 10.39v37.32c0 5.74 4.65 10.39 10.39 10.39h37.37c5.73 0 10.38-4.64 10.39-10.38.01-10.69 0-26.86-.02-37.36zm-14.85 5.96c-1.95 3.79-8.92 11.58-9.65 15.11-1.01 4.92.62 12.26-.18 17.45-.55 1.83-7.55 2.6-8.22-.43-1.09-4.91.77-12.55-.28-17.77-2.42-4.33-6.87-9.68-9.22-13.87-2.96-5.28 3.58-9.06 6.34-5.91 1.38 1.57 7.26 12.3 7.26 12.3s6.24-9.99 7.82-12.58c2.92-2.9 8.71.67 6.13 5.71z"/><path d="m120.54 129.28 8.53-.13-4.4-10.49c-1.39 3.73-2.86 7.33-4.13 10.61z"/><path d="m153.91 106.03c.03-5.72-4.57-10.39-10.3-10.44-5.84-.05-12.28-.06-18.52-.05-7.27.02-14.25.06-19.66.11-5.73.05-10.34 4.73-10.3 10.46l.26 37.4c.04 5.72 4.7 10.33 10.41 10.32l19.29-.05 18.42-.04c5.74-.01 10.38-4.67 10.37-10.4-.02-9.91-.03-25.11.03-37.31zm-15.57 39.17c-6.82.89-4.23-3.73-6.73-7.88-2.15-.3-10.1.01-11.79.02-.95 0-1.78-.48-2.23.97-.82 2.61-1.72 6.52-4.42 6.9-5.91.83-6.71-2.36-5.02-6.7 3.84-9.84 8.04-21.12 12.16-31.07 1.18-2.86 6.41-3.38 8.08-1.53.43.48 1.26 2.48 1.59 3.23 3.36 7.63 7.29 18.26 9.88 26.22 1.18 3.63 4.01 9.12-1.51 9.83z"/><path d="m124.95 64.4c7.74 0 14.02-6.28 14.02-14.02s-6.28-14.02-14.02-14.02-14.02 6.28-14.02 14.02 6.28 14.02 14.02 14.02zm-1.72-18.49c8.87-2.02 8.25 9.76 1.31 9.25-5.19-.38-5.97-8.19-1.31-9.25z"/><path d="m187.96 36.94c1.88.57 6.4-.42 8.63 0v34.74c0 1.62 8.86 1.9 8.86-.93v-33.81h8.16c2.24 0 2-6.69.94-7.93-.31-.37-5.53-.97-6.53-.97-1.44 0-17.69-.71-19.96.6-1.99 1.15-1.61 7.84-.09 8.3z"/><path d="m44.16 39.19c.03 3.41.28 6.68 0 10.08 4.56-.09 11.04.33 10.05-6.06-.77-4.92-6.35-3.88-10.05-4.02z"/><path d="m67.55 21.21-34.88.05c-6.3 0-11.41 5.11-11.43 11.41-.02 10.05-.13 25.08-.2 35.1-.04 5.77 4.62 10.46 10.39 10.46h36.03c5.73 0 10.38-4.62 10.39-10.35.03-10.28.07-25.94.1-36.24.02-5.76-4.65-10.43-10.4-10.42zm-23.23 36.21c.17 3.55-.05 6.62 0 8.98.07 3.17-.86 5.06-4.16 5.14-3.61.09-4.81-1.65-4.7-4.88.27-8.13.13-22 .28-30.22.07-3.92.69-5.52 4.85-5.64 9.09-.27 16.96-.26 20.65 7.46 5.48 11.46-3.84 20.12-16.92 19.16z"/><path d="m239.49 120.43c-6.62.03-6.06 8.98-.47 9.33 6.73.42 7-9.35.47-9.33z"/><path d="m211.27 147.01h7.46s.7-.65.7-.7v-41.51c0-.26-1.8-1.73-2.31-1.89-1.89-.59-6.56-.06-6.56 2.36v14.69h-15.86v-14.69c0-2.62-8.19-5.16-9.21 1.99.41 11.65-.97 24.27-.14 35.8.08 1.13.26 3.95 1.65 3.95h7s.7-.65.7-.7v-17.49h15.86v17.49s.65.7.7.7z"/><path d="m195.96 213.52c5.94 3.25 13.35 1.79 17.63-3.46s4.2-12.8-.18-17.96-11.82-6.47-17.69-3.1c-5.88 3.36-8.52 10.44-6.28 16.83 1.15 3.28 3.47 6.02 6.53 7.69zm6.77-17.21c2.67 0 4.83 2.16 4.83 4.83s-2.16 4.83-4.83 4.83-4.83-2.16-4.83-4.83 2.16-4.83 4.83-4.83z"/><path d="m86.67 242.64c-1.66 0-3-1.34-3-3v-152.06c0-1.66 1.34-3 3-3s3 1.34 3 3v152.07c0 1.66-1.34 3-3 3z"/><path d="m86.67 79.58c-1.66 0-3-1.34-3-3v-66.11c0-1.66 1.34-3 3-3s3 1.34 3 3v66.11c0 1.66-1.34 3-3 3z"/><path d="m162.58 242.64c-1.66 0-3-1.34-3-3v-141.46c0-1.66 1.34-3 3-3s3 1.34 3 3v141.47c0 1.66-1.34 3-3 3z"/><path d="m162.58 89.18c-1.66 0-3-1.34-3-3v-75.71c0-1.66 1.34-3 3-3s3 1.34 3 3v75.71c0 1.66-1.34 3-3 3z"/><path d="m239.21 90.1h-229.18c-1.66 0-3-1.34-3-3s1.34-3 3-3h229.18c1.66 0 3 1.34 3 3s-1.34 3-3 3z"/><path d="m162.18 166.01h-152.15c-1.66 0-3-1.34-3-3s1.34-3 3-3h152.14c1.66 0 3 1.34 3 3s-1.34 3-3 3z"/><path d="m239.21 166.01h-66.03c-1.66 0-3-1.34-3-3s1.34-3 3-3h66.03c1.66 0 3 1.34 3 3s-1.34 3-3 3z"/><path d="m221.69 243.87h-192.89c-11.86 0-21.51-9.65-21.51-21.51v-193.43c0-11.86 9.65-21.51 21.51-21.51h192.89c11.86 0 21.51 9.65 21.51 21.51v82.47c0 2.21-1.79 4-4 4s-4-1.79-4-4v-82.47c0-7.45-6.06-13.51-13.51-13.51h-192.89c-7.45 0-13.51 6.06-13.51 13.51v193.42c0 7.45 6.06 13.51 13.51 13.51h192.89c7.45 0 13.51-6.06 13.51-13.51v-82.38c0-2.21 1.79-4 4-4s4 1.79 4 4v82.38c0 11.86-9.65 21.51-21.51 21.51z"/></g></svg>