<svg xmlns="http://www.w3.org/2000/svg" viewBox="0 0 250 250" role="img" aria-labelledby="title desc">
  <title id="title">Food web icon</title>
  <desc id="desc">Trophic web with species nodes linked by directional arrows.</desc>
  <g fill="none" stroke="#3ba546" stroke-linecap="round" stroke-linejoin="round">
    <g stroke-width="10">
      <circle cx="125" cy="42" r="18"/>
      <circle cx="72" cy="100" r="18"/>
      <circle cx="178" cy="100" r="18"/>
      <circle cx="55" cy="184" r="16"/>
      <circle cx="125" cy="194" r="16"/>
      <circle cx="195" cy="184" r="16"/>

      <path d="M66 169L80 120"/>
      <path d="M116 180L85 117"/>
      <path d="M134 180L165 117"/>
      <path d="M184 169L170 120"/>
      <path d="M87 88L112 56"/>
      <path d="M163 88L138 56"/>
      <path d="M89 104H161"/>
    </g>

    <g stroke-width="8">
      <path d="M75 126l5-6 2 8"/>
      <path d="M89 123l-8-6 0 8"/>
      <path d="M161 123l8-6 0 8"/>
      <path d="M175 126l-7-6-1 8"/>
      <path d="M106 62l6-6 1 8"/>
      <path d="M144 62l-7-6-1 8"/>
      <path d="M153 98l8 6-8 2"/>
    </g>

    <g stroke-width="7">
      <path d="M49 184c5-10 14-12 20 0"/>
      <path d="M119 194c4-8 9-11 12-11s8 3 12 11"/>
      <path d="M188 184c4-8 11-12 17-12"/>
      <path d="M178 94c9-10 18-11 24-2"/>
      <path d="M72 90c4-10 12-13 20-8"/>
      <path d="M118 42c4-8 10-12 16-12"/>
    </g>
  </g>
</svg>
