<svg fill="none" height="16" viewBox="0 0 17 16" width="17" xmlns="http://www.w3.org/2000/svg" xmlns:xlink="http://www.w3.org/1999/xlink"><clipPath id="a"><path d="m.014648 0h16v16h-16z"/></clipPath><clipPath id="b"><path d="m5.01465 6h6v6h-6z"/></clipPath><g clip-path="url(#a)" stroke="#0ba1a1" stroke-linecap="round" stroke-linejoin="round"><path d="m14.6812 12.6667c0 .3536-.1404.6927-.3905.9428-.25.25-.5892.3905-.9428.3905h-10.66667c-.35362 0-.69276-.1405-.94281-.3905-.25004-.2501-.39052-.5892-.39052-.9428v-9.33337c0-.35362.14048-.69276.39052-.94281.25005-.25004.58919-.39052.94281-.39052h3.33334l1.33333 2h6c.3536 0 .6928.14048.9428.39052.2501.25005.3905.58919.3905.94281z" stroke-width="1.5"/><g clip-path="url(#b)" stroke-width="1.3"><path d="m7.76465 10.75c1.10457 0 2-.89543 2-2s-.89543-2-2-2-2 .89543-2 2 .89543 2 2 2z"/><path d="m10.2647 11.25-1.08745-1.0875"/></g></g></svg>