<svg fill="none" height="25" viewBox="0 0 24 25" width="24" xmlns="http://www.w3.org/2000/svg"><g stroke="#6b7280" stroke-linecap="round" stroke-linejoin="round" stroke-width="2"><path d="m20 9.56873h-9c-1.10457 0-2 .89547-2 1.99997v9c0 1.1046.89543 2 2 2h9c1.1046 0 2-.8954 2-2v-9c0-1.1045-.8954-1.99997-2-1.99997z"/><path d="m5 15.5687h-1c-.53043 0-1.03914-.2107-1.41421-.5858-.37508-.375-.58579-.8837-.58579-1.4142v-8.99997c0-.53044.21071-1.03915.58579-1.41422.37507-.37507.88378-.58578 1.41421-.58578h9c.5304 0 1.0391.21071 1.4142.58578s.5858.88378.5858 1.41422v1"/></g></svg>