<svg enable-background="new 0 0 512 512" height="512" viewBox="0 0 512 512" width="512" xmlns="http://www.w3.org/2000/svg"><circle cx="256" cy="256" fill="#f00" r="256"/><path d="m511.686 268.679-105.653-105.653-6.712 4.529-91.001-92.555-233.32 255.097 181.891 181.891c136.726-.467 248.2-108.109 254.795-243.309z" fill="#f00" xmlns="http://www.w3.org/2000/svg"/><path d="m203.114 229.628-1.485 26.514-1.909 36.27-32.735 37.685h-91.985v-148.193h91.773l.212-.213z" xmlns="http://www.w3.org/2000/svg"/><path d="m201.629 256.142-1.909 36.27-32.735 37.685h-91.985v-73.955z" fill="#060606" xmlns="http://www.w3.org/2000/svg"/><g fill="#00abe9" xmlns="http://www.w3.org/2000/svg"><path d="m352.156 256.142c0 13.575-4.03 27.149-11.878 38.815l-17.816-11.666c5.515-8.271 8.273-17.816 8.273-27.149s-2.758-18.878-8.273-27.151l17.816-11.666c7.848 11.666 11.878 25.242 11.878 38.817z"/><path d="m437 256.142c0 29.907-8.908 59.815-26.301 85.904l-4.666 7.212-17.605-11.879 4.666-6.999c15.06-22.484 22.696-48.362 22.696-74.238 0-25.878-7.636-51.755-22.696-74.238l-4.666-7 17.605-11.878 4.666 7.212c17.393 26.089 26.301 55.996 26.301 85.904z"/><path d="m394.367 256.142c0 21.634-6.152 43.27-18.878 62.36l-4.667 7.211-17.816-11.878 4.878-6.999c10.181-15.485 15.273-33.09 15.273-50.694 0-17.605-5.092-35.211-15.273-50.694l-4.878-7 17.816-11.878 4.667 7.212c12.726 19.089 18.878 40.724 18.878 62.36z"/></g><path d="m308.32 75v362l-141.335-106.903v-148.406z" xmlns="http://www.w3.org/2000/svg"/><path d="m166.985 256.142h141.335v180.858l-141.335-106.903z" xmlns="http://www.w3.org/2000/svg"/><g fill="#0095ff" xmlns="http://www.w3.org/2000/svg"><path d="m330.734 256.142h21.422c0 13.575-4.03 27.149-11.878 38.815l-17.816-11.666c5.515-8.271 8.272-17.816 8.272-27.149z"/><path d="m394.367 256.142c0 21.634-6.152 43.27-18.878 62.36l-4.667 7.211-17.816-11.878 4.878-6.999c10.181-15.485 15.273-33.09 15.273-50.694z"/><path d="m437 256.142c0 29.907-8.908 59.815-26.301 85.904l-4.666 7.212-17.605-11.879 4.666-6.999c15.06-22.484 22.696-48.362 22.696-74.238z"/></g></svg>