<svg height="250" viewBox="0 0 250 250" width="250" xmlns="http://www.w3.org/2000/svg"><g fill="#fc943b"><path d="m100.19 242.62c-.16 0-.29-.01-.41-.04-1.04-.26-2.4-1.57-3.36-3.25-.94-1.63-1.35-3.35-1.05-4.39.4-1.38 3.41-3.56 5.84-5.31 2.72-1.96 5.53-4 6.86-6.13.31-.5.32-1.12.04-1.63-.28-.5-.81-.81-1.39-.81 0 0-.73 0-1.09 0-30.08 0-88.49-17.29-92.86-50.34-1.22-9.27 2.08-21.39 7.53-27.6 2.36-2.69 4.87-4.06 7.46-4.06 1.2 0 2.44.31 3.68.91 1.34.65 2.1 1.38 2.31 2.23.51 2.06-1.92 5.38-4.07 8.31-2.13 2.91-4.14 5.66-4.59 8.35-2.74 16.68 8.46 27.53 18.34 33.68 19.83 12.37 48.16 17.44 63.28 19.37.07 0 .14.01.2.01.61 0 1.18-.35 1.44-.92.29-.63.15-1.37-.35-1.84-2.2-2.07-5.3-3.87-7.79-5.32-1.49-.87-3.54-2.06-3.88-2.55-.82-1.41-.66-3.47.43-5.37 1.15-1.99 3.02-3.28 4.78-3.28.23 0 .45.02.68.06 2.51 1.16 25.78 18.49 27.97 20.34.86.73 1.4 2.08 1.45 3.63.06 1.77-.52 3.42-1.55 4.44-1.16.91-2.82 2.35-4.91 4.15-7.01 6.06-20.06 17.33-24.97 17.33z"/><path d="m148.47 220.99c-1.01 0-1.83-.03-2.5-.09-1.84-.14-3.3-1.58-3.44-3.42-.06-.85-.04-1.82.11-2.82.27-1.81.92-3.22 1.66-3.61 2.79-1.46 10.45-2.41 17.21-3.25 4.39-.55 8.53-1.06 11.26-1.7 14.26-3.3 40.85-13.15 50.11-29.08 3.41-5.86 4.18-12.03 2.29-18.33-.72-2.4-2.68-4.72-4.75-7.19-2.39-2.83-4.85-5.76-4.61-8.04.1-.94.69-1.8 1.79-2.65 1.44-1.1 2.92-1.66 4.41-1.66 1.91 0 3.85.89 5.77 2.64 2.54 2.32 7.41 11.58 8.47 15.12 2.82 9.35 1.64 18.27-3.51 26.49-13.83 22.09-51.36 33.4-69.27 36.29-2.64.43-9.77 1.3-15 1.3z"/><path d="m135.11 184.27c-16 0-32.18-.74-42.98-1.37-10.04-1.77-16.77-8.83-17.17-18.01.4-21.48.23-44.6.06-66.97-.15-20.92-.31-42.55 0-62.52.16-10.06 4.73-20.27 14.58-20.38 3.17-.04 6.33-.05 9.49-.05 6.18 0 12.45.05 18.52.11 6.08.05 12.37.11 18.58.11 2.6 0 5.21 0 7.82-.03.96 0 2.06-.03 3.24-.04 2.05-.03 4.36-.07 6.66-.07 3.56 0 6.28.09 8.31.28 11.87 1.08 14.51 10.49 14.64 18.19.63 39.21.32 86.31-.89 132.63-.28 13.94-5.78 16.57-18.85 17.49-6.11.43-13.52.64-22.01.64zm-43.27-159.54c-3.18.05-5.76 2.67-5.75 5.86l.34 129.42c.02 6.49 5.31 11.82 11.8 11.87 0 0 54.99.48 54.99.48 3.28 0 6.27-1.24 8.52-3.49s3.49-5.24 3.49-8.42l-.04-128.91c0-3.69-2.51-6.16-6.24-6.16-.18 0-.37 0-.56.02-1.42.09-5.18.32-6.11 4.04-.17.69-.46 1.56-.5 2.6-.19 5.24-2.37 9.27-6.09 9.27s-11.77.27-22.27.27c-9.1 0-14.01-.23-17.21-.23-5.2 0-5.82-5.77-6.56-10.42-.16-.99-.29-1.84-.44-2.48-.55-2.37-3.16-3.72-7.15-3.72zm20.11-.11c-3.04 0-5.82 1.71-5.82 4.75s2.47 4.49 5.5 4.49h28.13c3.06 0 5.55-1.43 5.55-4.49 0-3.26-2.3-4.75-5.24-4.75h-28.13z"/></g></svg>