<svg height="250" viewBox="0 0 250 250" width="250" xmlns="http://www.w3.org/2000/svg"><g fill="#5c42ca"><path d="m127.84 33.78c.89-7.53 7.59-13.8 14.99-14.72l80.71.03c8.26 1.23 14.34 8.1 15.03 16.36l-.04 59.7c-.87 6.89-5.16 12.63-11.76 14.9v100.5c-1.26 10.24-8.95 18.48-19.21 20.04-57.02.71-114.18.1-171.25.31-11.61-.63-20.38-9.73-21.44-21.16v-139.35c.64-8.4 6.45-16.19 14.43-18.92.92-.31 3.4-1.11 4.21-1.11h94.32v-16.58zm31.4 86.09 17.8-16.43 2.09-1.28 43.02-.15c4.69-.75 7.43-4.13 7.74-8.79v-57.2c-.28-3.77-3.25-7.6-7.15-7.99-5.02-.5-11.35.1-16.56.02-3.05-.05-6.13-.39-9.24-.3-10.78.32-21.99-.04-32.78 0-6.57.02-13.41-.25-19.86.1-3.97.21-7.2 3.52-7.74 7.37v59.1c1.38 10.25 12.01 7.27 19.4 7.79 1.08.23 3.28 2.08 3.28 3.17v14.61zm-31.4-60.82h-92.92c-1.71 0-6.05 2.37-7.3 3.63-1.4 1.41-3.77 5.49-3.77 7.44v92.03h26.85c-.27-9.7-.49-19.73 6.17-27.44 5.42-6.28 12.2-8.52 20.31-8.84 8.5-.34 18.78-.34 27.2.3 7.79.59 13.52 3.03 18.64 9.11 2.36 2.8 5.89 9.53 5.89 13.17v13.71l88.79-.03v-51.11h-35.89l-24.33 21.54c-1.86.83-4.36.85-5.81-.75-.22-.25-1.11-2.06-1.11-2.25v-18.53h-7.99c-2.74 0-7.75-2.94-9.68-4.9s-5.04-7.34-5.04-10.1v-36.96zm-7.63 103.1v-12.31c0-7.02-8.5-14.94-15.54-15.01-9.79.56-20.32-.7-30.02 0-7.22.52-13.68 6.29-14.92 13.39-.08.46-.35 2.21-.35 2.46v11.05l.68.42zm-96.36 8.97v39.17c0 .21.57 2.28.7 2.66 1.37 3.95 5.84 8.19 10.11 8.67 4.79.53 9.95.04 14.85 0 50.01-.29 100.23.26 150.22 0 3.17-.02 6.47.49 9.48-.61 3.6-1.32 6.53-4.21 7.91-7.79.12-.32.7-1.97.7-2.1v-39.59c0-.09.28-.18.28-.28l-.42-.42c-.1 0-.19.28-.28.28h-193.55z"/><path d="m87.69 70.39c17.75-1.64 31.58 14.61 26.56 31.88-2.56 8.8-11.05 16.28-20.21 17.35-17.63 2.07-31.48-13.03-27.45-30.54 2.25-9.79 11-17.77 21.1-18.7zm1.12 8.69c-10.01 1.02-16.26 11.06-13.47 20.6 3.57 12.2 19.39 15.2 27.54 5.53 9.17-10.87-.23-27.55-14.08-26.13z"/><path d="m45.63 178.98c.8-.14 1.64-.06 2.45-.05 7.74 4.65 15.9 8.89 23.5 13.78 2.83 1.82 3.75 4.64 1.75 7.53-8.07 5.35-16.49 10.29-24.81 15.28-2.9.76-5.76-.92-6.18-3.93l.02-29.14c.21-1.59 1.68-3.17 3.27-3.46zm5.13 24.89 11.21-6.59-11.21-6.87v13.45z"/><path d="m182.16 35.95c3.83-.32 9.29 1.72 12.25 4.14 8.88 7.25 8.95 20 .15 27.33-2.58 2.15-6.29 2.92-6.95 6.78-.28 1.64.29 3.15-.56 4.76-1.7 3.22-7.53 2.73-7.91-1.17-.41-4.23.04-8.7 2.81-12.06 3.37-4.08 9.74-4.53 10.34-10.96.99-10.53-14.47-13.76-18.21-3.91-.98 2.58.18 5.5-2.88 6.93s-6.06-.53-6.37-3.83c-.88-9.57 8.39-17.28 17.32-18.02z"/><path d="m182.91 84.39c2.98-.39 5.89 2.71 5.89 5.6 0 2.52-2.8 5.19-5.29 5.35-6.54.41-8.07-9.96-.6-10.95z"/></g></svg>