<svg fill="none" height="321" viewBox="0 0 350 321" width="350" xmlns="http://www.w3.org/2000/svg"><path d="m102.249.584028c9.46 0 19.566 3.440102 30.316 10.320372 10.536 6.6652 25.049 18.4907 43.539 35.4763 31.821-26.661 48.795-32.6665 65.135-32.6665 10.536 0 19.566 2.9026 27.091 8.7078 13.863 10.6007 16.175 34.8103 6.463 50.7272-7.74 12.6855-17.846 26.3385-30.316 40.9588 28.381 32.251 44.233 55.457 44.233 71.368 0 11.395-3.548 20.103-10.643 26.123-7.31 6.02-16.448 9.03-27.413 9.03-16.556 0-42.514-12.562-74.55-39.438-18.275 16.125-32.681 27.306-43.216 33.541-10.751 6.235-20.964 9.353-30.639 9.353-12.9004 0-22.8983-4.193-29.9935-12.578-7.3103-8.601-10.9654-18.706-10.9654-30.316 0-7.526 1.075-14.083 3.2251-19.674 2.1501-5.59 6.1277-11.825 11.9329-18.705 5.8052-7.096 15.0506-16.878 27.7359-29.349-12.2553-12.47-21.2856-22.4682-27.0909-29.9934-6.0202-7.7403-10.1053-14.5131-12.2554-20.3183-2.3651-5.8052-3.5476-12.2554-3.5476-19.3507 0-7.5253 1.6125-14.513 4.8376-20.9632 3.2252-6.6653 7.9553-12.0405 14.1906-16.12565 6.2352-4.08515 13.5455-6.127721 21.9307-6.127722z" fill="#26ddc7"/><path d="m93.4288 310.271c-8.9749 0-15.5528-6.407-15.5528-15.245 0-8.837 6.5779-15.245 15.5528-15.245 9.9782 0 16.6122 7.623 15.2742 17.842h-22.6883c.8919 3.424 3.6234 5.468 7.4141 5.468 2.5642 0 4.794-.994 5.9647-2.541h8.6405c-2.063 5.965-7.749 9.721-14.6052 9.721zm-7.3583-18.006h14.8285c-.892-3.204-3.5123-5.303-7.4702-5.303-3.7349 0-6.4107 2.044-7.3583 5.303z" fill="#132032"/><path d="m41.8882 274.59c1.6658 0 3.4451.606 5.338 1.817 1.8551 1.174 4.4105 3.256 7.6663 6.247 5.6031-4.694 8.5917-5.752 11.4689-5.752 1.8551 0 3.4451.511 4.7702 1.533 2.4408 1.867 2.848 6.13 1.1379 8.932-1.3629 2.234-3.1423 4.638-5.338 7.212 4.9972 5.679 7.7885 9.765 7.7885 12.567 0 2.006-.6247 3.539-1.874 4.599-1.2872 1.06-2.8961 1.59-4.8269 1.59-2.9151 0-7.4857-2.212-13.1266-6.944-3.2179 2.839-5.7544 4.808-7.6095 5.906-1.8929 1.098-3.6912 1.647-5.3948 1.647-2.2715 0-4.0319-.738-5.2812-2.215-1.2872-1.514-1.9308-3.294-1.9308-5.338 0-1.325.1893-2.48.5679-3.464s1.079-2.082 2.1011-3.294c1.0222-1.249 2.6501-2.972 4.8837-5.167-2.1579-2.196-3.7479-3.956-4.7701-5.282-1.06-1.362-1.7793-2.555-2.1579-3.577-.4165-1.022-.6247-2.158-.6247-3.407 0-1.325.284-2.556.8518-3.692.5679-1.173 1.4008-2.12 2.4987-2.839s2.3851-1.079 3.8615-1.079z" fill="#26ddc7"/><g fill="#132032"><path d="m16.0697 310.271c-8.97496 0-15.552856-6.407-15.552856-15.245 0-8.837 6.577896-15.245 15.552856-15.245 9.9783 0 16.6119 7.623 15.2741 17.842h-22.6882c.89191 3.424 3.6234 5.468 7.4141 5.468 2.5642 0 4.794-.994 5.9647-2.541h8.6404c-2.0625 5.965-7.7485 9.721-14.6051 9.721zm-7.35836-18.006h14.82816c-.8919-3.204-3.5119-5.303-7.4698-5.303-3.7349 0-6.4107 2.044-7.35836 5.303z"/><path d="m334.05 320.077c-2.809 0-5.125-.323-6.948-.968-1.784-.646-3.208-1.47-4.271-2.474-1.063-.968-1.841-1.936-2.335-2.904s-.816-1.793-.968-2.474c-.114-.645-.171-.968-.171-.968h8.429s.057.161.171.484c.151.359.436.753.854 1.183.417.466 1.025.861 1.822 1.183.835.359 1.937.538 3.303.538 2.354 0 4.082-.627 5.183-1.882 1.139-1.255 1.708-2.904 1.708-4.948v-3.011h-.398c-.38.573-.949 1.201-1.709 1.882-.759.681-1.727 1.255-2.904 1.721s-2.601.699-4.272.699c-2.24 0-4.195-.394-5.865-1.183-1.671-.825-3.076-1.918-4.215-3.281-1.101-1.362-1.936-2.886-2.506-4.571-.531-1.685-.797-3.424-.797-5.216 0-1.757.266-3.478.797-5.163.57-1.721 1.405-3.263 2.506-4.625 1.139-1.362 2.544-2.438 4.215-3.227 1.67-.824 3.625-1.237 5.865-1.237 1.671 0 3.095.251 4.272.753 1.177.466 2.145 1.04 2.904 1.721.797.646 1.367 1.273 1.709 1.882h.398v-3.818h8.657v26.674c0 2.367-.551 4.554-1.652 6.561-1.101 2.008-2.79 3.621-5.068 4.84s-5.183 1.829-8.714 1.829zm-.114-18.392c1.595 0 2.905-.377 3.93-1.13 1.063-.753 1.86-1.721 2.392-2.904.531-1.219.797-2.474.797-3.764 0-1.327-.266-2.582-.797-3.765-.532-1.183-1.329-2.151-2.392-2.904-1.025-.753-2.335-1.129-3.93-1.129-1.556 0-2.866.376-3.929 1.129-1.025.753-1.804 1.721-2.335 2.904-.532 1.183-.798 2.438-.798 3.765 0 1.29.266 2.545.798 3.764.531 1.183 1.31 2.151 2.335 2.904 1.063.753 2.373 1.13 3.929 1.13z"/><path d="m292.065 292.823v17.455h-8.759v-30.193h8.348v5.327h.37c.699-1.756 1.871-3.145 3.516-4.167 1.644-1.036 3.639-1.553 5.983-1.553 2.193 0 4.105.458 5.736 1.376 1.631.917 2.899 2.227 3.804 3.931.904 1.691 1.357 3.709 1.357 6.054v19.225h-8.759v-17.731c.014-1.847-.48-3.289-1.48-4.324-1.001-1.049-2.379-1.573-4.133-1.573-1.179 0-2.221.243-3.125.728-.891.484-1.59 1.192-2.097 2.122-.494.918-.747 2.025-.761 3.323z"/><path d="m266.028 272.725c0-2.719 2.04-4.758 4.928-4.758 2.832 0 4.871 2.039 4.871 4.758 0 2.718-2.039 4.701-4.871 4.701-2.888 0-4.928-1.983-4.928-4.701z"/><path d="m238.687 292.823v17.455h-8.759v-30.193h8.348v5.327h.37c.699-1.756 1.871-3.145 3.515-4.167 1.645-1.036 3.64-1.553 5.984-1.553 2.193 0 4.105.458 5.736 1.376 1.631.917 2.899 2.227 3.804 3.931.904 1.691 1.357 3.709 1.357 6.054v19.225h-8.759v-17.731c.014-1.847-.48-3.289-1.48-4.324-1.001-1.049-2.379-1.573-4.133-1.573-1.179 0-2.221.243-3.125.728-.891.484-1.59 1.192-2.098 2.122-.493.918-.747 2.025-.76 3.323z"/><path d="m205.092 310.278v-30.02h7.534v3.341c2.039-2.492 5.211-3.795 8.496-3.795 1.133 0 2.322.17 3.455.454v7.476c-1.246-.226-2.379-.396-3.455-.396-4.928 0-7.93 2.888-7.93 7.816v15.124z"/><path d="m179.787 310.902c-9.006 0-15.124-6.797-15.124-15.633 0-9.176 6.401-15.634 15.124-15.634 3.851 0 7.476 1.36 10.025 3.625v-3.002h7.024v30.021h-7.024v-3.002c-2.605 2.265-6.287 3.625-10.025 3.625zm-6.911-15.633c0 4.701 3.342 8.043 7.987 8.043 4.588 0 7.93-3.342 7.93-8.043 0-4.702-3.342-8.044-7.93-8.044-4.645 0-7.987 3.342-7.987 8.044z"/><path d="m145.011 310.902c-9.119 0-15.803-6.571-15.803-15.633 0-9.063 6.684-15.634 15.803-15.634 10.139 0 16.879 7.817 15.52 18.296h-23.054c.907 3.511 3.682 5.607 7.534 5.607 2.605 0 4.871-1.019 6.06-2.605h8.78c-2.096 6.117-7.873 9.969-14.84 9.969zm-7.477-18.466h15.067c-.906-3.285-3.569-5.437-7.59-5.437-3.795 0-6.514 2.096-7.477 5.437z"/><path d="m122.975 310.278h-8.1v-38.607l8.1-1.042z"/><path d="m274.974 310.272h-8.092v-29.226l8.092-.789z"/></g></svg>