<svg height="250" viewBox="0 0 250 250" width="250" xmlns="http://www.w3.org/2000/svg"><g fill="#fc3b53"><path d="m180.11 36.22c-.55 0-1.11-.15-1.61-.47-.55-.35-1.1-.69-1.67-1.01-.97-.55-1.51-1.56-1.51-2.6 0-.51.13-1.02.4-1.49.82-1.44 2.66-1.94 4.09-1.11.65.37 1.29.76 1.91 1.16.9.57 1.39 1.54 1.39 2.53 0 .55-.15 1.11-.47 1.61-.57.9-1.54 1.39-2.53 1.39z"/><path d="m177.69 34.78c-.51 0-1.03-.13-1.51-.41s-.01 0-.02-.01c-2.87-1.67-5.91-2.97-9.07-3.88-3.68-1.06-7.5-1.62-11.35-1.58h-.02c-1.65 0-2.99-1.33-3-2.98 0-1.66 1.33-3.01 2.98-3.02h.25c4.38 0 8.73.63 12.91 1.85 3.59 1.05 7.07 2.54 10.33 4.44 1.43.83 1.92 2.67 1.08 4.1-.56.96-1.56 1.49-2.59 1.49z"/><path d="m212.15 164.34c-1.03 0-2.03-.53-2.59-1.48-.82-1.39-.39-3.18.96-4.05 1.35-.88 3.16-.54 4.1.79.89 1.27.66 3-.5 4s0 0-.01.01c-.06.05-.13.11-.2.16-.02.02-.05.03-.08.05-.02.01-.04.03-.06.04-.05.03-.11.07-.16.09-.46.25-.95.37-1.43.37z"/><path d="m212.13 164.86-1.56-2.57-1.5-2.6c1.44-.83 3.31-.36 4.14 1.08.28.48.41 1.01.41 1.52 0 1.02-.52 2-1.47 2.55l-1.5-2.6 1.48 2.61z"/><path d="m188.8 171.27c-19.67 0-38.67-13.25-44.4-32.65-.04-.12-.06-.25-.08-.37-2.68-8.65-2.72-18.17-.1-26.86.46-1.53 2.04-2.43 3.59-2.05 20.17 5 42.01-7.73 47.7-27.81.43-1.52 1.98-2.45 3.52-2.11 19.72 4.24 35.23 22.62 36.1 42.75.04.73.07 1.47.07 2.21.44 21.3-14.94 40.91-35.78 45.56-3.51.9-7.08 1.33-10.62 1.33zm-38.52-33.95c6.05 19.65 27.81 31.9 47.75 26.79 17.9-4 31.56-21.4 31.18-39.64 0-.69-.03-1.34-.06-1.99 0-.01 0-.02 0-.04-.71-16.6-12.88-31.82-28.75-36.49-7.37 20.55-29.7 33.58-51.13 29.82-1.57 6.94-1.26 14.32.9 21.07.05.16.09.32.11.48z"/><path d="m110.71 34.28-.11-.06c-1.04-.53-1.65-1.58-1.65-2.68 0-.46.1-.92.32-1.35.75-1.48 2.55-2.07 4.03-1.32l-1.36 2.68 1.39-2.66-1.28 2.71-1.36 2.68z"/><path d="m113.63 35.45c-.49 0-.99-.12-1.45-.38-.99-.56-1.56-1.6-1.56-2.67 0-.49.12-.98.37-1.44.81-1.45 2.6-1.98 4.05-1.17 0 0 .05.03.06.03.98.56 1.53 1.58 1.53 2.63 0 .5-.12 1-.38 1.46-.55.98-1.57 1.53-2.61 1.53z"/><path d="m156.68 116.47c-3.5 0-6.98-.44-10.35-1.32-.08-.02-.16-.05-.24-.07-7.17-1.65-14.34-5.28-20.21-10.25-.01-.01-.03-.02-.04-.03-1.35-1.14-2.44-2.15-3.41-3.16-1.11-1.15-1.12-2.97-.03-4.14 14.03-14.95 13.63-40.74-.86-55.19-1.13-1.13-1.18-2.95-.11-4.14 13.08-14.47 32.74-19.06 51.29-11.97 18.7 7.14 30.38 23.79 30.5 43.46.43 13.87-5.99 27.13-17.62 36.4-8.53 6.79-18.82 10.41-28.92 10.41zm-8.5-7.04c11.2 2.83 23.76-.17 33.67-8.07 10.15-8.09 15.75-19.59 15.37-31.56 0-.03 0-.05 0-.08-.11-20.5-13.83-33.03-26.64-37.93-15.3-5.85-31.45-2.61-42.79 8.41 14.32 16.42 14.73 42.25.94 59.15.32.28.65.57 1.01.87l.04.03c5.24 4.42 11.61 7.62 17.96 9.03.15.03.3.08.44.13z"/><path d="m102.64 115.59c-1.29 0-2.48-.84-2.87-2.14-5.88-19.54-28.31-32.12-48-26.92-1.51.4-3.08-.43-3.6-1.91-4.27-12.27-2.66-26.13 4.43-38.01 7.08-11.87 18.5-19.87 31.34-21.95 15.2-2.86 31.24 2.29 41.89 13.46 7.99 8.25 12.73 19.54 12.99 30.95.36 11.85-4.01 23.69-12 32.49 0 0-.01.01-.02.02-5.08 5.6-11.77 10.06-18.82 12.55-1.54.55-3.09 1.02-4.63 1.39-.24.06-.48.09-.71.09zm-41.44-36.27c18.65 0 36.65 11.86 43.36 29.62.47-.15.93-.31 1.4-.47 6.14-2.17 11.95-6.04 16.38-10.92 0 0 .01-.01.02-.02 6.96-7.66 10.78-17.97 10.46-28.3v-.02c-.23-9.92-4.35-19.74-11.32-26.94-9.15-9.59-22.86-14.08-35.92-11.81-.54.28-1.14.37-1.71.31-10.66 2.05-20.13 8.9-26.11 18.92-5.69 9.53-7.35 20.47-4.7 30.41 2.71-.52 5.44-.77 8.15-.77z"/><path d="m50.22 183.95c-1.63 0-2.97-1.27-3-2.91 0 0 0-.06 0-.07v-.03c0-1.64 1.32-3 2.96-3.02h.04c1.63 0 2.97 1.29 3 2.93v.05c0 1.63-1.31 3.01-2.95 3.04-.02 0-.04 0-.05 0z"/><path d="m50.27 185.76c-1.6 0-2.92-1.24-2.99-2.85l5.99-.29s0 .09 0 .13c0 1.6-1.26 2.94-2.87 3.01-.04 0-.09 0-.13 0z"/><path d="m52 171.33c-.19 0-.39-.02-.58-.06-12.89-2.54-24.1-10.97-30.78-23.12-6.66-12.13-7.76-26.08-3-38.27 6.85-18.48 23.88-30.31 43.57-30.31h.98c20.09.4 37.09 12.99 43.31 32.08 1.05 3.26 1.73 6.64 2.03 10.05.06.6.09 1.2.13 1.8.26 5.25-.35 10.46-1.82 15.49-.45 1.53-2.02 2.45-3.57 2.08-19.86-4.71-41.99 8.39-47.37 28.04-.36 1.32-1.56 2.21-2.89 2.21zm9.24-85.76c-13.79 0-30.77 6.91-38 26.43-4.13 10.59-3.16 22.69 2.65 33.26 5.36 9.76 14.03 16.75 24.07 19.51 7.15-20.5 29.34-33.65 50.79-30.11.78-3.55 1.09-7.18.9-10.84-.03-.52-.06-1.04-.11-1.56-.27-2.99-.86-5.93-1.77-8.76-6.57-20.17-23.79-27.65-37.72-27.93-.27 0-.54 0-.82 0z"/><path d="m94.05 227.22c-7.78 0-15.68-2.05-23.12-6.25-19.29-10.88-27.85-31.86-21.83-53.45 3.44-12.81 12.83-23.47 25.76-29.22 12.93-5.74 27.11-5.58 38.92.45 5.03 2.39 9.59 5.72 13.61 9.9 1.1 1.15 1.12 2.96.03 4.12-11.88 12.77-13.99 32.85-5.02 47.74 0 0 .01.02.02.03 1.55 2.63 3.4 5.1 5.52 7.34 1.13 1.19 1.09 3.07-.09 4.21-.02.02-.04.04-.06.05-9.41 9.92-21.42 15.07-33.74 15.07zm.18-87.1c-5.64 0-11.41 1.22-16.92 3.67-11.27 5.01-19.44 14.23-22.41 25.31-6.4 22.92 6.23 39.45 18.99 46.64 12.25 6.91 31.81 9.26 47.76-5.92-1.63-1.96-3.1-4.04-4.38-6.22-9.81-16.3-8.09-37.99 3.86-52.71-3.02-2.78-6.35-5.04-9.91-6.73-.03-.01-.08-.04-.1-.05-5.21-2.67-10.97-4-16.87-4z"/><path d="m157.18 226.6c-3.97 0-7.93-.54-11.76-1.63-15.66-3.94-27.82-15.83-32.52-31.83-4.72-16.04-.92-32.67 10.15-44.46 6.22-6.79 14.59-11.71 23.54-13.83 1.55-.37 3.12.54 3.57 2.07 5.88 19.88 27.8 32.33 47.87 27.19 1.54-.4 3.13.48 3.61 2 1.37 4.33 2.09 8.84 2.14 13.4.41 14.15-6.33 28.04-18.04 37.14-8.38 6.51-18.5 9.96-28.55 9.96zm-11.85-85.19c-6.79 2.12-13.07 6.09-17.89 11.35-9.62 10.26-12.9 24.71-8.79 38.69 4.1 13.95 14.67 24.31 28.27 27.71.03 0 .07.02.1.03 11.74 3.36 24.84.64 35.03-7.28 10.21-7.94 16.09-20 15.72-32.25v-.06c-.03-3.06-.41-6.09-1.13-9.05-2.6.48-5.21.71-7.81.71-18.76 0-36.85-11.99-43.5-29.85z"/><path d="m51 86.64c-.78 0-1.56-.32-2.12-.88s-.88-1.34-.88-2.12.32-1.57.88-2.13c1.12-1.11 3.13-1.11 4.24 0 .14.14.27.3.38.46s.2.34.27.52c.08.18.14.37.17.56.04.19.06.39.06.59 0 .79-.32 1.56-.88 2.12-.55.56-1.33.88-2.12.88z"/><path d="m154.7 28.15c22.11 0 43.73 17.01 43.86 42.78.14 4.29-.46 8.45-1.66 12.38-.04 0-.08-.02-.12-.03l.08.15s.03-.08.04-.12c18.08 3.95 32.08 20.59 32.87 39.06.04.68.06 1.36.07 2.04.4 19.33-13.79 37.45-32.7 41.67 1.27 4.03 1.91 8.17 1.96 12.28.71 23.73-19.91 43.09-42.53 43.09-3.59 0-7.23-.49-10.84-1.52-8.1-2.03-14.86-6.27-20.01-11.84 0 0 .01-.02.02-.02s0 0 0 0l-.22-.2c.07.07.14.15.2.22-9.1 9.67-20.16 13.86-30.92 13.86-25.72 0-49.73-24-41.2-54.58-24.63-4.85-39.97-32.77-30.87-56.09 5.41-14.62 17.09-23.59 29.73-26.68l.17-.05s0 0 0 0c-8.16-23.43 8.12-50.82 32.71-54.79-.08.05-.15.11-.23.17.08-.06.16-.11.24-.17 2.52-.48 5.08-.71 7.63-.71 11.42 0 22.75 4.67 30.7 13 8.69-9.62 19.91-13.9 31.01-13.9m.01-10c-11.48 0-22.29 3.69-31.24 10.56-8.79-6.21-19.47-9.66-30.47-9.66-3.13 0-6.25.29-9.29.85-.05 0-.1.02-.14.03-14.55 2.41-27.45 11.44-35.42 24.8-6.18 10.36-8.66 22.08-7.24 33.32-12.68 5.68-22.46 16.13-27.51 29.69-5.38 13.86-4.16 29.64 3.36 43.32 5.85 10.65 14.82 18.77 25.39 23.22-1.38 13.21 2.08 25.89 10.11 36.47 10.08 13.28 25.99 21.22 42.55 21.22 11.16 0 21.88-3.68 30.95-10.51 5.19 3.78 11.07 6.55 17.38 8.15 4.37 1.24 8.89 1.86 13.43 1.86 13.97 0 27.76-5.95 37.83-16.33 9.86-10.16 15.08-23.29 14.7-36.97-.02-1.82-.14-3.64-.35-5.44 18.63-8.33 31.49-27.65 31.09-48.44 0-.76-.03-1.55-.08-2.39-.87-19.77-13.56-37.52-31.38-45.3.18-1.94.24-3.88.19-5.83-.11-14.79-6.13-28.37-16.95-38.25-9.98-9.11-23.43-14.34-36.91-14.34z"/></g></svg>