<svg height="250" viewBox="0 0 250 250" width="250" xmlns="http://www.w3.org/2000/svg"><g fill="#fc3b53"><path d="m212.02 61.97-5.64-.69 1.8-14.69c.88-7.16-1.09-14.24-5.55-19.94-4.45-5.7-10.85-9.32-18.01-10.2l-79.53-9.79c-1.09-.13-2.2-.2-3.29-.2-11.04 0-20.75 6.52-24.95 16.67l-13.63-1.66c-1.09-.13-2.2-.2-3.29-.2-13.65 0-25.19 10.21-26.85 23.76l-15.4 125.67c-1.81 14.8 8.76 28.32 23.56 30.14l45.57 5.56c.78 13.04 10.61 23.55 23.68 25.15l79.54 9.8c1.09.13 2.2.2 3.29.2 13.65 0 25.19-10.21 26.85-23.76l15.4-125.67c1.81-14.8-8.76-28.32-23.56-30.14zm-124.19-36.14c2.83-5.12 8.18-8.29 13.98-8.29.64 0 1.29.04 1.94.12l79.53 9.8c4.22.52 7.99 2.66 10.62 6.03s3.8 7.55 3.28 11.76l-15.4 125.67c-.98 8-7.79 14.02-15.85 14.02-.64 0-1.3-.04-1.9-.11l-13.33-2.15 14.88-121.47c.76-6.16-.94-12.25-4.78-17.16s-9.34-8.03-15.51-8.79l-58.65-6.7c.31-.93.71-1.85 1.2-2.73zm67.2 22.73c2.63 3.37 3.8 7.55 3.28 11.76l-15.4 125.67c-.14 1.14-.42 2.3-.84 3.45-2.28 6.32-8.32 10.57-15.02 10.57-.64 0-1.3-.04-1.94-.12l-82.53-10.07c-8.74-1.07-14.98-9.05-13.91-17.79l15.4-125.67c.98-8 7.79-14.02 15.85-14.02.64 0 1.3.04 1.94.12l82.53 10.07c4.22.52 7.99 2.66 10.62 6.03zm-57.18 155.87 10.02 1.23c.92.11 18.25 1.67 19.85 1.67 9.19-.26 17.4-5.97 20.91-14.55.38-.93.7-1.89.96-2.86l13.5 2.17c.94.12 1.89.17 2.84.17h.65c11.41-.33 21.07-9.12 22.46-20.45l12.25-99.98 9.37 1.15c8.74 1.07 14.98 9.05 13.91 17.79l-15.4 125.67c-.98 8-7.79 14.03-15.85 14.03-.64 0-1.3-.04-1.94-.12l-79.53-9.8c-7.33-.9-13.04-6.66-13.9-14.02-.08-.69-.11-1.39-.1-2.09z"/><path d="m98.34 56.95 4.44.52c3.78.44 6.84 3.27 7.58 7l19.09 96.86c.86 4.35-2.79 8.25-7.19 7.69l-.17-.02c-2.72-.35-4.94-2.37-5.52-5.06l-6.07-27.81-39.51-5.03-11.8 25.31c-1.2 2.57-3.93 4.06-6.74 3.69-4.36-.58-6.89-5.23-5.02-9.2l41.96-89c1.6-3.4 5.2-5.4 8.94-4.96zm-22.32 63.49 32.14 4.09-9.7-51.43-22.44 47.33z"/></g></svg>