<svg height="250" viewBox="0 0 250 250" width="250" xmlns="http://www.w3.org/2000/svg"><path d="m25.02 235.56c-5.29 0-10.58-5.29-10.58-10.58v-199.96c0-5.29 5.29-10.58 10.58-10.58h199.96c5.29 0 10.58 5.29 10.58 10.58v199.96c0 5.29-5.29 10.58-10.58 10.58zm103.3-11.11c.7 1.34 1.85 2.78 3.54 2.81h91.93c1.69-.06 3.42-1.81 3.48-3.6v-91.88c-.04-1.63-1.47-2.76-2.82-3.46h-33.97c-.12.05-.29.22-.32.33-.21 1.31-.2 6.62 0 7.98.08.53.81 1.21 1.51 1.87.61.57 1.24 1.17 1.76 1.9 4.57 6.07 5.29 13.75 1.91 20.5-3.29 6.85-9.87 10.95-17.61 10.95s-16.3-4.42-18.85-14.31c-1.61-5.99-.41-12.27 3.29-17.19.48-.69 1.11-1.28 1.72-1.86.7-.66 1.42-1.34 1.51-1.88.21-1.35.21-6.66 0-7.98-.01-.07-.02-.1-.03-.11-.03-.04-.26-.18-.87-.24-3.43-.31-7.46-.46-12.3-.46-4.51 0-9.23.13-13.79.25-2.65.07-5.28.14-7.85.19-1.24.02-2.22 1.04-2.2 2.27.05 2.61.12 5.27.19 7.96.25 9.08.5 18.46-.24 26.62-.22 4.73-3.54 7.17-9.85 7.17-1.33 0-2.64-.09-3.8-.18-.76-.05-1.47-.11-2.08-.12-.09 0-.17-.01-.26-.02-2.67-.42-4.2-2-5.44-3.27-.45-.46-.87-.9-1.32-1.26-2.26-1.7-5.01-2.62-7.9-2.62-1.19 0-2.38.16-3.54.47-4.93 1.28-8.26 4.93-9.15 10.01-.88 4.99 1 10.04 4.66 12.56.03.02.06.05.1.07 2.33 1.82 5.3 2.86 8.15 2.86 2.73 0 5.33-.91 7.73-2.72.35-.29.77-.72 1.22-1.17 1.32-1.33 2.96-2.99 5.54-3.32.05 0 .11-.01.16-.01.5-.02 1.06-.06 1.65-.11 1.22-.09 2.61-.19 4.03-.19 6.38 0 9.78 2.31 10.09 6.88v.13 34.16zm-9.89 2.8c1.52-.2 2.57-1.56 3.24-2.81v-33.96c-.04-.11-.2-.27-.31-.31-1.83-.18-3.32-.27-4.56-.27-3.49 0-4.11.6-5.47 1.92-1.31 1.27-3.09 3-7.43 4.63-1.98.72-4.02 1.08-6.08 1.08-6.62 0-13.08-3.74-16.86-9.75-3.55-5.66-4.02-12.18-1.29-17.9 2.78-6.98 10.09-11.66 18.22-11.66 4.36 0 8.52 1.41 11.74 3.96.71.51 1.29 1.12 1.85 1.72.66.7 1.35 1.42 1.89 1.51.5.08 1.95.16 4.05.16s3.45-.08 3.93-.15c.07-.01.1-.03.11-.03.04-.03.18-.26.24-.87.71-8.37.46-17.23.22-25.8-.08-2.73-.15-5.45-.2-8.15-.02-1.21-1.03-2.19-2.25-2.19-2.65.05-5.28.12-7.93.2-4.32.12-8.8.25-13.21.25-4.91 0-9.18-.16-13.04-.5-1.61-.15-6.46-.6-7.27-6.41-.43-3.06-.61-9.8 1.81-13.36.86-1.3 1.75-2.34 2.53-3.26 1.89-2.22 3.14-3.69 3.05-7.67.03-3.6-1.18-6.7-3.48-9.02-2.39-2.41-5.76-3.73-9.49-3.73-.25 0-.5 0-.76.02-.03 0-.44 0-.44 0-4.73 0-9.28 3.17-11.33 7.88-1.93 4.42-1.15 8.99 2.12 12.55 4.14 3.74 5.22 10.66 4.44 15.91-.24 4.15-3.13 6.92-7.4 7.1-2.36.22-4.95.32-7.94.32-3.38 0-6.82-.13-10.14-.26-3.11-.12-6.6-.26-9.97-.26-.7 0-1.39 0-2.09.02-.01 0-.02 0-.04 0-.07 0-.14 0-.21-.01-.3-.03-.59-.05-.88-.05-1.4 0-3.87.39-5.07 2.96v93.39c.74 1.39 1.58 2.27 2.52 2.63l93.18.18zm59.71-61.92c4.64 0 9.07-3.04 11.28-7.73 2.18-4.64 1.7-9.57-1.28-13.18-.38-.47-.81-.9-1.28-1.34-1.27-1.23-2.85-2.77-3.26-5.43-.01-.07-.02-.15-.02-.22-.02-.52-.06-1.1-.11-1.72-.26-3.73-.62-8.83 1.99-11.82 1.16-1.34 2.75-2.08 4.71-2.22h.13 34.15c1.25-.66 2.61-1.72 2.81-3.23l-.18-93.18c-.36-.93-1.24-1.78-2.63-2.52h-93.34c-1.27.66-2.14 1.53-2.78 2.77v34c.05.12.22.29.33.32.46.07 1.87.15 3.93.15s3.54-.08 4.05-.16c.52-.08 1.21-.81 1.87-1.51.58-.61 1.17-1.24 1.91-1.76 3.85-2.68 7.89-4.03 12.02-4.03 8.22 0 15.88 5.72 18.61 13.91 2.72 8.14-.06 16.3-7.43 21.83-3.42 2.38-7.31 3.61-11.3 3.61-4.28 0-8.41-1.41-11.95-4.06-.69-.48-1.28-1.11-1.86-1.72-.66-.7-1.35-1.42-1.89-1.51-.49-.08-1.95-.16-4.04-.16s-3.46.08-3.94.15c-.07.01-.1.02-.11.03-.04.03-.18.26-.24.87-.71 7.85-.46 17.12-.21 26.09.07 2.65.14 5.28.19 7.85.02 1.21 1.02 2.2 2.21 2.2 2.75-.05 5.47-.12 8.18-.2 4.36-.12 8.86-.25 13.3-.25 3.33 0 6.31.07 9.12.21.33-.01.64-.02.94-.02 3.78 0 6.43.86 8.09 2.62 2.5 2.65 2.26 6.55 2 11.06-.05.77-.09 1.56-.13 2.37 0 .07-.01.15-.02.22-.42 2.66-2 4.2-3.26 5.43-.46.45-.9.87-1.26 1.32-2.43 3.23-3.22 7.41-2.14 11.44 1.37 5.51 6.58 9.49 12.4 9.49h.08s.35 0 .35 0zm-93.43-43.83c.13.05.45.13 1.19.2 3.41.31 7.4.47 12.2.47 4.45 0 9.11-.13 13.61-.25 2.6-.07 5.18-.14 7.71-.19 1.24-.02 2.22-1.04 2.2-2.27-.05-2.61-.12-5.27-.19-7.95-.25-9.08-.5-18.47.24-26.63.26-4.73 3.55-7.17 9.77-7.17 1.3 0 2.61.09 3.76.17.79.05 1.53.11 2.19.12.09 0 .17.01.26.02 2.66.42 4.2 2 5.43 3.27.45.46.87.9 1.32 1.26 2.32 1.74 5.07 2.68 7.9 2.68 2.64 0 5.21-.82 7.45-2.38 4.85-3.47 6.72-8.79 4.98-14.22-1.78-5.56-6.81-9.44-12.22-9.44-2.72 0-5.47.92-8.17 2.73-.42.35-.83.77-1.26 1.21-1.23 1.27-2.77 2.85-5.43 3.27-.07.01-.14.02-.21.02-.5.02-1.06.06-1.65.11-1.22.09-2.61.19-4.02.19-6.38 0-9.78-2.31-10.09-6.88 0-.04 0-.09 0-.13v-34.2c-.64-1.25-1.52-2.13-2.77-2.78h-93.4c-1.25.65-2.13 1.52-2.78 2.78v93.38c.64 1.24 1.49 2.1 2.68 2.73 1.73-.1 3.58-.15 5.61-.15 3.36 0 6.78.13 10.1.26 3.26.13 6.64.26 9.89.26 2.8 0 5.26-.1 7.5-.3.74-.07 1.06-.15 1.18-.2.03-.08.07-.23.11-.51 1.13-6.29-.64-8.53-2.87-11.37-2-2.54-4.27-5.42-4.56-11.06-.5-13.39 9.51-19.91 19.03-20.31.37-.02.77-.03 1.16-.03 5.37 0 10.55 2.14 14.21 5.88 3.51 3.59 5.39 8.38 5.29 13.49.08 6.2-2.34 9.21-4.47 11.86-2.28 2.84-4.08 5.08-2.98 11.48.05.32.09.49.11.57z" fill="#5c42ca"/></svg>