<svg height="250" viewBox="0 0 250 250" width="250" xmlns="http://www.w3.org/2000/svg"><path d="m61.44 234.97c-5.55 0-10.76-2.16-14.69-6.08-3.93-3.93-6.09-9.15-6.09-14.7v-92.45c0-8.92 7.26-16.19 16.18-16.2h6.74c-.05-2.07-.11-4.17-.18-6.33-.45-14.32-.92-29.13 3.62-42.63 8.88-26.4 32.83-43.46 61.01-43.46 28.21 0 52.18 17.06 61.07 43.46 4.68 13.91 4.75 17.34 4.27 28.25-.12 2.65-.25 5.66-.33 9.52-.01.52 0 5.79 0 10.92h6.2s0 0 .01 0c4.33 0 8.4 1.69 11.46 4.75 3.06 3.07 4.75 7.14 4.74 11.48s-.13 92.64-.13 92.64c-.02 11.43-9.33 20.74-20.77 20.75l-133.11.09h-.01zm66.59-211.86c-18.95 0-42.44 9.63-51.54 36.65-3.97 11.79-3.53 25.69-3.11 39.13.12 3.82.25 7.78.26 11.61 0 1.33-.52 2.61-1.45 3.55-.94.94-2.21 1.47-3.54 1.48h-11.81c-3.42.02-6.2 2.8-6.2 6.22v92.45c0 2.88 1.12 5.59 3.16 7.63 2.04 2.03 4.74 3.16 7.62 3.16l133.11-.09c5.93 0 10.77-4.83 10.77-10.77l.13-92.64c0-1.66-.64-3.22-1.82-4.39-1.17-1.17-2.73-1.82-4.39-1.82h-11.21s0 0 0 0c-2.76 0-5-2.23-5-4.99 0-2.53-.02-15.21 0-16.14.08-3.97.23-7.17.34-9.75.43-9.85.52-11.9-3.76-24.62-7.49-22.27-27.74-36.65-51.59-36.65zm82.43 98.37h.01zm-45.46-6.36h-72.61c-2.96 0-5.37-2.41-5.37-5.37v-33.22c0-20.39 19.33-39.52 40.56-40.12 10.74-.3 22.18 4.42 30.65 12.65 7.84 7.62 12.15 17.15 12.15 26.84v33.85c0 2.96-2.41 5.37-5.37 5.37zm-67.98-10h63.35v-29.22c0-6.97-3.24-13.95-9.12-19.67-6.57-6.38-15.31-10.06-23.39-9.83-15.85.45-30.84 15.09-30.84 30.13z" fill="#d040b2"/></svg>