<svg height="250" viewBox="0 0 250 250" width="250" xmlns="http://www.w3.org/2000/svg"><g fill="#295394"><path d="m28.45 239.6c-6.49-.79-11.41-6.15-11.71-12.76v-204.08c.38-5.99 4.81-11.04 10.78-12.25l148.25-.11c8.34 1.21 12.95 6.02 12.97 13.55.01 5.78-.15 20.71-.27 31.6-.04 4.11-.08 7.72-.11 10.21-.96 3.68-4.91 7.54-7.76 7.54-1.41 0-2.5-.95-3.22-2.83-.07-9.65-.07-37.25-.01-46.27 0-1.67-.86-2.81-2.44-3.21-.08-.02-.16-.03-.24-.03 0 0-145.39.11-145.39.11-.22 0-.43.07-.61.21-1.29.98-1.93 2.26-1.84 3.68v200.15c.05 2.18.96 3.69 2.48 4.17.1.03.2.04.3.04l145.22-.11c.26 0 .52-.11.71-.29l1.25-1.25c.19-.19.29-.44.29-.7l.3-46.3c.79-2.79 4.76-5.7 7.83-5.7 1.94 0 3.02 1.2 3.2 3.56l-.58 47.99c-.52 7.1-4.9 12-11.72 13.08z"/><path d="m92.07 132.13c-1.89 0-3.61-.87-4.61-2.33-1.02-1.49-1.17-3.36-.43-5.27.4-1.04 2.56-2.93 3.34-2.93h7.3c.55 0 1-.45 1-1v-67.67c0-.55-.45-1-1-1h-23.15c-.55 0-1 .45-1 1v13.87c-.22.45-.93 1.69-1.07 1.89-.97 1.29-2.49 2.04-4.16 2.04-2.3 0-4.2-1.34-4.84-3.4-.85-2.75-.71-14.95-.42-19.16.31-4.44 2.1-6.58 5.63-6.73l72.43.35c1.44.71 3.03 2.23 3.28 4 .46 3.25.47 18.4-.12 21.19-.46 2.18-2.54 3.75-4.95 3.75-.63 0-1.24-.11-1.81-.33-1.14-.44-3.21-2.64-3.21-3.41v-14.07c0-.55-.45-1-1-1h-23.15c-.55 0-1 .45-1 1v67.68c0 .55.45 1 1 1h7.11c.45.22 1.69.92 1.89 1.07 1.58 1.21 2.27 3.6 1.69 5.8-.23.85-1 2.85-3.26 3.15-1.87.25-7.48.25-12.91.26-5.13 0-9.98 0-11.9.21-.23.02-.45.04-.67.04z"/><path d="m48.42 166.08c-2.89-.04-4.22-2.47-4.25-4.86-.04-2.56 1.43-5.38 4.74-5.52 8.98.03 18.92.05 28.94.05s20.25-.02 29.62-.05c1.41 0 2.34.39 2.78 1.15.71 1.23.29 3.62-1.05 5.94-1.25 2.17-2.77 3.34-3.56 3.34z"/><path d="m115.16 201.34c-1.15-.12-2.22-.69-2.94-1.58-.78-.96-1.1-2.17-.9-3.41l12.95-45.48c15.37-17.14 25.93-28.33 40.52-43.79l3.53-3.74c10.56-11.19 21.47-22.76 32.11-34.27 2.31-2.09 5.63-3.5 8.8-3.7.13 0 .25-.01.37-.02h.41c3.12 0 6.6 1.14 9.1 2.96 3.91 2.87 14.33 12.54 17.08 16.34 3.92 5.43 4.06 12.42.36 17.83l-76.72 82.22c-11.3 4.66-40.17 15.17-44.69 16.63zm16.33-39.73c-.17 0-.34.03-.49.08-.66.19-1.19.72-1.37 1.4l-8.25 24.46c-.2.76 0 1.5.53 2.01.37.36.86.55 1.38.55.23 0 .41-.03.59-.09l24.38-9.33c.61-.19 1.13-.74 1.29-1.43.16-.68-.06-1.41-.57-1.9l-16.04-15.21c-.37-.35-.86-.54-1.37-.54-.01 0-.06 0-.07 0zm58.56-68.64c-.53.02-1.02.24-1.39.63l-53.41 56.89c-.36.38-.56.9-.54 1.43s.25 1.03.64 1.39l21.54 19.85c.37.34.85.53 1.35.53.59-.02 1.09-.24 1.45-.63l53.36-56.91c.36-.39.56-.9.54-1.43s-.25-1.03-.64-1.39l-21.49-19.83c-.37-.34-.85-.53-1.35-.53-.01 0-.05 0-.06 0zm7.74-8.83c-.77.78-1.04 1.62-.83 2.52.09.39.29.74.59 1.02l21.1 19.54c.37.34.85.53 1.35.53h.19c.57-.05 1.08-.35 1.42-.8.76-1.04 1.99-2.19 3.28-3.41.68-.64 1.46-1.29 2.22-1.92 3.5-2.9 7.85-6.5 3.62-11.67-2.3-2.81-13.17-13.1-15.92-14.9-1.33-.87-2.68-1.29-4.14-1.29h-.25c-.43.02-.87.07-1.3.15-1.3.25-2.44.99-3.01 1.41-1.57 1.17-7.16 7.25-8.32 8.82z"/></g></svg>