<svg fill="none" height="24" viewBox="0 0 24 24" width="24" xmlns="http://www.w3.org/2000/svg"><path d="m12 17c-3.58985 0-6.5-2.9101-6.5-6.5v-5.94444c0-.51817 0-.77725.09369-.97818.09936-.21307.27062-.38433.48369-.48369.20093-.09369.46001-.09369.97818-.09369h9.88884c.5182 0 .7773 0 .9782.09369.2131.09936.3843.27062.4837.48369.0937.20093.0937.46001.0937.97818v5.94444c0 3.5899-2.9101 6.5-6.5 6.5zm0 0v4m5 0h-10m15-16v5m-20-5v5" stroke="#fc0" stroke-linecap="round" stroke-linejoin="round" stroke-width="2"/></svg>