<svg height="250" viewBox="0 0 250 250" width="250" xmlns="http://www.w3.org/2000/svg"><g fill="#1fbfe8"><path d="m18.74 13.93c3.02-3.05 7.15-5.02 11.44-5.51h141.25c9.28 1.02 16.38 8.69 17.24 17.91v55.83c-.24 1.41-7.86 9.05-8.7 9.06l-.74-.54-.09-64.63c-.67-4.09-3.84-7.36-7.87-8.28l-139.82-.14c-4.52.64-8.43 4.34-8.72 9.01v196.67c.35 3.86 2.97 7.03 6.59 8.29 47.64.68 95.63.68 143.27 0 3.54-1.24 6.07-4.25 6.58-7.99l.02-61.19c.02-.53.33-.88.61-1.29.43-.63 6.66-7.19 7.11-7.46.31-.18.56-.39.96-.32l.75.55.04 70.34c-.91 8.38-7.02 14.97-15.18 16.8-47.36 1.09-94.92.14-142.36.48-9.47-.7-16.99-8.14-17.89-17.58v-197.94c.32-4.24 2.52-9.06 5.51-12.07z"/><path d="m221.16 112.02c-15.03 14.98-30.01 30.05-45.05 45.04l-35.55 14.8c-5.2.62-7.22-2.8-5.41-7.31 4.2-10.47 10.96-26.91 14.43-35.28l65.58-65.51c3.97-2.92 8.86-3.17 13.06-.5 2.6 1.65 11.91 10.98 13.95 13.6 4.22 5.4 2.91 10.69-1.25 15.52-5.64 6.55-13.5 13.4-19.77 19.65zm-8.69-33.08c-.19.33 0 .81.26 1.08l13.79 13.75c1.37-1.94 8.6-7.64 8.97-9.41.44-2.13-1.48-2.72-2.65-3.88-1.51-1.5-9.03-9.5-10.19-9.76-.39-.09-.78-.13-1.18-.07-2.92 2.23-5.41 5.19-8.09 7.78-.26.25-.88.44-.91.5zm-6.54 6.93-47 47.06 14.11 14.34 46.96-47.04zm-41.01 66.49-10.76-10.76-6.97 17.73z"/><path d="m47.84 48.27c-5.65-1.13-8.28-3.55-8.28-7.6 0-.66-.03-1.31-.07-2-.05-.95-.1-.92-.07-2.16.09-4.53 2.69-6.93 8.67-8.02l105.77.06c2.29 0 4.7 1.09 6.51 2.93 1.47 1.49 2.24 3.22 2.22 5.18-.02 1.2 0 1.39-.02 1.8v.39c.04 2.69-.84 5.03-2.54 6.77-1.73 1.77-4.21 2.76-6.98 2.79l-105.2-.14zm-1.78-9.84c-.02.18.05-.15.05-.15.13 1.35.91 2.27 2.2 2.59.08.02.16.03.25.03l104.5.02c1.28 0 2.48-.99 2.72-2.26 0-.05 0-.05 0-.05.01-.95-.8-2.66-2.42-2.69 0 0-105.07.06-105.07.06-.08 0-.17.01-.25.03-1.28.34-2 1.21-1.98 2.42z"/><path d="m44.81 187.8c4.93-.15 15.42-.09 20.45-.08 3.86 0 6.52 2.32 7.41 6.18.13 7.31.06 15.13 0 22.37-.03 3.13-2.6 5.54-5.59 6.19-7.41-.51-15.67.66-22.97 0-3.48-.31-5.84-3.15-6.18-6.51-.69-6.93.49-14.96.02-22.02.68-3.55 3.3-6.02 6.85-6.13zm19.09 8.67h-17.21v17.52h17.21z"/><path d="m86.48 191.72 62.43-.08c5.68.61 5.57 8.46 0 9.06h-62.22c-5.23-.73-5.61-8.15-.22-8.98z"/><path d="m85.87 210.43 40.68-.05c5.36 1.7 4.43 8.47-1.19 9.04-2.93.29-28.09.2-37.71-.03-5.56-.13-7.1-7-1.78-8.96z"/><path d="m37.96 89.01c.46-7.05-.71-15.08-.02-22.02.33-3.36 2.68-6.49 6.18-6.51 7.18-.03 14.75-.12 22.97 0 3.2.18 5.58 3.05 5.59 6.19.03 5.92-.02 15.84 0 22.37-.89 3.86-3.56 5.85-7.41 6.18-5.03.43-15.52.51-20.45-.08-3.53-.42-6.17-2.59-6.85-6.13zm25.94-20.05h-17.21v17.52h17.21z"/><path d="m86.48 91.23 66.43.08c5.68-.61 5.57-8.46 0-9.06h-66.22c-5.23.73-5.61 8.15-.22 8.98z"/><path d="m85.87 72.51 44.68.05c5.36-1.7 4.43-8.47-1.19-9.04-2.93-.29-32.09-.2-41.71.03-5.56.13-7.1 7-1.78 8.96z"/><path d="m43.29 103.05c6.97-.12 14.81-.04 23.48-.07 2.76.3 5.85 3.13 5.89 5.89.1 7.24.26 16.75 0 23.26-.61 2.97-3.24 5.19-6.2 5.58-7-.08-15.17.08-22.06.01-3.51-.04-6.17-3.04-6.48-6.51-.17-6.01-.14-15.45.03-22.31.07-2.63 2.64-5.8 5.32-5.85zm20.91 8.69h-17.52v17.52h17.52z"/><path d="m86.47 106.37 62.44-.07c5.52.59 5.66 8.46 0 9.06h-61.91c-5.6-.61-5.97-7.87-.53-8.99z"/><path d="m85.87 125.7 40.68-.05c4.82 1.31 4.67 7.76-.28 8.74l-40.15-.03c-4.59-1.22-4.73-7.24-.25-8.67z"/><path d="m43.29 145.31c7.43-.12 16.34-.12 23.48-.07 2.77.02 5.59 3.15 5.89 5.89-.48 7.11.64 15.05.01 22.06-.34 3.82-3.38 6.41-7.11 6.78-4.98.49-15.54.47-20.54.02-3.56-.33-7.02-2.84-7.09-6.5-.11-6.48-.13-15.36.03-22.62.59-2.86 2.5-4.84 5.33-5.54zm20.91 25.9-.45-17.52h-17.06v17.52h17.52z"/><path d="m85.87 148.93 33.73-.05c4.82 1.31 4.67 7.76-.28 8.74l-32.9-.03c-4.85-.88-5.18-7.09-.56-8.66z"/><path d="m85.87 167.96 33.42-.04c4.99 1.04 5.16 7.71.03 8.74l-33.21-.03c-4.58-1.26-4.75-7.13-.25-8.67z"/></g></svg>