<svg height="250" viewBox="0 0 250 250" width="250" xmlns="http://www.w3.org/2000/svg"><g fill="#d040b2"><path d="m238.21 51.15c-1.63-11.34-10.55-19.8-21.76-20.59l-184.52.03c-11.11.98-20.09 9.78-21.35 20.93v.11l.02 110.66c0 .06 0 .12.02.17 2.28 12.83 11.37 20.19 25.01 20.19 11.63-.03 25.78-.04 41.26-.04s32.28.01 49.19.04h.05c2.06 0 3.31-1.23 3.35-3.29.05-3.01-2.58-7.39-5.14-7.48-12.96-.17-32.84-.24-50.37-.3-20.17-.07-37.58-.13-41.55-.32-5.86-.29-10.77-5.35-11.16-11.48v-105.9c.53-7.08 5.23-11.79 12.2-12.28h181.85c7.08.49 11.66 5.09 12.25 12.22v74.15c0 .96.34 2.33 1.08 3.21.99 1.18 2.42 1.82 4.02 1.82 2.62 0 4.95-1.73 5.53-4.12.02-.08.03-.16.03-.24v-77.35s.01-.09 0-.14z"/><path d="m187.89 127.58c.02.27.26.52 0 .9 5.97-1.67 11.99.03 15.78 5 6.68-2.87 12.83-.64 17.36 4.68 8.61-3.32 17.99 2.31 18.95 11.46-1.34 23.78 6.04 50.73-14.67 68.16-10.92 9.2-27.84 9.82-41.4 7.43-25.01-4.4-35.33-37.1-49.82-54.68-5.58-10.57 2.11-22.28 14.18-20.69 5.92.78 8.71 6.7 12.51 10.46v-44.3l.45-3.17c2.76-10.92 16.67-14.25 23.77-5.14.92 1.18 2.9 5.16 2.9 6.5 0 4.26-.33 9.22 0 13.38zm9.88 31.88c-.58-.55-1.12-1.76-1.22-2.58-.6-4.93.74-11.35-.08-16.19-.68-4.05-5.98-5.3-8.02-1.68-1.42 2.51-.21 13.41-.56 17.16-.49 5.2-6.65 6.2-8.78 1.52l-.3-42.37c-1.53-4.87-7.92-4.55-9.03.33l.02 57.88c0 3.54-3.97 5.67-6.87 3.58-5.07-4.85-9.07-11.96-13.93-16.8-4.07-4.05-8.35-.48-7.7 4.45 8.44 12.67 16.11 26.21 25.15 38.49 5.38 7.31 12.1 12.79 21.58 13.49 8.06.59 20.25.83 27.32-3.08 22.06-12.19 14.6-41.22 15.92-61.86-.09-3.27-2.96-6.73-6.43-5.32-5.02 2.05.52 13.32-4.52 15.36-2.61 1.06-5.94-.27-6.39-3.18-.61-3.96.39-9.25 0-13.37-.3-3.09-2.76-4.71-5.74-3.89-5.4 1.48-1.76 12.57-3.15 16.73-.94 2.8-5.22 3.31-7.27 1.34z"/><path d="m130.76 97.85c-6.78-3.76-13.63-7.71-20.24-11.54-10.82-6.26-22-12.73-33.27-18.52-.1-.05-.21-.09-.33-.1-.38-.05-.76-.07-1.14-.07-.51 0-1.04.04-1.57.13-3.33.56-6.13 3.62-6.52 7.12v.11 59.32s0 .09 0 .14c.68 4.96 3.52 7.81 7.78 7.81 1.71 0 3.55-.47 5.47-1.39 8.66-4.17 17.36-9.62 25.77-14.89 7.8-4.89 15.87-9.95 23.93-13.99 2.39-1.43 3.87-3.96 3.94-6.77.08-2.93-1.32-5.65-3.82-7.35zm-10.21 6.8-42.19 24.46v-48.26z"/><path d="m173.7 72.87c3.13-.46 4.91 1.94 5.16 4.8.24 2.75.35 10.74-.18 13.23-.95 4.49-7.16 4.94-8.27.64-.53-2.05-.56-13-.16-15.22.28-1.56 1.9-3.23 3.45-3.45z"/><path d="m148.38 82.65c1.22-.31 2.63-.2 3.69.47.9.57 9.91 9.55 10.51 10.47 2.68 4.12-1.66 8.75-6.12 5.76-1.25-.83-9.11-8.7-9.94-9.94-1.56-2.34-.99-6.02 1.87-6.76z"/><path d="m197.54 82.64c4.03-.93 6.73 2.43 5.12 6.2l-11.03 11.03c-4.21 1.81-7.85-2.24-5.51-6.23.68-1.15 8.77-9.23 10.06-10.19.45-.34.73-.68 1.35-.82z"/></g></svg>