<svg height="250" viewBox="0 0 250 250" width="250" xmlns="http://www.w3.org/2000/svg" xmlns:xlink="http://www.w3.org/1999/xlink"><clipPath id="a" fill="#7f028c"><path d="m91.86 156.73c-1.66-10.27 5.33-19.94 15.6-21.6l64.07-10.01 1.1-30.92-162.38 1.6-.42 84.62 88.06 13.61-6.02-37.3z"/></clipPath><clipPath id="b" fill="#7f028c"><path d="m149.02 244.7 2.27-13.61-25.49-35.79c-4.9-6.87-3.3-16.45 3.57-21.35 3.94-2.81 17.04-3.59 21.65-2.08 3.13 1.02 5.8 2.98 7.71 5.66l14.52 20.42c2.86-1.71-1.79-2.45 1.55-2.07.35.04.71.09 1.06.16.68.12 1.35.29 2 .51.33.11.65.23.97.35.3-.25.61-.49.93-.71 3.94-2.81 9.04-3.59 13.65-2.09.33.11.66.23.98.36.3-.25.61-.49.93-.71 3.73-2.66 8.41-3.51 12.85-2.32.27.07.53.15.8.24 3.13 1.02 5.8 2.98 7.71 5.66l10.87 15.43 20.7-18.65-9.88-80.31-144.78 26.22 17.1 103.23 38.33 1.48z"/></clipPath><clipPath id="c" fill="#7f028c"><path d="m118.8 167.67h117.24v82.42h-117.24z"/></clipPath><g fill="#7f028c"><path d="m134.21 18.94c3.28 0 5.95 2.67 5.95 5.95v51.54c0 3.28-2.67 5.95-5.95 5.95h-108.55c-1.13 0-2.48-.24-3.99-1.97-.09-.12-.19-.23-.28-.34-.76-.87-1.67-2.35-1.67-4.42v-49.97c0-3.71 3.02-6.73 6.73-6.73h107.76m0-9.01h-107.76c-8.69 0-15.73 7.04-15.73 15.73v49.97c0 3.97 1.48 7.58 3.9 10.35l.02.03c2.74 3.29 6.41 5.35 11.02 5.35h108.54c8.25 0 14.95-6.69 14.95-14.95v-51.53c0-8.25-6.69-14.95-14.95-14.95z"/><g clip-path="url(#a)"><path d="m88 181.1h-58.63c-5.38 0-10.12-2.28-13.71-6.58-.03-.04-.07-.08-.1-.12-2.98-3.48-4.62-7.89-4.62-12.46v-46.55c0-10.56 8.59-19.16 19.16-19.16h100.39c10.16 0 18.43 8.27 18.43 18.42v3.46c0 2.49-2.01 4.5-4.5 4.5s-4.5-2.01-4.5-4.5v-3.46c0-5.2-4.23-9.42-9.43-9.42h-100.38c-5.6 0-10.16 4.56-10.16 10.16v46.55c0 2.45.9 4.82 2.52 6.68.07.08.13.16.19.24 1.86 2.18 4.05 3.24 6.71 3.24h58.63c2.49 0 4.5 2.01 4.5 4.5s-2.01 4.5-4.5 4.5z"/><path d="m64.12 160.83c-1.09-1.12-1.64-2.7-1.64-4.75v-.07c0-3.03.42-5.67 1.26-7.93s2.38-4.33 4.64-6.21c2.26-1.89 5.39-3.64 9.39-5.27 2.65-1.12 4.64-2.13 5.97-3.04s2.23-1.87 2.72-2.9c.49-1.02.73-2.3.73-3.84v-.21c0-1.86-.59-3.42-1.78-4.68s-2.83-1.89-4.92-1.89c-1.86 0-3.41.48-4.64 1.43s-2.34 2.29-3.32 4.01c-.65 1.12-1.32 1.94-1.99 2.48-.68.54-1.57.8-2.69.8-1.21 0-2.21-.38-3-1.15s-1.19-1.76-1.19-2.97.44-2.65 1.33-4.19c1.35-2.51 3.36-4.55 6.04-6.11s5.85-2.34 9.53-2.34c3.26 0 6.16.64 8.69 1.92 2.54 1.28 4.49 3.01 5.87 5.2 1.37 2.19 2.06 4.61 2.06 7.26v.35c0 2.33-.37 4.41-1.12 6.25s-2.08 3.6-4.02 5.27c-1.93 1.68-4.64 3.26-8.13 4.75-3.03 1.35-5.3 2.55-6.81 3.6s-2.53 2.12-3.04 3.21-.77 2.48-.77 4.15v.07h20.32c1.35 0 2.4.37 3.14 1.12s1.12 1.77 1.12 3.07-.37 2.34-1.12 3.11-1.79 1.15-3.14 1.15h-24.65c-2.14 0-3.76-.56-4.85-1.68z"/></g><g clip-path="url(#b)"><path d="m125.29 217.45c-4.13 0-8.04-1.51-11.41-4.45-.04-.03-.07-.06-.11-.1-3.4-2.88-5.66-6.88-6.36-11.27l-7.1-44.41c-1.62-10.16 5.32-19.75 15.48-21.37l95.77-15.32c4.73-.76 9.48.37 13.36 3.19 3.88 2.81 6.44 6.97 7.2 11.7l7.33 45.8c.76 4.73-.37 9.48-3.19 13.36-2.81 3.88-6.97 6.44-11.71 7.2l-.7.11c-2.46.39-4.76-1.28-5.15-3.73s1.28-4.76 3.73-5.15l.7-.11c2.36-.38 4.43-1.65 5.84-3.59 1.4-1.94 1.97-4.3 1.59-6.66l-7.33-45.8c-.38-2.36-1.65-4.43-3.59-5.84s-4.3-1.96-6.66-1.59l-95.77 15.32c-5.26.84-8.85 5.81-8.01 11.06l7.1 44.41c.37 2.3 1.57 4.39 3.37 5.89.08.06.15.13.22.2 2.07 1.77 4.28 2.43 6.77 2.03l3.66-.57c2.45-.39 4.76 1.29 5.14 3.75s-1.29 4.76-3.75 5.14l-3.64.57c-.94.15-1.87.22-2.79.22z"/><path d="m164.95 192.62c-3.12-1.1-5.53-2.84-7.23-5.21-.96-1.31-1.54-2.58-1.74-3.82-.21-1.29.03-2.37.72-3.26.68-.89 1.62-1.43 2.82-1.62 1.01-.16 1.88-.02 2.62.43.73.45 1.59 1.25 2.58 2.42 1.28 1.54 2.69 2.6 4.22 3.18s3.38.7 5.54.35c2.48-.4 4.37-1.32 5.67-2.78s1.78-3.24 1.44-5.36l-.12-.76c-.35-2.21-1.33-3.78-2.91-4.73-1.59-.95-3.65-1.22-6.18-.82l-1.59.25c-1.24.2-2.27.06-3.07-.43-.81-.48-1.32-1.37-1.52-2.66-.2-1.24 0-2.23.62-2.96.61-.73 1.54-1.2 2.78-1.4l1.59-.25c2.16-.35 3.79-1.14 4.89-2.37 1.1-1.24 1.49-2.82 1.18-4.75l-.12-.76c-.29-1.84-1.18-3.2-2.67-4.1-1.49-.89-3.29-1.17-5.4-.83-1.93.31-3.49 1.02-4.68 2.13s-2.2 2.6-3.03 4.48c-.57 1.18-1.14 2.08-1.72 2.71-.58.64-1.38 1.03-2.39 1.2-1.2.19-2.22 0-3.07-.61-.85-.59-1.37-1.51-1.57-2.75-.09-.55-.08-1.19.01-1.91.1-.72.32-1.49.66-2.3.98-2.7 2.71-5.03 5.18-6.98s5.57-3.22 9.29-3.82c3.17-.51 6.1-.41 8.78.29s4.91 1.95 6.68 3.74 2.86 3.97 3.27 6.55l.12.76c.38 2.34.03 4.52-1.04 6.53s-2.68 3.64-4.84 4.88c2.83.3 5.28 1.31 7.34 3.03 2.07 1.72 3.33 4.03 3.79 6.92l.12.76c.46 2.85.09 5.48-1.11 7.88-1.2 2.41-3.09 4.43-5.68 6.07s-5.72 2.75-9.4 3.34c-4.09.65-7.7.43-10.82-.67z"/></g><path d="m79.83 72.63c-.93-.91-1.4-2.13-1.4-3.67v-32.05c-1.21 1.02-2.49 1.84-3.84 2.44-.88.42-1.75.63-2.58.63-1.26 0-2.23-.4-2.93-1.19s-1.05-1.79-1.05-3c0-1.02.28-1.9.84-2.62s1.33-1.25 2.3-1.57c1.72-.6 3.29-1.41 4.71-2.41s2.71-2.2 3.88-3.6c.65-.7 1.31-1.23 1.99-1.61.67-.37 1.48-.56 2.41-.56 1.54 0 2.68.45 3.42 1.36s1.12 2.08 1.12 3.53v40.64c0 1.54-.45 2.76-1.36 3.67s-2.18 1.36-3.81 1.36c-1.54 0-2.77-.45-3.7-1.36z"/></g><g clip-path="url(#c)"><path d="m171.44 265.32c-.42 0-.83-.06-1.23-.17-9.78-2.79-17.04-17.07-15.53-26.09l1.8-10.78-20.7-28.92c-4.19-5.88-2.82-14.06 3.05-18.24 5.87-4.19 14.05-2.82 18.24 3.05l11.61 16.19c2.33-1.26 5-1.78 7.65-1.48 1.06.12 2.1.36 3.1.73.16-.13.32-.25.49-.37 3.59-2.56 8.16-3.08 12.13-1.62.16-.13.33-.25.49-.37 5.87-4.19 14.05-2.82 18.24 3.05l6.64 9.31c6.05 8.49 10.36 17.87 12.81 27.88l7.14 20.24c.05.15.1.31.14.47.31 1.33 0 2.76-.85 3.84-1.69 2.15-1.87 2.37-34.63 2.92-15.16.25-30.4.37-30.55.37h-.03zm-25.02-77.64c-.82 0-1.64.25-2.36.76-1.83 1.3-2.25 3.85-.95 5.68l21.78 30.43c.7.97.98 2.18.78 3.36l-2.11 12.63c-.85 5.05 4.1 13.95 8.6 15.78 17.54-.14 43.77-.5 54.82-1l-5.31-15.06c-.05-.14-.09-.29-.13-.44-2.17-8.98-6.02-17.39-11.45-25l-6.64-9.31c-.63-.88-1.57-1.47-2.65-1.65s-2.16.07-3.04.7c-.32.23-.6.5-.84.8-.08.1-.15.2-.21.3-.69 1.08-1.81 1.81-3.08 2.01s-2.56-.15-3.55-.96c-1.42-1.16-3.45-1.23-4.94-.16-.42.3-.78.67-1.05 1.1-.69 1.08-1.81 1.81-3.08 2.01s-2.56-.15-3.55-.96c-.6-.49-1.34-.8-2.12-.89-1-.11-2.01.15-2.82.73-.38.27-.7.6-.96.97-.84 1.2-2.2 1.92-3.66 1.93-1.46.04-2.84-.69-3.69-1.88l-14.46-20.17c-.8-1.12-2.06-1.71-3.33-1.71z" fill="#7f028c"/></g></svg>