<svg height="250" viewBox="0 0 250 250" width="250" xmlns="http://www.w3.org/2000/svg"><g fill="#1fbfe8"><path d="m187.52 182.57c-3.32 0-6.62-.93-9.09-2.86-4.08-3.2-5.78-8.63-4.42-14.17 1.34-5.46 5.23-9.43 10.17-10.35 5.73-1.07 13.89 1.97 16.42 8.04 1.66 3.98 1.66 10.57-1.25 14.27-2.6 3.31-7.24 5.08-11.83 5.08zm-2.25-21.48c-3.09.57-4.83 3.41-5.43 5.88-.62 2.53-.34 5.96 2.29 8.02 3.28 2.57 10.06 1.92 12.5-1.19 1.25-1.6 1.47-5.76.43-8.25-1.31-3.13-6.47-5.06-9.79-4.45z"/><path d="m187.25 220.63c-3.94 0-7.86-1.31-10.24-3.87-2.18-2.35-3.69-7.18-3.68-10.05.03-5.56 3.38-10.3 8.76-12.37 5.71-2.2 11.93-.84 15.86 3.46 2.58 2.82 3.87 6.43 3.62 10.17-.25 3.73-1.99 7.13-4.91 9.58-2.46 2.07-5.95 3.08-9.41 3.08zm.37-21.31c-1.23 0-2.4.25-3.37.62-3.07 1.18-4.91 3.72-4.92 6.8 0 1.69 1.12 4.9 2.07 5.93 2.35 2.53 8.54 2.68 11.4.28 1.65-1.39 2.64-3.3 2.78-5.38.14-2.09-.59-4.12-2.06-5.72-1.7-1.86-3.88-2.53-5.9-2.53z"/><path d="m215.24 75.33-55.03-.15c-2.68 0-4.86-2.19-4.87-4.87l-.05-16c0-1.31.5-2.54 1.43-3.47.92-.93 2.15-1.44 3.46-1.44h56.31c1.73 0 3.93 2.21 3.93 3.93 0 .6.03 1.93.07 3.6.32 14.44.12 14.75-.55 15.77-.58.9-3.49 2.61-4.7 2.61zm-53.9-6.15 53.2.14s.05-.03.07-.04c.09-2.7-.05-9.18-.12-12.21-.01-.6-.03-1.17-.04-1.67h-53.16l.04 13.78z"/><path d="m75.83 217.86c-2.39 0-4.78-.91-6.6-2.73l-7.66-7.66-7.66 7.66c-3.64 3.64-9.56 3.64-13.19 0l-5.87-5.87c-3.64-3.64-3.64-9.56 0-13.19l7.66-7.66-7.66-7.66c-3.64-3.64-3.64-9.56 0-13.19l5.87-5.87c1.76-1.76 4.1-2.73 6.6-2.73s4.83.97 6.6 2.73l7.66 7.66 7.66-7.66c1.76-1.76 4.1-2.73 6.6-2.73s4.83.97 6.6 2.73l5.87 5.87c1.76 1.76 2.73 4.1 2.73 6.6s-.97 4.83-2.73 6.6l-7.66 7.66 7.66 7.66c1.76 1.76 2.73 4.1 2.73 6.6s-.97 4.83-2.73 6.6l-5.87 5.87c-1.82 1.82-4.21 2.73-6.6 2.73zm-14.26-18.88 11.91 11.91c1.26 1.26 3.45 1.26 4.71 0l5.87-5.87c.63-.63.98-1.46.98-2.35s-.35-1.73-.98-2.35l-11.91-11.91 11.91-11.91c.63-.63.98-1.47.98-2.35s-.35-1.73-.98-2.35l-5.87-5.87c-1.26-1.26-3.45-1.26-4.71 0l-11.91 11.91-11.91-11.91c-1.26-1.26-3.45-1.26-4.71 0l-5.87 5.87c-.63.63-.97 1.46-.97 2.35s.35 1.73.97 2.35l11.91 11.91-11.91 11.91c-.63.63-.97 1.46-.97 2.35s.35 1.73.97 2.35l5.87 5.87c1.26 1.26 3.45 1.26 4.71 0z"/><path d="m65.83 95.73h-8.31c-5.14 0-9.33-4.19-9.33-9.33v-10.84h-10.84c-5.14 0-9.33-4.19-9.33-9.33v-8.31c0-2.49.97-4.83 2.73-6.6 1.76-1.76 4.11-2.73 6.6-2.73h10.84v-10.84c0-5.14 4.18-9.33 9.33-9.33h8.31c5.14 0 9.33 4.19 9.33 9.33v10.84h10.84c5.14 0 9.33 4.19 9.33 9.33v8.31c0 5.14-4.18 9.33-9.33 9.33h-10.84v10.84c0 5.14-4.18 9.33-9.33 9.33zm-28.48-41.13c-.89 0-1.73.35-2.35.98-.63.63-.97 1.46-.97 2.35v8.31c0 1.84 1.49 3.33 3.33 3.33h16.84v16.84c0 1.84 1.49 3.33 3.33 3.33h8.31c1.84 0 3.33-1.49 3.33-3.33v-16.84h16.84c1.84 0 3.33-1.49 3.33-3.33v-8.31c0-1.84-1.49-3.33-3.33-3.33h-16.84v-16.84c0-1.84-1.49-3.33-3.33-3.33h-8.31c-1.84 0-3.33 1.49-3.33 3.33v16.84h-16.84z"/><path d="m88.87 19.04c8.75 0 15.87 7.12 15.87 15.87v54.33c0 8.75-7.12 15.87-15.87 15.87h-54.33c-8.75 0-15.87-7.12-15.87-15.87v-54.33c0-8.75 7.12-15.87 15.87-15.87zm0-10h-54.33c-14.29 0-25.87 11.58-25.87 25.87v54.33c0 14.29 11.58 25.87 25.87 25.87h54.33c14.29 0 25.87-11.58 25.87-25.87v-54.33c0-14.29-11.58-25.87-25.87-25.87z"/><path d="m215 19.04c8.75 0 15.87 7.12 15.87 15.87v54.33c0 8.75-7.12 15.87-15.87 15.87h-54.33c-8.75 0-15.87-7.12-15.87-15.87v-54.33c0-8.75 7.12-15.87 15.87-15.87zm0-10h-54.33c-14.29 0-25.87 11.58-25.87 25.87v54.33c0 14.29 11.58 25.87 25.87 25.87h54.33c14.29 0 25.87-11.58 25.87-25.87v-54.33c0-14.29-11.58-25.87-25.87-25.87z"/><path d="m88.87 145.58c8.75 0 15.87 7.12 15.87 15.87v54.33c0 8.75-7.12 15.87-15.87 15.87h-54.33c-8.75 0-15.87-7.12-15.87-15.87v-54.33c0-8.75 7.12-15.87 15.87-15.87zm0-10h-54.33c-14.29 0-25.87 11.58-25.87 25.87v54.33c0 14.29 11.58 25.87 25.87 25.87h54.33c14.29 0 25.87-11.58 25.87-25.87v-54.33c0-14.29-11.58-25.87-25.87-25.87z"/><path d="m215 145.58c8.75 0 15.87 7.12 15.87 15.87v54.33c0 8.75-7.12 15.87-15.87 15.87h-54.33c-8.75 0-15.87-7.12-15.87-15.87v-54.33c0-8.75 7.12-15.87 15.87-15.87zm0-10h-54.33c-14.29 0-25.87 11.58-25.87 25.87v54.33c0 14.29 11.58 25.87 25.87 25.87h54.33c14.29 0 25.87-11.58 25.87-25.87v-54.33c0-14.29-11.58-25.87-25.87-25.87z"/></g></svg>