<svg height="250" viewBox="0 0 250 250" width="250" xmlns="http://www.w3.org/2000/svg"><g fill="#7f028c"><path d="m123.74 21.92c3.52 16.07 18.48 117.09 24.36 164.92-.53.23-1.3.47-2.2.6-22.02 3.04-48.35 6.99-67.58 9.88-13.41 2.01-24 3.6-26.9 3.95-.76.09-1.45.19-2.1.28-4.33-18.29-24.51-144.66-27.09-164.45 12.5-2.91 59.96-9.44 85.69-12.98 6.49-.89 11.9-1.64 15.81-2.19m3.03-10.46c-.52 0-1.09.05-1.71.16-17.7 2.57-90.73 12.15-105.92 15.92-4.32 1.07-7.59 3.16-7.09 8.47.96 10.2 23.92 154.93 27.96 169.41 1.47 5.28 3.09 6.56 5.94 6.56 1.71 0 3.85-.46 6.66-.79 7.33-.87 57.09-8.67 94.66-13.85 4.74-.65 11.64-3.48 10.9-10.55-5.84-47.78-22.42-160.61-25.31-169.56-1.13-3.51-2.67-5.76-6.1-5.76z"/><path d="m157.13 50.43 69.6 11.79c-.06 1.66-.5 4.2-.8 5.88-.19 1.09-.39 2.23-.56 3.35-5.97 40.97-22.31 132.63-27.47 155.04-9.89-1.65-35.89-6.27-58.37-10.34l16.11-2.58c.06-.01.13-.02.19-.03 1.34-.24 8.29-1.68 14.29-6.26 5.86-4.17 8.66-11.02 7.68-18.81 0-.08-.02-.16-.03-.23l-20.64-137.8m-11.93-12.17 22.68 151.44c.85 6.79-3.18 9.11-3.74 9.55-4.4 3.41-10.09 4.44-10.09 4.44l-60.04 9.64c-.66 3.95 2.45 4.58 5.6 5.54 2.34.71 94.47 17.42 101.04 18.17.15.02.31.03.48.03 1.31 0 3.24-.52 4.7-2.06 2.48-2.61 22.94-117.53 29.45-162.11 1.13-7.76 4.61-18.48-6.07-20.4l-84-14.23z"/><path d="m164.13 199.26 22.22 3.99c3.69.8 5.38-9.02 1.56-9.78-3.55-.7-20.04-3.76-20.04-3.76l-.04-.3c.52 6.32-2.3 8.77-3.7 9.84z"/><path d="m175.51 96.02c2.59 6.2 5.64 13.53 8.31 19.96l-17.14-2.65-.95-6.23c3.36-3.84 6.76-7.69 9.77-11.08m3.2-18.19c-2.57 2.13-23.55 26.19-23.55 26.19l2.74 18.08 41.93 6.49c-.42-1.21-21.01-50.75-21.13-50.75z"/><path d="m168.53 124.14-.01-.03"/><path d="m192.71 165.8c-3.13-.6-29.17-5.29-29.18-5.32l1.52 10.32 26.06 4.46c2.98.56 4.4-8.87 1.6-9.47z"/><path d="m78.83 60.3 20.26 13.52-14.3 21.28-20.7-14.1 14.74-20.69m-2.52-13.71-26.29 36.91 37.46 25.52 25.51-37.96-36.67-24.47z"/><path d="m124.6 139.73c4.66-.94 2.07-10.33-1.6-9.8l-61.76 10.11c-4.97 1.09-2.91 11.09 1.81 10.18z"/><path d="m128.93 169.07c4.66-.94 2.07-10.33-1.6-9.8l-61.76 10.11c-4.97 1.09-2.91 11.09 1.81 10.18z"/></g></svg>