<svg height="250" viewBox="0 0 250 250" width="250" xmlns="http://www.w3.org/2000/svg"><g fill="#fc3b53"><path d="m84.41 46.96-.04 7.28-.3 57.08-30.11-17.12c-7.52-4.27-14.41-8.19-19.16-10.89v-10.8s49.61-25.54 49.61-25.54m5-13.2c-.77 0-1.55.18-2.31.57l-59.57 30.66c-1.68.87-2.74 2.6-2.74 4.49l.02 16.71c0 1.81.97 3.48 2.55 4.38 4.62 2.63 12.7 7.22 21.67 12.32 13.31 7.57 28.59 16.26 37.47 21.31.8.46 1.66.67 2.48.67 2.63 0 5.03-2.1 5.05-5.03l.34-65.54.08-15.44c.02-2.94-2.39-5.08-5.05-5.08z"/><path d="m128.61 18.8 45.88 31.77-6.03 3.18-50.91 26.81.88-32.65c.25-9.41.49-18.13.65-24.01zm.33-10.84c-.82 0-1.63.2-2.38.6l-14.73 7.88c-1.6.86-2.62 2.5-2.66 4.31-.15 5.65-.43 15.8-.73 26.89-.4 14.82-.85 31.33-1.11 41.11-.08 2.99 2.36 5.19 5.05 5.19.78 0 1.58-.18 2.35-.59l58.4-30.75 13.26-6.98c3.35-1.77 3.64-6.46.52-8.61l-55.08-38.14c-.86-.6-1.86-.9-2.87-.9z"/><path d="m132.46 170.95-.19 29.86c-.07 10.46-.13 20.35-.17 26.82l-9.42 5.29-46.53-30.82 11.33-6.27 44.98-24.89m5-13.48c-.81 0-1.65.2-2.44.64l-52.39 28.98-18.47 10.22c-3.32 1.83-3.5 6.53-.34 8.62l55.86 37c.84.56 1.81.84 2.79.84.85 0 1.7-.21 2.47-.65l14.57-8.18c1.58-.89 2.56-2.55 2.57-4.36.04-6.13.11-17.53.19-29.7.09-14.07.19-29.16.25-38.33.02-2.95-2.4-5.08-5.05-5.08z"/><path d="m167.6 141.53 27.72 15.67c8.46 4.78 16.35 9.24 21.63 12.22l.04 10.8-49.55 25.67.03-11.53.14-52.82m-4.93-13.54c-2.63 0-5.04 2.11-5.05 5.04l-.16 61.29-.05 19.7c0 2.94 2.4 5.07 5.05 5.07.77 0 1.56-.18 2.32-.57l59.49-30.82c1.68-.87 2.73-2.61 2.73-4.5l-.07-16.71c0-1.81-.98-3.48-2.56-4.37-5.05-2.85-14.2-8.02-24.13-13.64-12.72-7.19-26.73-15.11-35.09-19.83-.8-.45-1.65-.66-2.47-.66z"/><path d="m209.39 68.19 9.36 5.39-2.71 55.74-8.43-4.93-47.13-27.55 28.38-16.62c8.04-4.71 15.49-9.08 20.53-12.03m-.02-10.78c-.88 0-1.76.23-2.55.69-4.85 2.84-13.51 7.92-23.01 13.48-12.84 7.52-27.2 15.93-35.68 20.9-3.33 1.95-3.33 6.76 0 8.71l54.44 31.82 15.48 9.05c.82.48 1.69.7 2.54.7 2.55 0 4.91-1.97 5.05-4.81l3.25-66.92c.09-1.89-.88-3.67-2.52-4.62l-14.48-8.34c-.78-.45-1.65-.67-2.52-.67z"/><path d="m35.66 121.78 9.22 5.74 45.41 28.27-26.58 14.59c-9.02 4.95-17.52 9.62-23.1 12.69l-9.21-5.65zm-4.3-13.58c-2.5 0-4.83 1.89-5.04 4.67l-5.11 66.8c-.14 1.89.78 3.7 2.39 4.69l14.24 8.74c.81.5 1.72.75 2.64.75.83 0 1.67-.21 2.42-.62 5.3-2.91 15.11-8.3 25.63-14.08 12.44-6.83 25.88-14.21 34-18.67 3.38-1.86 3.51-6.66.23-8.7l-52.59-32.75-16.16-10.06c-.85-.53-1.76-.77-2.66-.77z"/></g></svg>