<svg height="250" viewBox="0 0 250 250" width="250" xmlns="http://www.w3.org/2000/svg"><g fill="#fc5b3b"><path d="m146.62 223.04c-2.76 0-4.99-2.23-5-4.99 0-2.76 2.23-5 4.99-5.01l76.36-.17c7.16-1.58 10.48-5.35 11.04-12.52v-140.76c0-.74 0-1.53-.01-2.32-.03-9.43-.4-15.39-5.32-18.67-2.92-1.95-7.26-1.97-12.76-1.99h-1.04c-.49 0-52.46.03-68.73-.03-2.76 0-4.99-2.25-4.98-5.02 0-2.76 2.25-4.98 5-4.98h.02c16.26.05 68.2.02 68.73.02h1.05c6.61.03 12.86.06 18.28 3.68 9.7 6.48 9.73 17.83 9.76 26.95 0 .77 0 1.54.01 2.3v140.99c0 .12 0 .24-.01.36-.85 11.9-7.6 19.47-19.51 21.88-.32.07-.65.1-.98.1l-76.88.18h-.01z"/><path d="m102.42 223.03h-.01c-3.49 0-7.99-.01-13-.02-2.76 0-5-2.24-5-5s2.24-5 5-5c5.02 0 9.52 0 13.01.02 2.76 0 5 2.25 4.99 5.01 0 2.76-2.24 4.99-5 4.99zm-66.29-.01h-1.05c-2.87-.02-5.59-.03-8.23-.32-2.75-.3-4.72-2.77-4.42-5.52s2.78-4.72 5.52-4.42c2.12.23 4.58.24 7.18.25h1.04s4.23 0 4.23 0c2.76 0 5 2.24 5 5s-2.24 5-5 5h-4.26zm22.27-.01c-2.76 0-5-2.24-5-5s2.24-5 5-5h13.01c2.76 0 5 2.24 5 5s-2.24 5-5 5h-13zm-44.66-10.35c-2.04 0-3.95-1.25-4.69-3.27-1.76-4.77-1.96-9.99-2-14.5-.03-2.76 2.19-5.02 4.95-5.05 2.81-.04 5.02 2.19 5.05 4.95.05 4.56.3 8.2 1.39 11.15.95 2.59-.37 5.47-2.97 6.42-.57.21-1.15.31-1.73.31zm-1.72-30.83c-2.76 0-5-2.24-5-5v-13c0-2.76 2.24-5 5-5s5 2.24 5 5v13c0 2.76-2.24 5-5 5zm0-31c-2.76 0-5-2.24-5-5v-13c0-2.76 2.24-5 5-5s5 2.24 5 5v13c0 2.76-2.24 5-5 5zm0-31c-2.76 0-5-2.24-5-5v-13c0-2.76 2.24-5 5-5s5 2.24 5 5v13c0 2.76-2.24 5-5 5zm0-31c-2.76 0-5-2.24-5-5v-13c0-2.76 2.24-5 5-5s5 2.24 5 5v13c0 2.76-2.24 5-5 5zm0-31c-2.76 0-5-2.24-5-5v-3.74c0-.12 0-.24.01-.36.3-4.19 1.33-7.88 3.05-10.95 1.35-2.41 4.4-3.27 6.81-1.92s3.27 4.4 1.92 6.81c-.98 1.74-1.58 3.96-1.78 6.6v3.55c0 2.76-2.24 5-5 5zm17.39-21.07c-2.76 0-4.99-2.23-5-4.99 0-2.76 2.23-5 4.99-5.01l13-.03h.01c2.76 0 4.99 2.23 5 4.99 0 2.76-2.23 5-4.99 5.01l-13 .03zm31-.07c-2.76 0-4.99-2.23-5-4.99 0-2.76 2.23-5 4.99-5.01l13-.03h.01c2.76 0 4.99 2.23 5 4.99 0 2.76-2.23 5-4.99 5.01l-13 .03zm31-.08c-2.76 0-4.99-2.23-5-4.99 0-2.76 2.23-5 4.99-5.01l13-.03h.01c2.76 0 4.99 2.23 5 4.99 0 2.76-2.23 5-4.99 5.01l-13 .03z"/><path d="m131.69 25.53c-.27 26.49-.5 51.13-.16 77.87-4.43-1.54-9.26-1.51-13.68.08.63-6.7-.51-56.83.37-76.25.16-3.63-1.01-8.91 1.53-11.66 2.14-2.31 5.29-2.65 8.03-1.18 4.37 2.36 3.95 7 3.91 11.15z"/><path d="m132.06 145.97-.45 70.9c0 2.22.11 4.81 0 7.17-.08 1.61-.3 4.02-.47 5.78-.74 7.51-9.81 7.78-12.84 1.77 0-22.06-.48-78.39-.58-85.55 4.63 1.7 9.72 1.68 14.33-.07z"/><circle cx="124.8" cy="124.78" r="17.51"/><path d="m95.54 141.9c2.58 3.39.3 9.54-4.04 10.33-4.96.9-8.37-3.43-11.53-6.53-2.89-2.84-16.39-16.03-17.46-18.39s-.64-3.32.46-5.45c1.61-3.13 17.46-18.83 20.89-21.8.71-.61 2.98-2.47 3.68-2.66 7.44-1.92 11.53 6.57 6.11 11.54l-10.15 9.62c4.88-.26 14.14-.57 19.67-.36-1.52 4.35-1.27 8.9.23 13.27-4.85-.08-18.99-.58-18.98-.17 0 1.6 9.57 8.58 11.11 10.61z"/><path d="m146.04 117.8 19.34.77c.22-.89-.33-.89-.78-1.3-2.93-2.67-10.91-8.79-11.62-12.46-1.05-5.4 4.36-9.47 9.47-7.14 3.11 1.42 17.87 16.71 20.99 20.2 3 3.36 5.89 6.67 2.53 10.88-3.86 4.83-11.47 11.94-16.13 16.49-3.84 3.75-9.88 10.95-15.4 5.09-4.76-5.05 1.05-11.11 4.92-14.42l5.09-4.15-18.21-.16c1.44-4.55 1.59-9.37-.2-13.8z"/></g></svg>