<svg height="250" viewBox="0 0 250 250" width="250" xmlns="http://www.w3.org/2000/svg" xmlns:xlink="http://www.w3.org/1999/xlink"><clipPath id="a" fill="#028c8c"><path d="m162.91 141.92 78.38 7.14c.05-.18-62.76 85.57-62.46 83.83.15-.85-122.23-.91-122.05-1.96.21-1.25-61.01-107.75-60.78-109.13.2-1.2 58.95-98.31 59.15-99.48.7-4.24 180.52-2.97 180.52-3.37l5.25 129.17c0-.43-83.21-7.14-83.21-7.56 0-.83.03-36.4.05-37.23.18-6.02.52-17.23-11.09-22.38-1.17-.52-2.44-.79-3.72-.79-.01 0-41.88.2-41.88.2-1.28 0-2.55.28-3.72.81-11.04 4.97-10.61 15.77-10.4 20.96.05 1.21.09 2.35.05 3.28-.03.57 0 1.13.08 1.68-.05.41-.09.82-.09 1.24v41.18c0 7.69 9.14 13.75 14.11 14.48 2.15.32 4.52.47 7.26.47 2.66 0 5.35-.14 7.95-.28 2.49-.13 4.84-.26 7.06-.26h.46l4.22 6.17c1.71 2.5 4.55 4 7.58 4h19.52c3.36 0 6.45-1.84 8.06-4.79s1.49-24.57-.33-27.4z"/></clipPath><g fill="#028c8c"><path d="m101.19 157.39c8.68 1.28 19.81-.98 28.78.15l7.35 10.73h21.24l-8.68-13.54c-1.08-1.52 1.45-3.51 1.45-4.09v-43.84h-18.08v32.54h-20.79v-31.19l-1.36-1.36h-16.72v44.75c0 1.88 4.63 5.52 6.81 5.84z"/><path d="m151.33 104.08c0-6.97 1.51-14.54-6.06-17.9l-45.52.21c-7.47 3.36-5.06 10.97-5.37 17.68h56.95z"/><path d="m224.36 129.69c-1.73 0-3.41-.9-4.33-2.5l-48.35-83.74h-69.23c-2.76 0-5-2.24-5-5s2.24-5 5-5h72.12c1.79 0 3.44.95 4.33 2.5l49.79 86.24c1.38 2.39.56 5.45-1.83 6.83-.79.46-1.65.67-2.5.67z"/><path d="m174.56 215.93h-99.59c-2.76 0-5-2.24-5-5s2.24-5 5-5h96.68l33.84-59.33c1.37-2.4 4.42-3.23 6.82-1.87 2.4 1.37 3.23 4.42 1.87 6.82l-35.28 61.86c-.89 1.56-2.55 2.52-4.34 2.52z"/><path d="m60.58 192.42c-1.75 0-3.44-.92-4.36-2.54l-35.4-62.73c-.87-1.54-.86-3.43.02-4.96l49.79-86.24c1.38-2.39 4.44-3.21 6.83-1.83s3.21 4.44 1.83 6.83l-48.35 83.77 33.99 60.25c1.36 2.41.51 5.46-1.9 6.81-.78.44-1.62.65-2.45.65z"/><g clip-path="url(#a)"><path d="m172.67 216.17c-1.75 0-3.44-.92-4.36-2.54l-97.05-172.12c-1.36-2.41-.51-5.45 1.9-6.81 2.4-1.36 5.45-.51 6.81 1.9l97.05 172.12c1.36 2.41.51 5.46-1.9 6.81-.78.44-1.62.65-2.45.65z"/><path d="m62.51 46.44c-4.08-7.23-1.52-16.41 5.71-20.49s16.41-1.52 20.49 5.71 1.52 16.41-5.71 20.49-16.41 1.52-20.49-5.71z"/><path d="m159.57 218.56c4.08 7.23 13.25 9.79 20.49 5.71 7.23-4.08 9.79-13.25 5.71-20.49-4.08-7.23-13.25-9.79-20.49-5.71-7.23 4.08-9.79 13.25-5.71 20.49z"/><path d="m222.83 131.06h-.05l-197.38-1.89c-2.76-.03-4.98-2.29-4.95-5.05s2.26-4.96 5.05-4.95l197.38 1.89c2.76.03 4.98 2.29 4.95 5.05-.03 2.75-2.26 4.95-5 4.95z"/><path d="m25.3 139.2c-8.3-.08-14.97-6.88-14.89-15.18s6.88-14.97 15.18-14.89 14.97 6.88 14.89 15.18-6.88 14.97-15.18 14.89z"/><path d="m222.69 141.1c8.3.08 15.1-6.59 15.18-14.89s-6.59-15.1-14.89-15.18-15.1 6.59-15.18 14.89 6.59 15.1 14.89 15.18z"/><path d="m73.97 215.23c-.86 0-1.74-.22-2.53-.69-2.38-1.4-3.17-4.47-1.77-6.85l100.33-170.23c1.4-2.38 4.47-3.17 6.85-1.77s3.17 4.47 1.77 6.85l-100.33 170.23c-.93 1.58-2.6 2.46-4.31 2.46z"/><path d="m86.93 217.86c-4.22 7.15-13.44 9.54-20.59 5.32s-9.54-13.44-5.32-20.59 13.44-9.54 20.59-5.32 9.54 13.44 5.32 20.59z"/><path d="m187.26 47.63c4.22-7.15 1.83-16.38-5.32-20.59-7.15-4.22-16.38-1.83-20.59 5.32-4.22 7.15-1.83 16.38 5.32 20.59s16.38 1.83 20.59-5.32z"/></g></g></svg>