<svg height="250" width="250" xmlns="http://www.w3.org/2000/svg"><path d="m187.88 109.65c-32.96 1.17-44.45 45.96-15.96 62.87 18.85 11.2 43.71 1.84 49.67-19.33 6.32-22.44-10.32-44.37-33.71-43.54zm17.36 52.94c-16.74 14.1-42.37.69-40.67-21.01.87-11.02 10.12-21.53 21.27-22.79 25.1-2.83 38.54 27.68 19.4 43.8z" fill="#0b439e"/><path d="m238.85 220.57-15.37-27.88-4.39-7.95 3.32-2.63s3.69-3.33 6.6-6.64c10.8-12.99 13.9-30.53 9.42-46.76v-86.1c.23-1.81-2.94-5.93-4.56-5.93h-12.03v-13.39c0-2.24-4.07-4.9-6.27-4.91-.57 0-1.13.33-1.7.34-11.19.21-23.39 1.09-34.56 2.04-15.96 1.35-32.39 3.76-45.69 13.28-2.86 2.04-5.18 4.49-7.81 6.69-14.06-15.01-35.37-18.19-54.95-19.97-10.97-1-22.54-1.69-33.55-2.04-1.78-.06-2.21-.59-4.31.1-1.46.47-3.99 2.56-3.99 4.14v13.39h-10.68c-2.66 0-6.29 3.75-5.94 6.6v138.98c.22 3.42 2.88 6.05 6.27 6.27h85.76c1.27.15.71 1.68 1 2.72 3.17 11.5 16.9 14.46 27.23 11.95 6.52-1.59 12.86-7.67 12.95-14.68l19.13.02c9.55 4.8 20.32 6.64 30.84 5.49l-.1.1 22.55 39.85c9.11 10.49 26.02 2.01 21.53-11.84l-.68-1.23zm-17.01-175.08h7.29l.17 65.41-7.81-7.64c-.03-.49.36-57.77.36-57.77zm-91.33 3.75c10.09-12.89 26.8-16.94 42.36-18.67 8.58-.95 17.79-1.47 26.44-2.03 4.56-.3 9.16-.5 13.72-.68-.31 19.25-.26 66.94-.34 70.16-17.28-8.63-38.73-7.26-54.04 4.76-18.15 14.25-25.21 39.15-16.11 60.65-4.57 1.19-8.4 4.14-12.2 6.78v-119.81c0-.07-.22-.26-.18-.53zm-92.7-21.37c12.23.82 24.56 1.17 36.77 2.37 17.05 1.68 36.38 4.91 46.94 19.83v120.49l-7.57-4.8c-8.71-4.84-18.11-6.89-27.91-8.36-15.94-2.38-32.18-2.92-48.24-4.12v-125.41zm-16.61 151.49v-133.87h7.8c-.09 5.91.09 11.88.01 17.81-.28 23.56-.29 47.36 0 70.81.09 6.98-.83 16.48-.02 23.07.41 3.32 3.29 4.87 6.32 5.2 21.18 2.34 64.65.5 80.28 15.64.33.32.64.44.51 1.01l-94.9.34zm101.49 15.27c-3.82-.28-8-2.22-8.29-6.45h22.03c-1.44 6.61-8.12 6.86-13.74 6.45zm12.05-15.61c.69-1.74 3.19-3.25 4.77-4.21 1.01-.61 6.12-3.25 6.93-3.24.37 0 .63.22.86.48l5.74 6.97zm15.01-22.29c-8.42-25.61 9.61-52.78 36.44-54.87 40.04-3.13 61.24 47.08 30.39 73.43-22.31 19.06-57.7 9.19-66.83-18.56zm75.24 71.33-20.32-36.13.2-.08 6.05-2.53c.4 0 .66.19.85.53l4.67 8.43 14.61 26.37c1.33 3.85-3.31 6.54-6.06 3.41z" fill="#0b439e"/><path d="m213.25 174.32c10.67-9.12 15.01-21.14 14.43-32.76h-59.35v38.17c14.05 6.83 31.79 5.8 44.91-5.41z" fill="none"/></svg>