<svg height="250" viewBox="0 0 250 250" width="250" xmlns="http://www.w3.org/2000/svg"><g fill="#3ba546"><path d="m213.64 68.84-190.08.68v148.05c0 4.04 7.34 9.11 11.3 8.62h156.35c5.63-.08 10.61-3.62 11.63-9.3l.03-84.04c-.09-1.36 8.75-8.94 10.77-10.33v96.74c0 7.61-11.71 17.84-19.42 17.72l-161.39.02c-10.87-1.21-19.71-9.68-20.43-20.76v-183.37c.95-9.1 7.36-16.9 16.21-19.24 56.16-.82 112.68-.82 168.84 0 6.59.96 16.19 10.2 16.19 16.89zm-10.8-10.47v-25.83c0-3.77-5.8-8.58-9.61-8.29h-160.4c-3.42-.28-9.27 4.66-9.27 7.95v26.17z"/><path d="m59.16 160.99c-6.34 6.57-14.26 12.38-15.05 22.26-1.54 19.24 20.01 30 34.77 18.23l19.59-19.59c.95-.44 5.37.75 6.9.86 2.24.15 5.12.12 7.27-.35l-.5 1.02c-13 10.83-25.31 31.78-43.56 33.42-27.59 2.47-44.85-27.1-29.55-50.14 10.75-10.85 21.33-23.66 32.75-33.76 12.31-10.88 27.67-12.1 40.68-1.51 6.32 5.14 11.53 15.44 7.56 23.42-2.02 4.06-7.23 5.1-9.48.78-1.18-2.26-.17-2.85.03-4.83 1.06-10.51-11.8-17.73-21.23-15.49-9.47 2.25-23.16 18.4-30.19 25.69z"/><path d="m83.61 121.62 29.21-29.7c30.86-26.14 71.96 15.06 45.57 45.24-10.53 12.04-23.97 22.84-34.79 34.76-10.72 8.35-24.22 8.68-35.05.29-5.1-3.96-9.33-11.78-8.66-18.34.63-6.21 9.12-9.02 10.64-3.22.63 2.41-.02 4.84 1.01 7.77 4.28 12.1 18.11 11.41 26.67 4.07 11-9.43 20.77-22.65 31.91-32.24 17.62-20.73-8.56-47.07-29.88-30.89l-21.87 21.68c-4.88.36-9.88-.67-14.77.59z"/><path d="m227.54 96.63-41.88 38.58c-1.04.79-3.97 2.8-5.14 2.88-3.67.26-7.16-4.42-4.91-7.62l44.24-41.85c-.4-.34-18.38.97-26.24.84-2.17-.04-4.16-.14-5.66-1.96-3.23-3.94-.07-8.38 4.57-8.87 4.23-.45 33.19-2.01 42.33-1.9 3.35.04 4.8.62 5.97 3.93-1.98 15.18-5.08 30.3-7.77 45.41-2.48 5.57-9.69 4.62-10.33-1.44l4.84-28z"/><path d="m43.06 35.84c7.62-.3 8.59 11.42.92 12.07-8.33.71-8.91-11.76-.92-12.07z"/><path d="m64.32 36.17c8.64-1.81 10.25 10.11 3.15 11.59-8.35 1.74-9.95-10.17-3.15-11.59z"/><path d="m87.28 36.17c9.43-1.73 10.02 12.99.29 11.71-6.26-.82-6.42-10.58-.29-11.71z"/></g></svg>