<svg fill="none" height="25" viewBox="0 0 24 25" width="24" xmlns="http://www.w3.org/2000/svg" xmlns:xlink="http://www.w3.org/1999/xlink"><clipPath id="a"><path d="m0 .299622h24v24h-24z"/></clipPath><g clip-path="url(#a)"><path d="m13.0703 6.95629-8.24858 8.24861m0 0-2.17236 2.1724c-.09335.0933-.1673.2042-.21757.3263l-1.02802 2.4967c-.50767 1.2329.72523 2.4658 1.95814 1.9581l2.49663-1.028c.12208-.0503.233-.1242.32636-.2176l5.7079-5.7079m-7.07108 0h7.07108m4.7131-4.7131-4.7131 4.7131m4.7978-12.77436c.2965-.29651.6485-.53171 1.036-.69218.3874-.16047.8026-.24306 1.2219-.24306s.8345.08259 1.222.24306c.3874.16047.7394.39567 1.0359.69218s.5317.64851.6922 1.03592c.1604.3874.243.80262.243 1.22195 0 .41932-.0826.83454-.243 1.22195-.1605.3874-.3957.73941-.6922 1.03591l-1.9051 1.90508.6591.65907c.3905.39052.3905 1.02368 0 1.41418l-.6085.6086c-.3906.3905-1.0237.3905-1.4143 0l-5.7702-5.7703c-.3905-.39053-.3905-1.02369 0-1.41422l.6085-.60853c.3905-.39053 1.0237-.39052 1.4142.00002l.5955.59545z" stroke="#0ba1a1" stroke-linecap="round" stroke-linejoin="round" stroke-width="1.7"/></g></svg>