<svg fill="none" height="24" viewBox="0 0 25 24" width="25" xmlns="http://www.w3.org/2000/svg" xmlns:xlink="http://www.w3.org/1999/xlink"><clipPath id="a"><path d="m.25 0h24v24h-24z"/></clipPath><g clip-path="url(#a)"><path d="m23.0529 6.74963h-4.0146l.9782-3.8005c.162-.62418-.2311-1.25712-.8731-1.41462-.6421-.15459-1.2932.22459-1.4552.84877l-1.1222 4.36635h-5.9257l.9781-3.8005c.162-.62418-.231-1.25712-.8731-1.41462-.6391-.15459-1.29315.22459-1.45517.84877l-1.12214 4.36635h-4.31454c-.66308 0-1.20015.5221-1.20015 1.1667 0 .64459.53707 1.16669 1.20015 1.16669h3.71446l-1.50018 5.83348h-4.61758c-.663083 0-1.20015.5221-1.20015 1.1667s.537067 1.1667 1.20015 1.1667h4.0145l-.97812 3.8005c-.16202.6242.23103 1.2571.87311 1.4146.09901.0233.19502.035.29104.035.53706 0 1.02612-.3529 1.16414-.8838l1.12214-4.3663h5.92574l-.9781 3.8005c-.162.6242.231 1.2571.8731 1.4146.099.0233.195.035.291.035.5371 0 1.0262-.3529 1.1642-.8838l1.1221-4.3663h4.3145c.6631 0 1.2002-.5221 1.2002-1.1667s-.5371-1.1667-1.2002-1.1667h-3.7144l1.5002-5.83348h4.6145c.6631 0 1.2002-.5221 1.2002-1.16669 0-.6446-.5371-1.1667-1.2002-1.1667zm-8.5871 8.16687h-5.92576l1.50016-5.83348h5.9258z" fill="#282573"/></g></svg>