<svg height="250" viewBox="0 0 250 250" width="250" xmlns="http://www.w3.org/2000/svg" xmlns:xlink="http://www.w3.org/1999/xlink"><clipPath id="a" fill="#028c8c"><path d="m234.04 148.8c-1.71 0-3.4-.43-4.88-1.24-.63-.34-1.22-.76-1.76-1.23-1.94-1.7-3.99-4.67-9.36-12.71-.1-.16-.21-.32-.32-.48-.65 1.06-1.33 2.12-2.05 3.16l-.04.06c-3 4.86-7.29 5.59-9.59 5.59-1.66 0-3.3-.34-5.17-1.08-3.15-1.23-5.43-4.01-6.03-7.34l-11.14-61.61c-.59-3.28-21.08 14.67-18.62 12.41 1.82-1.68-1.9 75.61.52 75.61.84 0 9.56 3.68 10.39 3.9l69.63 1.56c.97.26 0-22.52-.15-22.4-6.33 5.8-9.91 5.8-11.44 5.8z"/></clipPath><clipPath id="b" fill="#028c8c"><path d="m175.6 98.42h56.38v56.38h-56.38z"/></clipPath><clipPath id="c" fill="#028c8c"><path d="m186.92 87.02-1.5-8.32c-.59-3.28.53-6.64 2.99-8.9 1.82-1.68 4.18-2.57 6.6-2.57.84 0 1.69.11 2.52.33l1.47.39c.97.26 1.89.67 2.73 1.21 6.38 4.08 13.38 7.94 20.14 11.68 6.89 3.8 14.01 7.73 20.76 12.03l.12.07-1.34-82.81-79.68-3.46 1.39 76.22 23.82 4.14z"/></clipPath><clipPath id="d" fill="#028c8c"><path d="m20.48 19.95h56.38v56.38h-56.38z"/></clipPath><clipPath id="e" fill="#028c8c"><path d="m98.3 19.95h56.38v56.38h-56.38z"/></clipPath><clipPath id="f" fill="#028c8c"><path d="m20.48 98.42h56.38v56.38h-56.38z"/></clipPath><clipPath id="g" fill="#028c8c"><path d="m98.3 98.42h56.38v56.38h-56.38z"/></clipPath><clipPath id="h" fill="#028c8c"><path d="m20.48 176.89h56.38v56.38h-56.38z"/></clipPath><clipPath id="i" fill="#028c8c"><path d="m98.3 176.89h56.38v56.38h-56.38z"/></clipPath><clipPath id="j" fill="#028c8c"><path d="m175.6 176.89h56.38v56.38h-56.38z"/></clipPath><g fill="#028c8c"><path d="m228.16 178.69v50.48h-50.48v-50.48zm4.21-10h-58.89c-3.2 0-5.79 2.59-5.79 5.79v58.89c0 3.2 2.59 5.79 5.79 5.79h58.89c3.2 0 5.79-2.59 5.79-5.79v-58.89c0-3.2-2.59-5.79-5.79-5.79z"/><path d="m72.4 20.73v50.48h-50.48v-50.48zm4.2-10h-58.89c-3.2 0-5.79 2.59-5.79 5.79v58.89c0 3.2 2.59 5.79 5.79 5.79h58.89c3.2 0 5.79-2.59 5.79-5.79v-58.89c0-3.2-2.59-5.79-5.79-5.79z"/><path d="m72.4 99.71v50.48h-50.48v-50.48zm4.2-10h-58.89c-3.2 0-5.79 2.59-5.79 5.79v58.89c0 3.2 2.59 5.79 5.79 5.79h58.89c3.2 0 5.79-2.59 5.79-5.79v-58.89c0-3.2-2.59-5.79-5.79-5.79z"/><path d="m72.4 178.69v50.48h-50.48v-50.48zm4.2-10h-58.89c-3.2 0-5.79 2.59-5.79 5.79v58.89c0 3.2 2.59 5.79 5.79 5.79h58.89c3.2 0 5.79-2.59 5.79-5.79v-58.89c0-3.2-2.59-5.79-5.79-5.79z"/><path d="m150.28 20.73v50.48h-50.48v-50.48zm4.2-10h-58.89c-3.2 0-5.79 2.59-5.79 5.79v58.89c0 3.2 2.59 5.79 5.79 5.79h58.89c3.2 0 5.79-2.59 5.79-5.79v-58.89c0-3.2-2.59-5.79-5.79-5.79z"/><path d="m150.28 99.71v50.48h-50.48v-50.48zm4.2-10h-58.89c-3.2 0-5.79 2.59-5.79 5.79v58.89c0 3.2 2.59 5.79 5.79 5.79h58.89c3.2 0 5.79-2.59 5.79-5.79v-58.89c0-3.2-2.59-5.79-5.79-5.79z"/><path d="m150.28 178.69v50.48h-50.48v-50.48zm4.2-10h-58.89c-3.2 0-5.79 2.59-5.79 5.79v58.89c0 3.2 2.59 5.79 5.79 5.79h58.89c3.2 0 5.79-2.59 5.79-5.79v-58.89c0-3.2-2.59-5.79-5.79-5.79z"/><g clip-path="url(#a)"><path d="m228.16 99.73v50.48h-50.48v-50.48zm4.21-10h-58.89c-3.2 0-5.79 2.59-5.79 5.79v58.89c0 3.2 2.59 5.79 5.79 5.79h58.89c3.2 0 5.79-2.59 5.79-5.79v-58.89c0-3.2-2.59-5.79-5.79-5.79z"/><g clip-path="url(#b)"><path d="m165.48 123.5c-.5 0-1-.19-1.38-.57-.76-.76-.76-1.99 0-2.76l68.74-68.74c.76-.76 2-.76 2.76 0s.76 1.99 0 2.76l-68.74 68.74c-.38.38-.88.57-1.38.57z"/><path d="m165.48 136.84c-.5 0-1-.19-1.38-.57-.76-.76-.76-1.99 0-2.76l68.74-68.74c.76-.76 2-.76 2.76 0s.76 1.99 0 2.76l-68.74 68.74c-.38.38-.88.57-1.38.57z"/><path d="m165.48 150.17c-.5 0-1-.19-1.38-.57-.76-.76-.76-1.99 0-2.76l68.74-68.74c.76-.76 2-.76 2.76 0s.76 1.99 0 2.76l-68.74 68.74c-.38.38-.88.57-1.38.57z"/><path d="m165.48 163.5c-.5 0-1-.19-1.38-.57-.76-.76-.76-1.99 0-2.76l68.74-68.74c.76-.76 2-.76 2.76 0s.76 1.99 0 2.76l-68.74 68.74c-.38.38-.88.57-1.38.57z"/><path d="m165.48 176.84c-.5 0-1-.19-1.38-.57-.76-.76-.76-1.99 0-2.76l68.74-68.74c.76-.76 2-.76 2.76 0s.76 1.99 0 2.76l-68.74 68.74c-.38.38-.88.57-1.38.57z"/><path d="m165.48 190.17c-.5 0-1-.19-1.38-.57-.76-.76-.76-1.99 0-2.76l68.74-68.74c.76-.76 2-.76 2.76 0s.76 1.99 0 2.76l-68.74 68.74c-.38.38-.88.57-1.38.57z"/><path d="m165.48 203.51c-.5 0-1-.19-1.38-.57-.76-.76-.76-1.99 0-2.76l68.74-68.74c.76-.76 2-.76 2.76 0s.76 1.99 0 2.76l-68.74 68.74c-.38.38-.88.57-1.38.57z"/></g></g><g clip-path="url(#c)"><path d="m232.24 15.73c.44 0 .79.36.79.79v58.89c0 .44-.36.79-.79.79h-58.89c-.44 0-.79-.36-.79-.79v-58.89c0-.44.36-.79.79-.79zm0-5h-58.89c-3.2 0-5.79 2.59-5.79 5.79v58.89c0 3.2 2.59 5.79 5.79 5.79h58.89c3.2 0 5.79-2.59 5.79-5.79v-58.89c0-3.2-2.59-5.79-5.79-5.79z"/><path d="m189.87 67.16c-.83 0-1.65-.25-2.35-.76-1.4-1.02-1.99-2.82-1.45-4.47l3.76-11.58-9.85-7.16c-1.4-1.02-1.99-2.82-1.45-4.47s2.07-2.76 3.8-2.76h12.18l3.76-11.58c.54-1.65 2.07-2.76 3.8-2.76s3.27 1.12 3.8 2.76l3.76 11.58h12.18c1.73 0 3.27 1.12 3.8 2.76.54 1.65-.05 3.45-1.45 4.47l-9.85 7.16 3.76 11.58c.54 1.65-.05 3.45-1.45 4.47s-3.3 1.02-4.7 0l-9.85-7.16-9.85 7.16c-.7.51-1.53.76-2.35.76zm4.77-23.21 2.25 1.63c1.4 1.02 1.99 2.82 1.45 4.47l-.86 2.64 2.25-1.63c1.4-1.02 3.3-1.02 4.7 0l2.24 1.63-.86-2.64c-.54-1.65.05-3.45 1.45-4.47l2.25-1.63h-2.77c-1.73 0-3.27-1.12-3.8-2.76l-.86-2.64-.86 2.64c-.54 1.65-2.07 2.76-3.8 2.76z"/></g><path d="m230.54 138.52c-1.67 0-3.33-.76-4.4-2.18-1.38-1.85-3.35-4.79-5.42-7.9-1.54-2.3-3.62-5.42-5.04-7.39-.79 1.21-1.59 2.59-2.42 4.02-1.1 1.9-2.25 3.87-3.48 5.64-.06.08-.11.17-.16.25-1.39 2.26-3.34 2.79-6.15 1.7-.97-.38-1.67-1.24-1.86-2.26l-9.57-52.89c-.18-1.01.16-2.04.92-2.74s1.82-.96 2.81-.69l1.47.39c.3.08.58.21.84.37 6.57 4.2 13.66 8.12 20.52 11.9 6.79 3.75 13.82 7.63 20.4 11.82l.25.15c.93.56 2.65 1.6 3.12 3.54.26 1.07.06 2.2-.54 3.18-.84 1.35-2.16 1.86-9.21 4.08-1.85.58-4.14 1.31-4.71 1.58-.05.03-.11.05-.15.07l11.35 15.83c.13.18.23.37.32.57 1.6 3.73-1.46 6.4-2.77 7.53-.17.15-.33.29-.49.43-.4.36-1.42 1.25-2.49 2.01-.95.68-2.05 1-3.15 1zm-14.83-24.7c.17 0 .35 0 .53.03 1.93.19 2.64 1.03 9.46 11.27 1.79 2.68 3.64 5.45 4.92 7.21.65-.49 1.26-1.02 1.49-1.23.19-.17.39-.35.6-.53.27-.24.68-.59.94-.87l-11.2-15.61c-.07-.1-.14-.21-.2-.32-.33-.62-1.35-2.49-.68-4.55.68-2.08 2.6-3 3.75-3.54.89-.43 2.67-.99 5.48-1.88.99-.31 2.29-.72 3.48-1.12-5.99-3.74-12.39-7.26-18.58-10.69-5.52-3.04-11.18-6.17-16.65-9.49l7.59 41.98c.48-.8.96-1.62 1.42-2.42 1.17-2.02 2.39-4.12 3.67-5.86l.1-.14c.49-.69 1.6-2.23 3.87-2.23z"/><g clip-path="url(#d)"><path d="m10.36 45.03c-.5 0-1-.19-1.38-.57-.76-.76-.76-1.99 0-2.76l68.75-68.73c.76-.76 2-.76 2.76 0s.76 1.99 0 2.76l-68.75 68.73c-.38.38-.88.57-1.38.57z"/><path d="m10.36 58.37c-.5 0-1-.19-1.38-.57-.76-.76-.76-1.99 0-2.76l68.75-68.74c.76-.76 2-.76 2.76 0s.76 1.99 0 2.76l-68.75 68.74c-.38.38-.88.57-1.38.57z"/><path d="m10.36 71.7c-.5 0-1-.19-1.38-.57-.76-.76-.76-1.99 0-2.76l68.75-68.74c.76-.76 2-.76 2.76 0s.76 1.99 0 2.76l-68.75 68.74c-.38.38-.88.57-1.38.57z"/><path d="m10.36 85.04c-.5 0-1-.19-1.38-.57-.76-.76-.76-1.99 0-2.76l68.75-68.74c.76-.76 2-.76 2.76 0s.76 1.99 0 2.76l-68.75 68.73c-.38.38-.88.57-1.38.57z"/><path d="m10.36 98.37c-.5 0-1-.19-1.38-.57-.76-.76-.76-1.99 0-2.76l68.75-68.74c.76-.76 2-.76 2.76 0s.76 1.99 0 2.76l-68.75 68.74c-.38.38-.88.57-1.38.57z"/><path d="m10.36 111.7c-.5 0-1-.19-1.38-.57-.76-.76-.76-1.99 0-2.76l68.75-68.74c.76-.76 2-.76 2.76 0s.76 1.99 0 2.76l-68.75 68.74c-.38.38-.88.57-1.38.57z"/><path d="m10.36 125.04c-.5 0-1-.19-1.38-.57-.76-.76-.76-1.99 0-2.76l68.75-68.74c.76-.76 2-.76 2.76 0s.76 1.99 0 2.76l-68.75 68.74c-.38.38-.88.57-1.38.57z"/></g><g clip-path="url(#e)"><path d="m88.18 45.03c-.5 0-1-.19-1.38-.57-.76-.76-.76-1.99 0-2.76l68.75-68.73c.76-.76 2-.76 2.76 0s.76 1.99 0 2.76l-68.75 68.73c-.38.38-.88.57-1.38.57z"/><path d="m88.18 58.37c-.5 0-1-.19-1.38-.57-.76-.76-.76-1.99 0-2.76l68.75-68.74c.76-.76 2-.76 2.76 0s.76 1.99 0 2.76l-68.75 68.74c-.38.38-.88.57-1.38.57z"/><path d="m88.18 71.7c-.5 0-1-.19-1.38-.57-.76-.76-.76-1.99 0-2.76l68.75-68.74c.76-.76 2-.76 2.76 0s.76 1.99 0 2.76l-68.74 68.74c-.38.38-.88.57-1.38.57z"/><path d="m88.18 85.04c-.5 0-1-.19-1.38-.57-.76-.76-.76-1.99 0-2.76l68.75-68.74c.76-.76 2-.76 2.76 0s.76 1.99 0 2.76l-68.74 68.74c-.38.38-.88.57-1.38.57z"/><path d="m88.18 98.37c-.5 0-1-.19-1.38-.57-.76-.76-.76-1.99 0-2.76l68.75-68.74c.76-.76 2-.76 2.76 0s.76 1.99 0 2.76l-68.74 68.74c-.38.38-.88.57-1.38.57z"/><path d="m88.18 111.7c-.5 0-1-.19-1.38-.57-.76-.76-.76-1.99 0-2.76l68.74-68.74c.76-.76 2-.76 2.76 0s.76 1.99 0 2.76l-68.74 68.74c-.38.38-.88.57-1.38.57z"/><path d="m88.18 125.04c-.5 0-1-.19-1.38-.57-.76-.76-.76-1.99 0-2.76l68.74-68.74c.76-.76 2-.76 2.76 0s.76 1.99 0 2.76l-68.74 68.74c-.38.38-.88.57-1.38.57z"/></g><g clip-path="url(#f)"><path d="m10.36 123.5c-.5 0-1-.19-1.38-.57-.76-.76-.76-1.99 0-2.76l68.75-68.74c.76-.76 2-.76 2.76 0s.76 1.99 0 2.76l-68.75 68.74c-.38.38-.88.57-1.38.57z"/><path d="m10.36 136.84c-.5 0-1-.19-1.38-.57-.76-.76-.76-1.99 0-2.76l68.74-68.74c.76-.76 2-.76 2.76 0s.76 1.99 0 2.76l-68.74 68.74c-.38.38-.88.57-1.38.57z"/><path d="m10.36 150.17c-.5 0-1-.19-1.38-.57-.76-.76-.76-1.99 0-2.76l68.74-68.74c.76-.76 2-.76 2.76 0s.76 1.99 0 2.76l-68.74 68.74c-.38.38-.88.57-1.38.57z"/><path d="m10.36 163.5c-.5 0-1-.19-1.38-.57-.76-.76-.76-1.99 0-2.76l68.74-68.74c.76-.76 2-.76 2.76 0s.76 1.99 0 2.76l-68.74 68.74c-.38.38-.88.57-1.38.57z"/><path d="m10.36 176.84c-.5 0-1-.19-1.38-.57-.76-.76-.76-1.99 0-2.76l68.74-68.74c.76-.76 2-.76 2.76 0s.76 1.99 0 2.76l-68.74 68.74c-.38.38-.88.57-1.38.57z"/><path d="m10.36 190.17c-.5 0-1-.19-1.38-.57-.76-.76-.76-1.99 0-2.76l68.74-68.74c.76-.76 2-.76 2.76 0s.76 1.99 0 2.76l-68.74 68.74c-.38.38-.88.57-1.38.57z"/><path d="m10.36 203.51c-.5 0-1-.19-1.38-.57-.76-.76-.76-1.99 0-2.76l68.74-68.74c.76-.76 2-.76 2.76 0s.76 1.99 0 2.76l-68.74 68.73c-.38.38-.88.57-1.38.57z"/></g><g clip-path="url(#g)"><path d="m88.18 123.5c-.5 0-1-.19-1.38-.57-.76-.76-.76-1.99 0-2.76l68.74-68.74c.76-.76 2-.76 2.76 0s.76 1.99 0 2.76l-68.74 68.74c-.38.38-.88.57-1.38.57z"/><path d="m88.18 136.84c-.5 0-1-.19-1.38-.57-.76-.76-.76-1.99 0-2.76l68.74-68.74c.76-.76 2-.76 2.76 0s.76 1.99 0 2.76l-68.74 68.74c-.38.38-.88.57-1.38.57z"/><path d="m88.18 150.17c-.5 0-1-.19-1.38-.57-.76-.76-.76-1.99 0-2.76l68.74-68.74c.76-.76 2-.76 2.76 0s.76 1.99 0 2.76l-68.74 68.74c-.38.38-.88.57-1.38.57z"/><path d="m88.18 163.5c-.5 0-1-.19-1.38-.57-.76-.76-.76-1.99 0-2.76l68.74-68.74c.76-.76 2-.76 2.76 0s.76 1.99 0 2.76l-68.74 68.74c-.38.38-.88.57-1.38.57z"/><path d="m88.18 176.84c-.5 0-1-.19-1.38-.57-.76-.76-.76-1.99 0-2.76l68.74-68.74c.76-.76 2-.76 2.76 0s.76 1.99 0 2.76l-68.74 68.74c-.38.38-.88.57-1.38.57z"/><path d="m88.18 190.17c-.5 0-1-.19-1.38-.57-.76-.76-.76-1.99 0-2.76l68.74-68.74c.76-.76 2-.76 2.76 0s.76 1.99 0 2.76l-68.74 68.74c-.38.38-.88.57-1.38.57z"/><path d="m88.18 203.51c-.5 0-1-.19-1.38-.57-.76-.76-.76-1.99 0-2.76l68.74-68.74c.76-.76 2-.76 2.76 0s.76 1.99 0 2.76l-68.74 68.74c-.38.38-.88.57-1.38.57z"/></g><g clip-path="url(#h)"><path d="m10.36 201.97c-.5 0-1-.19-1.38-.57-.76-.76-.76-1.99 0-2.76l68.74-68.74c.76-.76 2-.76 2.76 0s.76 1.99 0 2.76l-68.74 68.74c-.38.38-.88.57-1.38.57z"/><path d="m10.36 215.31c-.5 0-1-.19-1.38-.57-.76-.76-.76-1.99 0-2.76l68.74-68.74c.76-.76 2-.76 2.76 0s.76 1.99 0 2.76l-68.74 68.73c-.38.38-.88.57-1.38.57z"/><path d="m10.36 228.64c-.5 0-1-.19-1.38-.57-.76-.76-.76-1.99 0-2.76l68.74-68.74c.76-.76 2-.76 2.76 0s.76 1.99 0 2.76l-68.74 68.74c-.38.38-.88.57-1.38.57z"/><path d="m10.36 241.97c-.5 0-1-.19-1.38-.57-.76-.76-.76-1.99 0-2.76l68.74-68.74c.76-.76 2-.76 2.76 0s.76 1.99 0 2.76l-68.74 68.74c-.38.38-.88.57-1.38.57z"/><path d="m10.36 255.31c-.5 0-1-.19-1.38-.57-.76-.76-.76-1.99 0-2.76l68.74-68.74c.76-.76 2-.76 2.76 0s.76 1.99 0 2.76l-68.74 68.74c-.38.38-.88.57-1.38.57z"/><path d="m10.36 268.64c-.5 0-1-.19-1.38-.57-.76-.76-.76-1.99 0-2.76l68.74-68.74c.76-.76 2-.76 2.76 0s.76 1.99 0 2.76l-68.74 68.74c-.38.38-.88.57-1.38.57z"/><path d="m10.36 281.97c-.5 0-1-.19-1.38-.57-.76-.76-.76-1.99 0-2.76l68.74-68.74c.76-.76 2-.76 2.76 0s.76 1.99 0 2.76l-68.74 68.74c-.38.38-.88.57-1.38.57z"/></g><g clip-path="url(#i)"><path d="m88.18 201.97c-.5 0-1-.19-1.38-.57-.76-.76-.76-1.99 0-2.76l68.74-68.74c.76-.76 2-.76 2.76 0s.76 1.99 0 2.76l-68.74 68.74c-.38.38-.88.57-1.38.57z"/><path d="m88.18 215.31c-.5 0-1-.19-1.38-.57-.76-.76-.76-1.99 0-2.76l68.74-68.74c.76-.76 2-.76 2.76 0s.76 1.99 0 2.76l-68.74 68.74c-.38.38-.88.57-1.38.57z"/><path d="m88.18 228.64c-.5 0-1-.19-1.38-.57-.76-.76-.76-1.99 0-2.76l68.74-68.74c.76-.76 2-.76 2.76 0s.76 1.99 0 2.76l-68.74 68.74c-.38.38-.88.57-1.38.57z"/><path d="m88.18 241.97c-.5 0-1-.19-1.38-.57-.76-.76-.76-1.99 0-2.76l68.74-68.74c.76-.76 2-.76 2.76 0s.76 1.99 0 2.76l-68.74 68.74c-.38.38-.88.57-1.38.57z"/><path d="m88.18 255.31c-.5 0-1-.19-1.38-.57-.76-.76-.76-1.99 0-2.76l68.74-68.74c.76-.76 2-.76 2.76 0s.76 1.99 0 2.76l-68.74 68.74c-.38.38-.88.57-1.38.57z"/><path d="m88.18 268.64c-.5 0-1-.19-1.38-.57-.76-.76-.76-1.99 0-2.76l68.74-68.74c.76-.76 2-.76 2.76 0s.76 1.99 0 2.76l-68.74 68.74c-.38.38-.88.57-1.38.57z"/><path d="m88.18 281.97c-.5 0-1-.19-1.38-.57-.76-.76-.76-1.99 0-2.76l68.74-68.74c.76-.76 2-.76 2.76 0s.76 1.99 0 2.76l-68.74 68.74c-.38.38-.88.57-1.38.57z"/></g><g clip-path="url(#j)"><path d="m165.48 201.97c-.5 0-1-.19-1.38-.57-.76-.76-.76-1.99 0-2.76l68.74-68.74c.76-.76 2-.76 2.76 0s.76 1.99 0 2.76l-68.74 68.74c-.38.38-.88.57-1.38.57z"/><path d="m165.48 215.31c-.5 0-1-.19-1.38-.57-.76-.76-.76-1.99 0-2.76l68.74-68.74c.76-.76 2-.76 2.76 0s.76 1.99 0 2.76l-68.74 68.74c-.38.38-.88.57-1.38.57z"/><path d="m165.48 228.64c-.5 0-1-.19-1.38-.57-.76-.76-.76-1.99 0-2.76l68.74-68.74c.76-.76 2-.76 2.76 0s.76 1.99 0 2.76l-68.74 68.74c-.38.38-.88.57-1.38.57z"/><path d="m165.48 241.97c-.5 0-1-.19-1.38-.57-.76-.76-.76-1.99 0-2.76l68.74-68.74c.76-.76 2-.76 2.76 0s.76 1.99 0 2.76l-68.74 68.74c-.38.38-.88.57-1.38.57z"/><path d="m165.48 255.31c-.5 0-1-.19-1.38-.57-.76-.76-.76-1.99 0-2.76l68.74-68.74c.76-.76 2-.76 2.76 0s.76 1.99 0 2.76l-68.74 68.74c-.38.38-.88.57-1.38.57z"/><path d="m165.48 268.64c-.5 0-1-.19-1.38-.57-.76-.76-.76-1.99 0-2.76l68.74-68.74c.76-.76 2-.76 2.76 0s.76 1.99 0 2.76l-68.74 68.74c-.38.38-.88.57-1.38.57z"/><path d="m165.48 281.97c-.5 0-1-.19-1.38-.57-.76-.76-.76-1.99 0-2.76l68.74-68.74c.76-.76 2-.76 2.76 0s.76 1.99 0 2.76l-68.74 68.74c-.38.38-.88.57-1.38.57z"/></g></g></svg>