<svg height="250" viewBox="0 0 250 250" width="250" xmlns="http://www.w3.org/2000/svg"><g fill="#fc5b3b"><path d="m194.05 60.23c9.05 8.48 7.81 23.68-2.1 30.93-15.54 11.37-36.46-3.49-31.05-22 4.25-14.56 22.02-19.36 33.16-8.93zm-15.9 3.7c-6.35.88-10.04 7.7-8.52 13.68 2.53 9.92 16.26 11.02 20.31 1.55 3.43-8.01-3.23-16.41-11.79-15.22z"/><path d="m213.99 33.56c-3.62-.43-8 .32-11.71 0v-7.96c0-7.35-8.42-15.39-15.76-15.47h-146.89c-8.22 1.01-14.63 7.15-15.47 15.46v110.9c1 9.16 9.28 15.83 18.44 15.13-.24 5.25.66 10.1 4.06 14.21 3.16 3.82 7.36 5.78 12.32 6.11l56.88.09c2.62 0 4.75-2.12 4.75-4.74 0-2.62-2.12-4.74-4.74-4.74h-58.13c-2.9-.5-5.32-4.01-5.7-6.79-.76-5.46.42-7.11-.09-12.7l.17-.77 59.41-60.64c1.89-1.23 3.83 1.22 5.02 2.51 9.28 9.95 17.49 21.06 26.84 30.93 1.79 1.89 3.38 3.22 6.18 2.73 4.24-.74 5.65-8.07 10.83-5.07l29.05 32.78-2.97 2.02c-1.84-2.01-3.94-3.64-6.64-4.28-3.59-.86-7.03-.05-10.05 1.97-.64.43-1.1 1.32-2.01 1.35-4.71-5.17-11.99-5.38-17.36-1.03-.34.28-.49 1.02-1.26 1.07l-8.06-19.89c-8.18-16.92-31.95-7.51-26.22 10.29 2.43 7.57 6.56 15.52 9.45 23.03.31.8 4.55 12 4.55 12l7.79 18.91c-8.18-4.84-14.73-13-24.88-6.93-8.32 4.98-8.41 17.39-.88 23.17 13.5 9.77 26.22 23.27 40.75 31.4 16.59 9.28 26.8 3.97 42.88-2.42 7.5-2.98 18.6-6.3 22.77-13.46 4.59-7.86 3.2-20.29 2.11-29.08-.93-7.47-2.69-14.89-4.97-22.04 7.11-1.25 13.13-7.93 13.75-15.14v-107.46c-.32-7.29-6.97-14.59-14.21-15.44zm-166.25 4.67c-2.12 2.11-5.14 7.49-5.14 10.48v93.54c-4.43.28-8.37-1.73-9.06-6.4l.08-110.49c.88-3.28 3.54-5.59 6.94-5.86h145.33c2.53.33 4.83 1.66 6.03 3.97.17.32.99 2.31.99 2.45v7.65h-135.78c-2.37 0-7.66 2.95-9.38 4.67zm163.6 174.76c-.61 7.13-6.19 8.84-11.87 11.24-6.34 2.67-13.45 5.6-19.9 7.89-12.48 4.43-19.34 1.84-29.72-5.42-11.29-7.89-21.56-17.85-32.66-26.05-2.95-2.2-3.88-6.99-.27-9.02 2.43-1.36 4.28-.19 6.34 1.08 6.03 3.69 11.83 8.4 17.84 12.14 1 .62 2.07 1.31 3.25 1.43 3.78.39 6.29-1.92 5.76-5.76l-26.7-67.62c-1.12-5.49 5.3-8.25 8.56-3.87 2.21 4.71 4.29 9.49 6.35 14.26 4.13 9.54 7.84 20.27 12.37 29.47.3.61.58 1.29.99 1.82 3.1 3.99 9.46.47 7.65-4.84-1.33-3.89-3.47-7.64-4.68-11.56-.16-.51-.41-1.25-.46-1.74-.42-4.41 5.65-7.03 8.02-2.39 2.21 4.33 3.54 11.1 5.95 14.97 1.3 2.08 2.76 2.63 5.2 2.27 1.46-.22 3.21-2.47 3.28-3.91.03-.61-.41-1.84-.61-2.49-.76-2.46-2.18-4.95-2.98-7.33-1.05-3.14.78-5.5 4.07-5.33 1.85.1 2.64.94 3.43 2.51 1.48 2.99 2.36 7.75 3.94 10.42.47.79 2.02 2.23 2.94 2.37 3.4.51 6.32-1.85 5.7-5.38-.39-2.19-3.33-5.69-1.4-7.63 2.54-2.54 5.77-.41 7.15 2.19 3.98 7.46 8.05 20.84 9.84 29.2 1.69 7.87 3.28 19.14 2.59 27.09zm-.6-50.48c-1.77-5.25-3.42-10.41-6.9-14.8-5.66-7.13-12.63-14.1-18.73-20.93-4.56-5.1-8.97-10.39-13.58-15.47-4.74-5.21-7.44-8.91-15.32-8.12-1.32.13-4.03 1.29-5.13 2.05-.66.46-1.62 2-2.51 1.56-3.99-4.56-7.87-9.21-11.87-13.76-4.54-5.16-9.22-10.82-13.89-15.78-5.34-5.67-11.01-7.56-17.66-2.34l-53.17 53.92v-79.51c.06-.45.73-2.34.98-2.77.99-1.66 3.8-3.45 5.73-3.64h153.14c4.08.29 6.98 3.27 7.34 7.33v104.96c-.13 4.52-3.88 7.88-8.41 7.29z"/></g></svg>