<svg height="250" viewBox="0 0 250 250" width="250" xmlns="http://www.w3.org/2000/svg"><g fill="#0b439e"><path d="m179.82 111.79v19.74c0 .35-.8 2.2-1.09 2.59-1.45 1.97-5.24 2.43-7.29 1.2l-27.28-23.52h-89.84c-10.8-1.28-18.95-9.39-19.74-20.34v-58.46c1.03-10.7 9.31-19.07 20.04-20.04h143.6c10.08 1.24 18.4 8.35 20 18.55.78 19.72.11 39.57.34 59.34-.66 9.02-6.06 16.97-14.76 19.82-.87.29-3.96 1.14-4.68 1.14h-19.31zm-8.57 11.93v-17.6c0-.11 1.04-1.62 1.24-1.82.51-.48 1.6-.98 2.29-1.07 7.41-.97 22.72 1.96 29.37-2.33 6.53-4.21 6.29-11.71 6.15-18.65-.35-16.46-.37-33.03-.34-49.54-1.12-6.01-6.01-10.52-12.09-11.17l-141.74-.04c-7.09.48-12.38 5.39-13.27 12.43l-.04 56.6c.6 6.59 5.31 11.6 11.82 12.66l92.21.09 2.51 1.47 21.88 18.97z"/><path d="m61.19 182.48c-.2.83.45.52 1.07.91 4.46 2.81 3.93 9.76.44 13.3-4.69 4.75-12.77 2.87-18.79 3.22-2.16-.54-3.03-1.97-3.23-4.12-.72-7.77.55-16.6 0-24.49.17-1.87 1.13-3.92 3.21-4.14 2.75-.29 9.18-.28 11.92.03 2.91.33 6.43 2.47 7.68 5.17 1.45 3.14 1.16 8.51-2.3 10.11zm-12.55-2.76h5.66c.3 0 1.44-1.05 1.64-1.42.62-1.13.52-2.56-.4-3.49-.27-.27-1.27-.9-1.54-.9h-5.36zm-.31 12.86h6.58c.16 0 1.62-.7 1.83-.93 1.02-1.13 1.01-3.15 0-4.27-.15-.17-1.43-.93-1.52-.93h-6.58v5.66c0 .07-.45.34-.31.46z"/><path d="m99.96 172.16c6.87 6.59 5.9 18.09-1.95 23.42-11.99 8.14-26.96-3.12-23.14-17.02 2.96-10.75 17.21-13.96 25.09-6.4zm-11.62 3.66c-2.54.33-4.86 2.32-5.66 4.75-2.4 7.3 7.04 12.92 12.16 6.95 4.19-4.89-.39-12.5-6.5-11.7z"/><path d="m86.81 207.64c11.4-1.52 20.72 8.89 16.92 19.98-4.1 11.98-20.49 13.82-27.19 2.99-5.56-8.99-.35-21.55 10.27-22.97zm.6 7.95c-.56.12-2.51 1.23-2.95 1.64-3.6 3.36-2.55 10.11 2.04 12 8.27 3.41 13.84-7.87 6.62-12.74-1.52-1.03-3.92-1.28-5.71-.9z"/><path d="m83.73 130.24c.21.21.29.58.54.83 1.63 1.63 3.29 3.25 4.91 4.89l8.5-8.33c3.91-1.93 7.79 2.24 5.69 6l-8.22 8.3 7.96 8.26c2.83 3.74-1.65 8.08-5.62 6.24l-8.3-8.22-8.2 8.01c-3.52 2.11-8-1.27-6.4-5.18 1.06-2.61 6.37-6.21 8.19-8.65l.12-.43-7.77-7.85c-2.78-3.97 1.69-8.6 5.76-6.37.89.49 2.12 1.77 2.85 2.5z"/><path d="m58.09 152.22h-10.48s-.35.26-.35.26c-1.14 3.03-2.23 6.96-6.34 5.75-2.35-.69-3.06-2.6-2.61-4.91l9.67-25.53c2.43-3.76 6.97-3.88 9.11.21l9.87 25.33c.65 3.38-1.21 5.49-4.67 4.97-2.7-.4-3.25-3.99-4.18-6.07zm-3.03-7.69-2.6-6.73-2.6 6.73c1.53-.5 3.66-.5 5.2 0z"/><path d="m125.37 208.56c12.46-1.73 21.51 10.46 15.13 21.55-6.18 10.74-21.92 9-26-2.57-2.8-7.96 2.27-17.78 10.87-18.98zm1.21 7.95c-1.8.38-3.85 2.41-4.42 4.15-.54 1.64-.45 2.67.16 4.27 2.06 5.37 9.65 5.2 11.54-.22 1.67-4.77-2.26-9.25-7.28-8.2z"/><path d="m126.6 169.1c8.72-.86 16.62 6.6 15.99 15.38-.68 9.44-10.68 15.94-19.59 12.54-13.84-5.28-11.72-26.41 3.6-27.92zm.29 8.24c-3.07.53-5.57 3.96-5.05 7.06 1.05 6.26 9.79 7.13 12.02 1.14 1.71-4.59-2.11-9.03-6.97-8.19z"/><path d="m125.68 129.62c14.47-1.71 22.98 15.28 11.71 24.87-11.03 9.38-26.68-1.09-23.12-14.86 1.3-5.04 6.24-9.4 11.41-10.01zm6.72 18.49c.97-.92 1.99-3.3 1.95-4.64-.21-6.5-9.89-7.93-12.1-1.99-2.31 6.19 5.58 10.98 10.16 6.64z"/><path d="m63.54 210.41c.99.99 2.11 2.91 2.24 4.34.26 2.87-1.83 4.82-4.69 4.07-.99-.26-2-2.1-2.98-2.83-7.98-5.89-15.73 6.6-9.33 13.61 2.42 2.65 6.9 3.3 9.63.74.8-.75 1.39-2.23 2.68-2.52 4.23-.95 6.01 3.7 3.59 6.95-4.39 5.89-14.15 5.98-19.69 1.68-10.11-7.83-7.52-26.02 5.47-29.06 4.22-.99 9.93-.14 13.08 3.01z"/><path d="m158.53 178.58 53.44-.09c5.5.51 6.56 7.21 1.21 8.87h-55.63c-4.95-1.32-4.1-8.55.99-8.78z"/><path d="m157.29 218.34 55.6-.07c5.03.82 5.02 7.77 0 8.58l-55.35-.02c-4.29-1.04-4.43-7.17-.26-8.5z"/><path d="m156.98 141.53 56.5-.05c4.37 1.61 4.18 7.24-.31 8.55l-55.04.02c-4.48-.67-5.37-6.69-1.16-8.52z"/><path d="m139.43 52.12h12.39c.7 0 2.29 1.22 2.74 1.85 1.52 2.13.82 4.17-.62 6.08-3.73 4.96-8.41 9.43-12.53 14.09-6.51 7.35-13.28 15.88-20.18 22.66-4.47 4.39-11.48 3.84-12-3.17l5.41-21.32h-13.31c-.24 0-2.26-1.06-2.51-1.31-1.64-1.66-1.69-4.38-.52-6.31l22.95-34.58c1.15-1.43 2.66-2.6 4.56-2.78 5.99-.59 12.9.46 18.99 0 3.68.53 5.83 3.8 4.28 7.35l-9.64 17.44zm-1.23-15.92h-11.02l-17.44 27.23h10.86c.09 0 1.45.63 1.67.78 1.34.89 2.02 2.36 2.14 3.94-1.16 5.4-2.96 10.7-4.14 16.08-.07.32-.42.99.17.93l21.73-24.79h-11.17c-.49 0-2.24-1.49-2.56-2.03-1.51-2.54.03-4.46 1.13-6.75l8.63-15.4z"/></g></svg>