<svg height="250" viewBox="0 0 250 250" width="250" xmlns="http://www.w3.org/2000/svg"><g fill="#7f028c"><path d="m213.89 236.61h-192.36c-2.73 0-5.25-1.36-6.76-3.64-1.5-2.26-1.77-5.1-.74-7.61l30.73-74.39c1.26-3.05 4.2-5.02 7.5-5.02h9.81c2.76 0 5 2.24 5 5s-2.24 5-5 5h-8.54l-29.19 70.66h189.55c2.76 0 5 2.24 5 5s-2.24 5-5 5z"/><path d="m228.47 236.61h-36.44c-2.76 0-5-2.24-5-5s2.24-5 5-5h33.64l-29.19-70.66h-8.48c-2.76 0-5-2.24-5-5s2.24-5 5-5h9.75c3.29 0 6.24 1.97 7.5 5.02l30.73 74.38c1.04 2.51.76 5.36-.74 7.62-1.5 2.27-4.03 3.63-6.76 3.63z"/><path d="m192.02 234.61h-37.13c-.84 0-1.64-.35-2.21-.97l-23-24.93c-1.12-1.22-1.05-3.12.17-4.24s3.12-1.05 4.24.17l22.1 23.96h28.72l-27.01-27.84c-.84-.86-1.08-2.15-.61-3.26s1.56-1.83 2.76-1.83h54.97l-6.97-16.87h-40.74c-1.66 0-3-1.34-3-3s1.34-3 3-3h42.75c1.21 0 2.31.73 2.77 1.85l9.45 22.87c.38.93.28 1.98-.28 2.81s-1.49 1.33-2.49 1.33h-52.37l27.01 27.84c.84.86 1.08 2.15.61 3.26s-1.56 1.83-2.76 1.83z"/><path d="m70.17 234.61h-25.39c-1 0-1.93-.5-2.49-1.33s-.67-1.88-.29-2.81l11.73-28.8h-23.25c-1 0-1.94-.5-2.49-1.33-.56-.83-.66-1.89-.28-2.81l9.45-22.9c.46-1.12 1.56-1.85 2.77-1.85h25.88s5.18-9.74 5.18-9.74c.78-1.46 2.59-2.02 4.06-1.24 1.46.78 2.02 2.59 1.24 4.06l-6.02 11.35c-.52.98-1.54 1.59-2.65 1.59h-25.67s-6.98 16.88-6.98 16.88h23.23c1 0 1.93.5 2.49 1.33s.67 1.88.29 2.81l-11.73 28.8h18.99l14.16-31.68c.48-1.07 1.54-1.77 2.72-1.78l20.66-.12c1.66-.01 3.01 1.33 3.02 2.98 0 1.66-1.33 3.01-2.98 3.02l-18.73.11-14.16 31.69c-.48 1.08-1.56 1.78-2.74 1.78z"/><path d="m124.88 198.64c-3.19 0-5.65-2.14-6.93-3.25-.32-.27-.64-.56-.99-.83-14.92-11.34-44.61-44.59-53.57-65.64-13.54-24.79-14.27-53.69-1.94-77.35 11.12-21.33 31.53-35.1 56.03-37.81.08-.01.17-.02.26-.03 21.31-2.14 43.04 5.71 58.14 21 17.42 17.52 24.2 40.3 19.61 65.86-3.79 21.11-15.3 43.6-32.43 63.33-16.33 19.65-32.59 32.43-33.28 32.96-.09.07-.19.14-.28.21-1.66 1.12-3.21 1.54-4.63 1.54zm-5.91-174.98c-.06 0-.11.01-.17.02-21.54 2.31-38.75 13.86-48.47 32.51-10.82 20.76-10.09 46.24 1.96 68.14.08.15.16.31.23.47 7.83 18.65 36.64 51.25 50.57 61.85.54.43.99.81 1.42 1.19.09.08.19.16.28.25 3.95-3.22 17.21-14.45 30.62-30.59.02-.03.05-.06.07-.08 27.59-31.77 47.63-81.11 13.3-115.64 0 0 0 0-.01-.01-12.94-13.11-31.55-19.87-49.8-18.1zm5.85 93.24c-.05 0-.1 0-.15 0-19.84-.6-30.22-15.94-30.22-30.77s10.38-30.17 30.22-30.77h.31c19.81.63 30.18 15.95 30.18 30.77s-10.37 30.14-30.18 30.77c-.05 0-.1 0-.16 0zm0-51.53c-14.07.5-20.37 10.77-20.37 20.77 0 9.99 6.3 20.27 20.37 20.77 14.05-.52 20.34-10.78 20.34-20.77 0-9.98-6.29-20.25-20.34-20.77z"/></g></svg>