<svg height="250" viewBox="0 0 250 250" width="250" xmlns="http://www.w3.org/2000/svg"><g fill="#028c8c"><path d="m80.34 146.04c1.98-.12 3.9.25 5.88.25 4.01 0 8.71-.56 12.68-.26 3.54.27 6.34 2.5 5.58 6.32-.35 1.79-2.51 4.23-4.4 4.23h-19.75v21.66c0 .27-1.26 2.15-1.6 2.47-2.41 2.32-6.48 1.73-8.08-1.17-.13-.23-.61-1.17-.61-1.3v-21.66h-19.75c-.09 0-1.26-.55-1.49-.67-3.5-1.89-3.63-6.84-.2-8.92.26-.16 1.27-.71 1.45-.71h19.63l.36-.36v-20.59c0-.13.49-1.07.61-1.3 1.75-3.18 6.94-3.36 8.92-.33.14.21.76 1.53.76 1.64v20.71z"/><path d="m47.63 79.82c.6-.59 2.05-1.42 2.9-1.53h49.56c6.17 1.04 6.02 9.16 0 10.3h-49.55c-4.1-.64-5.91-5.78-2.91-8.77z"/><path d="m158.31 166.45 45.18-.06c6.8.87 6.58 9.52 0 10.53l-45.22-.02c-6.11-1.28-5.93-9.19.04-10.45z"/><path d="m159.04 144.19c2.61-.32 6.45.18 9.28.18 9.42 0 19.01-.31 28.46-.26 2.28.01 7.58-.23 9.35.97 4.11 2.79 2.65 8.79-2.16 9.58l-45.94-.02c-6.21-1.71-5.52-9.65 1-10.44z"/><path d="m232.19 15.33c-2.31-1.59-5.46-1.02-7.05 1.29l-63.07 91.87-9.88-6.71 54.47-79.44c1.59-2.3 1.02-5.46-1.29-7.05s-5.46-1.02-7.05 1.29l-58.2 84.83c-3.37 4.87-4.54 17.3-4.93 26.88-.07 1.89.8 3.67 2.34 4.76.96.68 2.08 1.03 3.22 1.03.69 0 1.38-.13 2.05-.39 8.89-3.5 20.23-8.76 23.82-13.95l66.86-97.35c1.59-2.3 1.02-5.46-1.29-7.05zm-84.9 95.37 8.18 5.56c-2.18 1.43-5.48 3.22-9.69 5.14.39-4.46.94-8.15 1.5-10.7z"/><path d="m229.16 49.91c-2.73 0-4.98 2.15-5.1 4.88-.06 1.36-.12 2.71-.11 4.01.25 40.65.12 81.3 0 121.82-.02 5.74.37 11.4.01 17.13-3.23-.03-6.47.03-9.71 0-52.13-.35-104.53-.18-156.79 0-7.11.02-15.76-.63-22.72 0-1.45.13-3.07.68-4.43 1.19v-150.92c.48-4.51 4.14-8.42 8.73-8.75h130.4c2.82 0 5.1-2.28 5.1-5.1v-.31c0-2.83-2.3-5.12-5.13-5.1-20.17.1-52.75.24-72.92.24-16.37 0-33.04-.49-49.47-.18-4.7.09-9.72-.25-14.2 1.36-6.66 2.4-12.21 9.27-12.8 16.4v167.8c.77 9.45 8.53 16.63 17.82 17.59h178.59c9.78-.83 17.33-8.57 18.07-18.31-.24-52.89.36-105.86-.24-158.71-.03-2.8-2.31-5.05-5.11-5.05zm-4.96 162.8c0 4.43-3.98 8.89-8.49 8.99h-177.39c-3.67-.05-8.01-4.43-8.01-8.03v-5.63h193.89z"/></g></svg>