<svg height="250" viewBox="0 0 250 250" width="250" xmlns="http://www.w3.org/2000/svg"><g fill="#fc5b3b"><path d="m164.21 195.63c-7.46-7.65-17.05-16.39-23.71-24.46-1.01-1.22-1.71-2.59-2.62-3.87-37.53 19.22-84.14 5.87-106.32-29.57-28.78-45.95-5.45-106.57 46.51-121.11 58.67-16.41 114.78 35.4 101.69 95.2-2.53 11.54-7.63 21.8-14.06 31.57l63.37 63.45c15.46 17.83-3.28 41.01-23.49 29.66-14.27-13.02-27.84-27.01-41.35-40.87zm-70.64-168.7c-50.29 3.44-77.83 61.69-51.31 103.99 31.26 49.87 108.36 39.32 124.01-17.68 13.12-47.8-24.19-89.63-72.69-86.32zm54.24 133.87.31.81 64.06 64.05c6.32 3.75 13.11-3.72 8.11-9.41l-63.25-63.24c-2.83 2.84-5.74 5.74-9.24 7.78z"/><path d="m106.94 88.46h30.65c.14 0 1.93.84 2.22 1.02 3.73 2.42 3.92 8.24.19 10.79-.34.23-2.19 1.16-2.41 1.16h-30.65v30.65c0 .48-1.41 2.95-1.87 3.41-2.87 2.86-8.02 2.38-10.08-1.19-.2-.34-1.02-2.65-1.02-2.87v-30h-30.97c-.14 0-1.93-.84-2.22-1.02-3.82-2.48-3.8-8.46 0-10.92.28-.18 2.08-1.02 2.22-1.02h30.97v-30c0-.12.61-1.91.73-2.19 2.02-4.41 8.37-4.83 11.09-.87.23.34 1.16 2.19 1.16 2.41v30.65z"/></g></svg>