<svg enable-background="new 0 0 512 512" height="512" viewBox="0 0 512 512" width="512" xmlns="http://www.w3.org/2000/svg"><path d="m256 512c-141.159 0-256-114.841-256-256s114.841-256 256-256 256 114.841 256 256-114.841 256-256 256z" fill="#f00" xmlns="http://www.w3.org/2000/svg"/><path d="m256 0c-.363 0-.722.012-1.084.014v511.973c.362.002.722.014 1.084.014 141.159 0 256-114.841 256-256s-114.841-256.001-256-256.001z" fill="#fb0000" xmlns="http://www.w3.org/2000/svg"/><path d="m256 425.249c-93.324 0-169.249-75.925-169.249-169.249s75.925-169.249 169.249-169.249 169.249 75.925 169.249 169.249-75.925 169.249-169.249 169.249z" fill="#fff" xmlns="http://www.w3.org/2000/svg"/><path d="m256 86.751c-.363 0-.722.011-1.084.014v338.471c.362.002.722.014 1.084.014 93.324 0 169.249-75.925 169.249-169.249s-75.925-169.25-169.249-169.25z" fill="#fff" xmlns="http://www.w3.org/2000/svg"/><path d="m256 337.573c-44.98 0-81.572-36.593-81.572-81.573s36.592-81.573 81.572-81.573 81.572 36.593 81.572 81.573-36.593 81.573-81.572 81.573z" xmlns="http://www.w3.org/2000/svg"/><path d="m256 174.427c-.363 0-.722.023-1.084.028v163.09c.363.005.721.028 1.084.028 44.979 0 81.572-36.593 81.572-81.573s-36.593-81.573-81.572-81.573z" xmlns="http://www.w3.org/2000/svg"/></svg>