<svg height="250" viewBox="0 0 250 250" width="250" xmlns="http://www.w3.org/2000/svg" xmlns:xlink="http://www.w3.org/1999/xlink"><clipPath id="a" fill="#fc5b3b"><path d="m229.2 94.8h-52.8c-2.87 0-5.2 2.33-5.2 5.2v53.07c0 2.87 2.33 5.2 5.2 5.2h52.8c2.87 0 5.2-2.33 5.2-5.2v-53.07c0-2.87-2.33-5.2-5.2-5.2z"/></clipPath><clipPath id="b" fill="#fc5b3b"><path d="m151.87 94.49h-52.8c-2.87 0-5.2 2.33-5.2 5.2v130.18c0 2.87 2.33 5.2 5.2 5.2h52.8c2.87 0 5.2-2.33 5.2-5.2v-130.18c0-2.87-2.33-5.2-5.2-5.2z"/></clipPath><clipPath id="c" fill="#fc5b3b"><path d="m74.53 15.33h-52.8c-2.87 0-5.2 2.33-5.2 5.2v132.36c0 2.87 2.33 5.2 5.2 5.2h52.8c2.87 0 5.2-2.33 5.2-5.2v-132.36c0-2.87-2.33-5.2-5.2-5.2z"/></clipPath><g fill="#fc5b3b"><path d="m224.4 26.67v43.47h-120.53v-43.47zm4.8-10h-130.13c-2.87 0-5.2 2.33-5.2 5.2v53.07c0 2.87 2.33 5.2 5.2 5.2h130.13c2.87 0 5.2-2.33 5.2-5.2v-53.07c0-2.87-2.33-5.2-5.2-5.2z"/><path d="m224.4 181.6v43.47h-43.2v-43.47zm4.8-10h-52.8c-2.87 0-5.2 2.33-5.2 5.2v53.07c0 2.87 2.33 5.2 5.2 5.2h52.8c2.87 0 5.2-2.33 5.2-5.2v-53.07c0-2.87-2.33-5.2-5.2-5.2z"/><path d="m224.4 104.8v43.47h-43.2v-43.47zm4.8-10h-52.8c-2.87 0-5.2 2.33-5.2 5.2v53.07c0 2.87 2.33 5.2 5.2 5.2h52.8c2.87 0 5.2-2.33 5.2-5.2v-53.07c0-2.87-2.33-5.2-5.2-5.2z"/><path d="m147.07 104.49v120.58h-43.2v-120.58zm4.8-10h-52.8c-2.87 0-5.2 2.33-5.2 5.2v130.18c0 2.87 2.33 5.2 5.2 5.2h52.8c2.87 0 5.2-2.33 5.2-5.2v-130.18c0-2.87-2.33-5.2-5.2-5.2z"/><path d="m69.73 181.6v43.47h-43.2v-43.47zm4.8-10h-52.8c-2.87 0-5.2 2.33-5.2 5.2v53.07c0 2.87 2.33 5.2 5.2 5.2h52.8c2.87 0 5.2-2.33 5.2-5.2v-53.07c0-2.87-2.33-5.2-5.2-5.2z"/><path d="m69.73 25.33v122.76h-43.2v-122.76zm4.8-10h-52.8c-2.87 0-5.2 2.33-5.2 5.2v132.36c0 2.87 2.33 5.2 5.2 5.2h52.8c2.87 0 5.2-2.33 5.2-5.2v-132.36c0-2.87-2.33-5.2-5.2-5.2z"/><g clip-path="url(#a)"><path d="m175.73 184.27c-.51 0-1.02-.2-1.41-.59-.78-.78-.78-2.05 0-2.83l53.51-53.51c.78-.78 2.05-.78 2.83 0s.78 2.05 0 2.83l-53.51 53.51c-.39.39-.9.59-1.41.59z"/><path d="m175.73 165.07c-.51 0-1.02-.2-1.41-.59-.78-.78-.78-2.05 0-2.83l53.51-53.51c.78-.78 2.05-.78 2.83 0s.78 2.05 0 2.83l-53.51 53.51c-.39.39-.9.59-1.41.59z"/><path d="m175.73 145.87c-.51 0-1.02-.2-1.41-.59-.78-.78-.78-2.05 0-2.83l53.51-53.51c.78-.78 2.05-.78 2.83 0s.78 2.05 0 2.83l-53.51 53.51c-.39.39-.9.59-1.41.59z"/><path d="m175.73 126.67c-.51 0-1.02-.2-1.41-.59-.78-.78-.78-2.05 0-2.83l53.51-53.51c.78-.78 2.05-.78 2.83 0s.78 2.05 0 2.83l-53.51 53.51c-.39.39-.9.59-1.41.59z"/></g><g clip-path="url(#b)"><path d="m95.73 263.73c-.51 0-1.02-.2-1.41-.59-.78-.78-.78-2.05 0-2.83l53.51-53.51c.78-.78 2.05-.78 2.83 0s.78 2.05 0 2.83l-53.51 53.51c-.39.39-.9.59-1.41.59z"/><path d="m95.73 244.53c-.51 0-1.02-.2-1.41-.59-.78-.78-.78-2.05 0-2.83l53.51-53.51c.78-.78 2.05-.78 2.83 0s.78 2.05 0 2.83l-53.51 53.51c-.39.39-.9.59-1.41.59z"/><path d="m95.73 225.33c-.51 0-1.02-.2-1.41-.59-.78-.78-.78-2.05 0-2.83l53.51-53.51c.78-.78 2.05-.78 2.83 0s.78 2.05 0 2.83l-53.51 53.51c-.39.39-.9.59-1.41.59z"/><path d="m95.73 206.13c-.51 0-1.02-.2-1.41-.59-.78-.78-.78-2.05 0-2.83l53.51-53.51c.78-.78 2.05-.78 2.83 0s.78 2.05 0 2.83l-53.51 53.51c-.39.39-.9.59-1.41.59z"/><path d="m95.73 186.93c-.51 0-1.02-.2-1.41-.59-.78-.78-.78-2.05 0-2.83l53.51-53.51c.78-.78 2.05-.78 2.83 0s.78 2.05 0 2.83l-53.51 53.51c-.39.39-.9.59-1.41.59z"/><path d="m95.73 167.73c-.51 0-1.02-.2-1.41-.59-.78-.78-.78-2.05 0-2.83l53.51-53.51c.78-.78 2.05-.78 2.83 0s.78 2.05 0 2.83l-53.51 53.51c-.39.39-.9.59-1.41.59z"/><path d="m95.73 148.53c-.51 0-1.02-.2-1.41-.59-.78-.78-.78-2.05 0-2.83l53.51-53.51c.78-.78 2.05-.78 2.83 0s.78 2.05 0 2.83l-53.51 53.51c-.39.39-.9.59-1.41.59z"/><path d="m95.73 129.33c-.51 0-1.02-.2-1.41-.59-.78-.78-.78-2.05 0-2.83l53.51-53.51c.78-.78 2.05-.78 2.83 0s.78 2.05 0 2.83l-53.51 53.51c-.39.39-.9.59-1.41.59z"/></g><g clip-path="url(#c)"><path d="m21.42 184.44c-.51 0-1.02-.2-1.41-.59-.78-.78-.78-2.05 0-2.83l53.51-53.51c.78-.78 2.05-.78 2.83 0s.78 2.05 0 2.83l-53.51 53.51c-.39.39-.9.59-1.41.59z"/><path d="m21.42 165.24c-.51 0-1.02-.2-1.41-.59-.78-.78-.78-2.05 0-2.83l53.51-53.51c.78-.78 2.05-.78 2.83 0s.78 2.05 0 2.83l-53.51 53.51c-.39.39-.9.59-1.41.59z"/><path d="m21.42 146.04c-.51 0-1.02-.2-1.41-.59-.78-.78-.78-2.05 0-2.83l53.51-53.51c.78-.78 2.05-.78 2.83 0s.78 2.05 0 2.83l-53.51 53.51c-.39.39-.9.59-1.41.59z"/><path d="m21.42 126.84c-.51 0-1.02-.2-1.41-.59-.78-.78-.78-2.05 0-2.83l53.51-53.51c.78-.78 2.05-.78 2.83 0s.78 2.05 0 2.83l-53.51 53.51c-.39.39-.9.59-1.41.59z"/><path d="m21.42 107.64c-.51 0-1.02-.2-1.41-.59-.78-.78-.78-2.05 0-2.83l53.51-53.51c.78-.78 2.05-.78 2.83 0s.78 2.05 0 2.83l-53.51 53.51c-.39.39-.9.59-1.41.59z"/><path d="m21.42 88.44c-.51 0-1.02-.2-1.41-.59-.78-.78-.78-2.05 0-2.83l53.51-53.51c.78-.78 2.05-.78 2.83 0s.78 2.05 0 2.83l-53.51 53.51c-.39.39-.9.59-1.41.59z"/><path d="m21.42 69.24c-.51 0-1.02-.2-1.41-.59-.78-.78-.78-2.05 0-2.83l53.51-53.5c.78-.78 2.05-.78 2.83 0s.78 2.05 0 2.83l-53.51 53.51c-.39.39-.9.59-1.41.59z"/><path d="m21.42 50.04c-.51 0-1.02-.2-1.41-.59-.78-.78-.78-2.05 0-2.83l53.51-53.5c.78-.78 2.05-.78 2.83 0s.78 2.05 0 2.83l-53.51 53.51c-.39.39-.9.59-1.41.59z"/></g></g></svg>