<svg height="250" viewBox="0 0 250 250" width="250" xmlns="http://www.w3.org/2000/svg"><g fill="#3ba546"><path d="m195.92 11.26-89.34-.13-89.45-.13c-1.83 5.68-.82 11.16 1.81 12.71l12.76.46s.22 7.12.8 9.97c4.56 22.21 10.52 38.59 25.52 55.93 3.93 4.54 14.15 12.68 21.69 20.97 2.47 2.72 7.03 1.34 7.51-2.31 0-.04.01-.09.02-.13.18-1.33-.15-2.67-.94-3.75-5.27-7.17-11.47-12.57-13.21-14.16-3.15-2.87-6.12-5.57-7.5-7.17-5.68-6.56-9.89-12.92-13.18-19.52l54.89.7c3.19-3.48 6.73-6.68 10.63-9.56l-11.35-.19-54.38-.96c-3.5-1.18-6.43-26.15-6.77-30.95h123.66c-.08 5.59.3 11.22-.22 16.77 3.14.05 6.23.26 9.28.64l1.74-17.41c2.28-.3 15.96.92 16.57.35.41-.39 2.66-12.01-.54-12.13z"/><path d="m200.78 231.16c-2.4-3.52-10.41-.81-14.54-3.25-6.22-3.67-7.47-17.19-9.5-26.68-3.95.37-7.24.41-9.53.44-.05 0-.1 0-.15 0 .53 6.3 1.64 10.76 1.71 11.1 1.22 6.2 2.81 12.53 5.98 17.44l-68.16.12-68.84-.04c4.93-4.77 6.33-9.91 6.91-17.17.07-.85.14-1.72.23-2.61l11.46-6.45c.1-.05 9.78-5.5 15.7-8.06 1.84-.8 5.18-1.88 8.71-3.02 8.23-2.67 14.86-4.93 19.82-7.64.54-.29 6.57-3.74 8.1-8.78-2.03-2.1-3.93-4.28-5.67-6.55-1.22 1.71-2.76 3.46-4.5 4.81-6.26 4.87-23.65 9.08-30.41 12.01-6.48 2.8-16.64 8.52-16.64 8.52s3.68-11.41 10.27-20.26c7.62-10.23 18.65-18.41 27-28.62.89-1.09 1.14-2.55.77-3.9-.01-.05-.02-.09-.04-.14-1.18-4.37-6.59-5.85-9.77-2.63-8.6 8.7-21.15 19.48-25.8 25.07-9.93 11.94-14.18 22.45-17.72 37.38-3.48 14.67 2.14 18.05-13.53 26.35-2.12 1.12-7.13.85-9.6 2.56-2.22 1.53-3.63 5.73-.64 9.12l94.22.05 94.18-.17c1.44 0 3.52-3.88 0-9z"/><path d="m167.77 55.82c11.2 0 21.96 2.95 32.04 8.78 14.29 8.18 24.12 19.07 29.22 32.35 4.53 11.8 5.07 25.02 1.55 38.25-3.74 14.05-11.79 26.95-22.67 36.33-11.44 9.87-25.03 15.08-39.29 15.08-12.49 0-25.19-3.97-37.77-11.8l-.14-.09-.14-.08c-12.82-7.42-23.05-25.6-26.17-38.95-4.48-20.04-.15-39.57 12.21-55.01 12.46-15.57 31.58-24.86 51.15-24.86m-18.45 76.49c-.35 8.88-1.12 22.11-1.5 28.6-.22 3.74-.24 4.07-.24 4.43l-.12 6.34 5.68 2.81c4.26 2.11 10.21 3.32 16.33 3.32 4.43 0 10.77-.66 15.8-3.79l5.23-3.26-.56-6.14c-.09-.97-1.85-20.29-3.37-33.38 2.95-1.82 4.22-2.91 4.83-3.49 10.5-9.35 14.09-24 9.15-37.43s-16.81-21.93-31.03-22.22c-.86-.06-1.71-.08-2.55-.08-17.02 0-30.16 11.72-32.71 29.17-1.87 12.8 2.86 27.7 15.05 35.14m18.47-86.51c-44.51 0-84.56 41.03-73.11 92.1 3.71 15.95 15.4 36.41 30.91 45.38 14.93 9.3 29.52 13.31 43.05 13.31 67.31 0 108.47-99.27 36.16-140.69-12.01-6.95-24.68-10.1-37.01-10.1zm1.68 121.99c-4.45 0-9-.85-11.89-2.28.02-.9 1.87-30.36 1.93-39.56-23.39-6.97-20.27-47.96 7.48-47.96.69 0 1.4.03 2.12.08 22.3.29 31.69 28.19 15.48 42.35-1.61 1.63-8.76 5.4-8.76 5.4 1.6 11.53 4.16 39.7 4.16 39.7-2.55 1.59-6.49 2.28-10.52 2.28z"/></g></svg>