<svg fill="none" height="20" viewBox="0 0 21 20" width="21" xmlns="http://www.w3.org/2000/svg" xmlns:xlink="http://www.w3.org/1999/xlink"><clipPath id="a"><path d="m.014648 0h20v20h-20z"/></clipPath><g clip-path="url(#a)" stroke="#0ba1a1" stroke-linecap="round" stroke-linejoin="round" stroke-width="1.5"><path d="m10.0146 12.5c1.3808 0 2.5-1.1193 2.5-2.5 0-1.38071-1.1192-2.5-2.5-2.5-1.38066 0-2.49995 1.11929-2.49995 2.5 0 1.3807 1.11929 2.5 2.49995 2.5z"/><path d="m16.1812 12.5c-.1109.2514-.144.5302-.095.8005s.1779.5198.37.7162l.05.05c.155.1548.2779.3386.3618.5409s.127.4192.127.6382c0 .2191-.0431.4359-.127.6383-.0839.2023-.2068.3861-.3618.5409-.1548.155-.3386.2779-.5409.3618-.2023.0838-.4192.127-.6382.127-.2191 0-.4359-.0432-.6383-.127-.2023-.0839-.3861-.2068-.5409-.3618l-.05-.05c-.1964-.1921-.4458-.321-.7162-.37-.2703-.049-.5491-.0159-.8005.095-.2464.1056-.4566.281-.6047.5046s-.2275.4856-.2286.7537v.1417c0 .442-.1756.866-.4882 1.1785-.3125.3126-.7364.4882-1.1785.4882-.44199 0-.86592-.1756-1.17848-.4882-.31256-.3125-.48815-.7365-.48815-1.1785v-.075c-.00646-.2758-.09574-.5433-.25624-.7677-.16051-.2245-.38482-.3954-.64376-.4906-.25135-.111-.53016-.144-.80049-.095s-.51978.1779-.71618.37l-.05.05c-.15479.1549-.3386.2779-.54093.3617-.20233.0839-.41921.1271-.63824.1271-.21902 0-.4359-.0432-.63823-.1271-.20233-.0838-.38614-.2068-.54093-.3617-.15496-.1548-.2779-.3386-.36177-.541-.08387-.2023-.12704-.4192-.12704-.6382s.04317-.4359.12704-.6382c.08387-.2024.20681-.3862.36177-.541l.05-.05c.19211-.1964.32098-.4458.37-.7161.04902-.2704.01593-.5492-.095-.8005-.10564-.2465-.28104-.4567-.50462-.6048-.22357-.148-.48556-.2275-.75372-.2286h-.14166c-.44203 0-.86595-.1756-1.17851-.4881-.31256-.3126-.48816-.7365-.48816-1.1785 0-.44205.1756-.86597.48816-1.17853.31256-.31257.73648-.48816 1.17851-.48816h.075c.27583-.00645.54333-.09574.76775-.25624.22441-.16051.39534-.38481.49058-.64376.11093-.25135.14402-.53016.095-.80049-.04901-.27033-.17789-.51978-.37-.71618l-.05-.05c-.15496-.15479-.27789-.3386-.36177-.54093-.08387-.20233-.12704-.41921-.12704-.63823 0-.21903.04317-.43591.12704-.63824.08388-.20233.20681-.38614.36177-.54093.15479-.15496.3386-.27789.54093-.36177.20233-.08387.41921-.12704.63824-.12704.21902 0 .4359.04317.63823.12704.20233.08388.38614.20681.54093.36177l.05.05c.1964.19211.44585.32099.71618.37.27033.04902.54914.01593.80049-.095h.06667c.24647-.10564.45668-.28104.60474-.50461.14806-.22358.22752-.48557.22859-.75372v-.14167c0-.44203.17559-.86595.48816-1.17851.31256-.31256.73648-.488156 1.17854-.488156.442 0 .8659.175596 1.1785.488156.3125.31256.4881.73648.4881 1.17851v.075c.0011.26816.0806.53015.2286.75372.1481.22358.3583.39898.6048.50461.2513.11093.5301.14402.8005.09501.2703-.04902.5197-.17789.7161-.37001l.05-.05c.1548-.15496.3386-.27789.541-.36176.2023-.08388.4192-.12705.6382-.12705s.4359.04317.6382.12705c.2024.08387.3862.2068.541.36176.1549.15479.2779.33861.3617.54094.0839.20233.1271.4192.1271.63823s-.0432.4359-.1271.63823c-.0838.20233-.2068.38615-.3617.54094l-.05.05c-.1921.1964-.321.44584-.37.71617-.0491.27033-.016.54915.095.80049v.06667c.1056.24647.281.45668.5046.60474.2236.14807.4855.22752.7537.22859h.1417c.442 0 .8659.1756 1.1785.48816.3125.31256.4881.73648.4881 1.1785 0 .442-.1756.866-.4881 1.1785-.3126.3126-.7365.4882-1.1785.4882h-.075c-.2682.001-.5302.0805-.7538.2286-.2235.148-.3989.3582-.5046.6047z"/></g></svg>