<svg height="250" viewBox="0 0 250 250" width="250" xmlns="http://www.w3.org/2000/svg"><g fill="#1fbfe8"><path d="m175.54 43.29c53.6-4.19 83.73 57.36 48.2 97.29-21.32 23.97-58.17 25.17-81.94 3.96-37.9-33.83-16.89-97.29 33.74-101.25zm1.97 9.58c-33 1.98-55.37 36.23-41.86 67.1 14.56 33.27 57.28 40.66 81.77 13.43 29.37-32.67 3.44-83.14-39.91-80.54z"/><path d="m61.42 211.01 100.68-.07c6.04.61 6 9.47 0 10.15h-100.46c-6.06-.02-6.24-9.96-.21-10.08z"/><path d="m61.14 165.63 77.58-.07c6.83 1.11 5.87 9.93-.85 10.14h-74.69c-2.03-.3-3.76-.57-5.01-2.44-1.98-2.94-.52-6.9 2.98-7.64z"/><path d="m33.46 202.92c10.32-1.25 17.94 8.01 14.78 17.9-3.48 10.9-18.47 12.45-24.34 2.79-4.98-8.2-.05-19.52 9.56-20.69z"/><path d="m33.46 111.59c19.94-2.41 20.9 28.85.21 26.98-15.08-1.37-15.8-25.09-.21-26.98z"/><path d="m44.97 180.47c-13.61 13.23-32.45-8.86-18.21-20.34 13.73-11.07 30.16 8.71 18.21 20.34z"/><path d="m34.31 65.66c17.64-1.51 19.97 25.87 2.17 27.25-17.64 1.37-19.86-25.73-2.17-27.25z"/><path d="m61.42 119.96 46.45-.06c6.75.25 6.99 10.11-.28 10.14-13.04.05-31.64-.15-45.1 0-6.86-.09-7.46-9.95-1.06-10.08z"/><path d="m61.14 74.3 43.27-.04c5.7 1 6.26 8.81.31 9.84l-42.77-.03c-5.66-.68-6.52-8.41-.81-9.77z"/><path d="m34.31 20.06c17.64-1.51 19.97 25.87 2.17 27.25-17.64 1.37-19.86-25.73-2.17-27.25z"/><path d="m61.14 28.7 31.27-.04c5.7 1 6.26 8.81.31 9.84l-30.77-.03c-6.49.17-6.49-9.5-.81-9.77z"/><path d="m185.74 79.56v42.84c2.51-1.7 6.15-7.28 9.14-7.62 4.37-.49 6.94 3.87 4.77 7.59-5.08 4.72-10.5 12.09-15.88 16.24-2.29 1.77-4.66 1.2-6.63-.7-.5-.48-.78-1.09-1.25-1.57-3.97-3.98-9.74-9.11-13.1-13.38-2.14-2.72-1.64-6.6 1.75-7.84 4.91-1.8 8.27 4.36 11.49 6.98.86.07.14-.31.14-.42v-42.14c-2.63 1.79-5.68 6.9-8.89 7.3-4.62.59-6.62-3.64-4.73-7.56 1.06-2.21 11.93-12.99 14.33-14.97 3.18-2.63 5.3-2.08 8.32.43 3.4 2.83 10.96 10.26 13.66 13.67 1.79 2.25 2.22 4.39.28 6.77-4.55 5.59-10.1-3.02-13.38-5.64z"/></g></svg>