<svg height="250" viewBox="0 0 250 250" width="250" xmlns="http://www.w3.org/2000/svg"><g fill="#d040b2"><path d="m227.11 45.35v136.48h-12.12c-5.52 0-10 4.48-10 10v16.83h-182.1s0-139.63 0-139.63h19.06c5.52 0 10-4.48 10-10v-13.66h175.16m1.95-10.02h-179.37c-3.06.39-5.85 2.5-6.94 5.38-.18.47-.79 2.38-.79 2.68v15.61h-21.95c-.37 0-2 .75-2.47 1.01-2.68 1.46-4.46 4.28-4.65 7.34v143.56c.26 3.99 3.45 7.3 7.42 7.73h186.09c4.74 0 8.59-3.85 8.59-8.59v-18.24h14.37c.48 0 3.2-1.26 3.74-1.63 2.16-1.46 3.76-4.13 4-6.73v-139.76c-.27-4.4-3.66-7.91-8.04-8.36z"/><path d="m17.54 62.54c-2.68 1.46-4.46 3.28-4.65 6.34v142.04c.26 3.99 3.45 7.3 7.42 7.73l184.72.24c2.68-.14 5.49-1.94 6.72-4.32.17-.32 1-2.34 1-2.47v-144.27c0-3.34-2.71-6.06-6.06-6.06l-186.69-.24c-.37 0-2 .75-2.47 1.01zm4.84 6.46 182.92.24v121.76c-.06 0-32.6-34.23-49.25-50.86-4.65-3.15-8.02 1.28-11.01 4.35-3.55 3.66-6.98 7.59-10.4 11.37-.29.32-1.48 1.64-1.87 1.55-2.61-2.86-5.32-5.64-7.94-8.49-9.24-10.09-18.46-20.25-27.79-30.28-1.57-1.68-3.97-5.15-5.93-6.06-2.32-1.09-4.3-.74-6.23.84-4.85 3.97-9.9 10.14-14.35 14.68-13.86 14.15-27.67 28.47-41.36 42.59-2.2 2.26-4.46 4.5-6.8 6.62v-108.31zm0 121.72c1.59-1.67 3.32-3.21 4.9-4.88 18.77-19.79 38.26-38.99 57.14-58.69 1.02-1.06 2.23-2.35 3.32-3.31.22-.2.38-.54.76-.45l28.76 30.91c6.3 6.77 12.66 13.41 18.96 20.17 1.28 1.37 3.37 4.46 5.03 5.07 4.46 1.63 8.43-2.38 6-6.63l-8-8.69 13.7-14.35 52.03 53.7-.04 6.15-182.55-.24v-18.77z"/><path d="m160.92 83.71c14.21-1.46 26.81 12.14 23.99 26.17-3.64 18.12-26.24 24.63-38.44 10.18-11.2-13.27-2.71-34.58 14.45-36.35zm1.27 9.46c-10.24 1-15.03 13.34-8.3 21.06 7.95 9.11 23.1 2.25 21.93-9.6-.64-6.49-7.06-12.09-13.62-11.45z"/></g></svg>