<svg fill="none" height="24" viewBox="0 0 25 24" width="25" xmlns="http://www.w3.org/2000/svg"><path d="m23 4.125v3.675c0 .58012-.4699 1.05-1.05 1.05s-1.05-.46988-1.05-1.05v-3.675c0-.46988-.0551-.525-.525-.525h-3.675c-.5801 0-1.05-.46988-1.05-1.05 0-.58013.4699-1.05 1.05-1.05h3.675c1.6196 0 2.625 1.00537 2.625 2.625zm-14.7-2.625h-3.675c-1.61963 0-2.625 1.00537-2.625 2.625v3.675c0 .58012.46987 1.05 1.05 1.05.58012 0 1.05-.46988 1.05-1.05v-3.675c0-.46988.05512-.525.525-.525h3.675c.58012 0 1.05-.46988 1.05-1.05 0-.58013-.46988-1.05-1.05-1.05zm0 18.9h-3.675c-.46988 0-.525-.0551-.525-.525v-3.675c0-.5801-.46988-1.05-1.05-1.05-.58013 0-1.05.4699-1.05 1.05v3.675c0 1.6196 1.00537 2.625 2.625 2.625h3.675c.58012 0 1.05-.4699 1.05-1.05s-.46988-1.05-1.05-1.05zm13.65-5.25c-.5801 0-1.05.4699-1.05 1.05v3.675c0 .4699-.0551.525-.525.525h-3.675c-.5801 0-1.05.4699-1.05 1.05s.4699 1.05 1.05 1.05h3.675c1.6196 0 2.625-1.0054 2.625-2.625v-3.675c0-.5801-.4699-1.05-1.05-1.05z" fill="#282573"/></svg>