<svg enable-background="new 0 0 512 512" height="512" viewBox="0 0 32.529 32.529" width="512" xmlns="http://www.w3.org/2000/svg"><path d="m18.72 13.811c-.846-.846-.846-2.217 0-3.063l6.168-6.168-3.131-.254c-.533-.045-1.006-.277-1.357-.628-.434-.434-.682-1.048-.627-1.707.1-1.192 1.145-2.08 2.334-1.983l7.799.635c1.059.088 1.896.927 1.982 1.983l.635 7.797c.098 1.191-.791 2.236-1.982 2.334-1.19.097-2.235-.791-2.334-1.983l-.254-3.129-6.168 6.167c-.848.847-2.22.847-3.065-.001zm-7.973 4.908-6.166 6.167-.256-3.13c-.098-1.192-1.143-2.08-2.334-1.982-1.193.099-2.08 1.144-1.984 2.333l.635 7.8c.086 1.056.927 1.895 1.984 1.98l7.797.635c1.191.099 2.236-.791 2.334-1.981.055-.659-.193-1.273-.627-1.708-.352-.353-.822-.582-1.355-.627l-3.131-.256 6.166-6.167c.849-.848.849-2.219.002-3.063-.848-.848-2.219-.848-3.065-.001zm19.791 1.053c-.66-.055-1.273.193-1.707.627-.353.353-.584.823-.627 1.356l-.256 3.13-6.166-6.167c-.849-.846-2.22-.846-3.062 0-.849.846-.849 2.218 0 3.063l6.166 6.167-3.132.254c-1.19.098-2.077 1.144-1.981 2.335.099 1.19 1.144 2.08 2.337 1.982l7.795-.636c1.057-.086 1.896-.925 1.983-1.981l.633-7.799c.098-1.188-.79-2.234-1.983-2.331zm-22.894-15.192 3.131-.254c1.191-.098 2.078-1.143 1.982-2.336-.099-1.192-1.144-2.079-2.335-1.983l-7.799.636c-1.055.086-1.896.925-1.981 1.983l-.635 7.797c-.097 1.192.79 2.236 1.983 2.334.657.054 1.272-.193 1.707-.628.353-.351.584-.821.627-1.355l.256-3.131 6.168 6.167c.845.847 2.218.847 3.062 0 .848-.846.848-2.217.002-3.063z" fill="#f00" xmlns="http://www.w3.org/2000/svg"/></svg>