<svg enable-background="new 0 0 512 512" height="512" viewBox="0 0 32.071 32.071" width="512" xmlns="http://www.w3.org/2000/svg"><path d="m31.436 31.435c-.846.848-2.217.848-3.062 0l-6.168-6.168-.254 3.13c-.045.533-.276 1.008-.627 1.357-.435.434-1.05.682-1.707.627-1.192-.097-2.082-1.143-1.983-2.334l.635-7.797c.088-1.06.926-1.896 1.981-1.984l7.798-.635c1.19-.095 2.237.791 2.334 1.985.098 1.189-.791 2.234-1.982 2.334l-3.129.253 6.168 6.168c.841.848.841 2.22-.004 3.064zm-18.982-29.745c-.658-.054-1.272.193-1.707.627-.352.351-.582.822-.627 1.354l-.256 3.131-6.166-6.166c-.846-.848-2.218-.847-3.062-.002-.846.848-.846 2.219 0 3.064l6.166 6.167-3.129.255c-1.191.098-2.08 1.143-1.982 2.334.096 1.193 1.141 2.08 2.334 1.984l7.797-.634c1.055-.086 1.896-.927 1.982-1.985l.635-7.797c.095-1.189-.793-2.234-1.985-2.332zm-.635 16.579-7.797-.636c-1.191-.096-2.236.792-2.334 1.984-.055.659.193 1.271.627 1.707.352.35.826.583 1.357.628l3.131.253-6.167 6.169c-.846.846-.846 2.217 0 3.062.846.848 2.217.849 3.062 0l6.168-6.166.254 3.128c.099 1.192 1.144 2.08 2.334 1.983 1.195-.098 2.08-1.143 1.984-2.334l-.635-7.797c-.087-1.054-.926-1.895-1.984-1.981zm8.431-4.464 7.798.635c1.19.097 2.235-.791 2.334-1.983.055-.66-.193-1.273-.627-1.708-.353-.35-.822-.582-1.355-.627l-3.131-.255 6.166-6.167c.848-.846.848-2.217.002-3.062-.848-.847-2.219-.847-3.064 0l-6.166 6.167-.257-3.129c-.098-1.193-1.143-2.081-2.334-1.983-1.191.097-2.08 1.142-1.982 2.333l.633 7.798c.085 1.054.924 1.892 1.983 1.981z" fill="#f00" xmlns="http://www.w3.org/2000/svg"/></svg>