<svg enable-background="new 0 0 512 512" height="512" viewBox="0 0 512 512" width="512" xmlns="http://www.w3.org/2000/svg"><path d="m512 256v224c0 17.673-14.327 32-32 32h-448c-17.673 0-32-14.327-32-32v-448c0-17.673 14.327-32 32-32h224c17.673 0 32 14.327 32 32s-14.327 32-32 32h-192v384h384v-192c0-17.673 14.327-32 32-32s32 14.327 32 32zm-224-91.2c0-17.673-14.327-32-32-32s-32 14.327-32 32v91.2c0 17.673 14.327 32 32 32h91.2c17.673 0 32-14.327 32-32s-14.327-32-32-32h-13.944l169.372-169.372c12.496-12.497 12.496-32.759 0-45.256-12.498-12.496-32.758-12.496-45.256 0l-169.372 169.372z" fill="#f00"/></svg>