<svg xmlns="http://www.w3.org/2000/svg" width="250" height="250" viewBox="0 0 250 250"><g fill="#0b439e"><path d="M57.6 8.7l150.1-.1c9.9 1.2 16.5 8.4 17.1 18.3v100c-2.8-1.5-5.8-2.6-9-3.3V27c-.1-4.8-3.9-9-8.6-9.5H53.5c-5.3.1-9.9 3.7-10.4 9.2v197c.5 5.5 5.1 9.1 10.4 9.2h60c.6 3.2 1.6 6.2 3 9H53.1c-9-.6-16.2-6.5-17.9-15.4-.6-67.3-.6-134.8 0-202.1 1.6-8 7.9-13.9 15.9-15z"/><path d="M105.4 62.1c-2-1.8-1-6.9-.3-9.3 4.1-13.1 20.8-17.8 31.9-10.5 10.3 6.8 11.7 21 2.1 29.1-3.2 2.7-8.5 3.9-9.2 8.5-.5 2.9.3 6.7-4 7.4-6.1.9-6.3-5.5-5.8-9.8 1.4-10.1 14.4-10.9 15.3-18.6 1.2-10.3-13.3-14-19.2-6.1-2.3 3.1-1.6 8.1-5.3 9.8-1.7.7-4.1.8-5.5-.5z"/><path d="M70 110h80c2 0 4-2 4-4s-2-4-4-4H70c-2 0-4 2-4 4s2 4 4 4zm0 35h50c2 0 4-2 4-4s-2-4-4-4H70c-2 0-4 2-4 4s2 4 4 4zm0 35h35c2 0 4-2 4-4s-2-4-4-4H70c-2 0-4 2-4 4s2 4 4 4z"/><path d="M185 130c-33 0-60 27-60 60s27 60 60 60 60-27 60-60-27-60-60-60zm0 112c-28.7 0-52-23.3-52-52s23.3-52 52-52 52 23.3 52 52-23.3 52-52 52z"/><path d="M185 155c-2.2 0-4 1.8-4 4v27h-27c-2.2 0-4 1.8-4 4s1.8 4 4 4h27v27c0 2.2 1.8 4 4 4s4-1.8 4-4v-27h27c2.2 0 4-1.8 4-4s-1.8-4-4-4h-27v-27c0-2.2-1.8-4-4-4z"/></g></svg>