<svg height="24" width="24" xmlns="http://www.w3.org/2000/svg"><path d="m5 21q-.825 0-1.413-.587-.587-.588-.587-1.413 0-.825.587-1.413.588-.587 1.413-.587.825 0 1.412.587.588.588.588 1.413 0 .825-.588 1.413-.587.587-1.412.587zm12 0q0-2.9-1.1-5.438-1.1-2.537-3.012-4.45-1.913-1.912-4.45-3.012-2.538-1.1-5.438-1.1v-3q3.525 0 6.625 1.338 3.1 1.337 5.4 3.637 2.3 2.3 3.638 5.4 1.337 3.1 1.337 6.625zm-6 0q0-3.325-2.338-5.662-2.337-2.338-5.662-2.338v-3q2.3 0 4.3.863 2 .862 3.488 2.349 1.487 1.488 2.349 3.488.863 2 .863 4.3z"/></svg>