<svg enable-background="new 0 0 24 24" height="24" viewBox="0 0 24 24" width="24" xmlns="http://www.w3.org/2000/svg"><path clip-rule="evenodd" d="m12.012 14.901c0-.185 0-.329 0-.473 0-2.51 0-5.021.001-7.531 0-.714.137-.903.806-1.105.745-.226 1.491-.45 2.235-.669.813-.239 1.312.134 1.317.981.004.476.01.951-.002 1.425-.014.569-.227.842-.774 1.003-.511.152-1.024.309-1.544.439-.245.062-.318.178-.316.431.011 2.291-.053 4.583.026 6.871.057 1.674-.968 2.389-2.163 2.659-1.213.274-2.354.098-3.326-.739-.864-.743-.867-1.897-.008-2.642.959-.83 2.08-.997 3.289-.753.14.028.279.062.459.103z" fill-rule="evenodd"/></svg>