<svg height="250" viewBox="0 0 250 250" width="250" xmlns="http://www.w3.org/2000/svg"><g fill="#3ba546"><path d="m35.49 38.67c3.45-.5 17.68-.72 20.77-.03 4.92 1.1 4.12 8.64-.58 9.69-9.18 2.06-25.19-5.16-26.41 9.84l-.09 158.39c.52 6.04 3.8 10.98 10.23 11.4l172.81-.3c4.17-1.76 8.08-5.03 8.19-9.93l-.02-126.9c-1.08-9.44-10.01-3.57-12.78-8.84-3.35-6.37 4.87-7.78 9.57-7.24 7.01.8 12.76 8.02 13.17 14.89l-.03 128.64c-.88 9.86-8.88 18.81-18.97 19.62h-172.53c-7.09-.61-14.46-5.35-17.33-11.9-2.23-5.09-1.35-7.79-1.66-12.96-3.14-52.61.54-106.77.15-159.47 1.44-7.36 8.04-13.83 15.5-14.91z"/><path d="m206.21 19.37c12.71-1.72 23.51 8.34 22.35 21.19-.93 10.36-11.77 17.49-18.42 24.25-19.59 19.91-39.37 39.94-59.52 59.17-8.14 3.05-16.5 6.24-24.95 8.38-3.2.81-6.05 2.34-9.06.29-1.8-1.22-2.63-3.1-2.39-5.27.99-9.05 7.89-21.66 10.17-30.8 21.53-22.55 43.83-44.7 66.2-66.52 4.81-4.7 8.09-9.66 15.63-10.68zm.57 9.93c-3.88.71-8.53 6.37-10.91 9.43l13.62 13.19c5.1-5.16 13.16-10.2 7.88-18.28-2.32-3.55-6.46-5.1-10.59-4.34zm-14.78 13.46-54.37 54.25c-.49.68-.08.93.27 1.44.67.98 11.01 11.34 11.75 11.72 2.11 1.07 7.88-6.76 9.33-8.24 4.92-5.02 10.02-9.86 14.91-14.91l31.27-31.25-13.15-13.01zm-65.74 78.78c1.97-.36 18.64-6.28 18.63-7.18l-12.59-12.24-6.05 19.42z"/><path d="m142.7 24.99 27.44.33c4.35 2.39 3.8 8.3-.95 9.65l-33.62-.22c-4.65-2.29-1.61-7.93-3.79-11.41-2.6-4.16-7.68-5.01-11.79-2.49-6.17 3.8-2.31 12.37-7.16 13.89l-30.69.29c-1.55.24-3.51 1.57-3.82 3.2-.36 1.94-.2 20.78.29 21.9.24.55.97 1.07 1.46 1.46l52.87.34c5.46.86 5.71 9.88-1.11 9.93-15.84.13-34.64-.27-52.07-.03-6.3-.11-10.78-5.88-11.39-11.99-.53-5.33-.58-17.47.06-22.73 2.09-17.26 26.87-10.89 38.52-12.05 2.46-20.66 32.31-20.44 35.74-.07z"/><path d="m202.68 216.53c-.71 0-1.4-.18-2-.53-.36-.26-1.77-1.99-2.1-2.56v-18.82c0-.55-.45-1-1-1h-19.39c-.55 0-1 .45-1 1v19c-.02.74-2.7 2.72-3.97 2.72-1.56 0-3.97-2.01-3.97-3.3v-18.42c0-.55-.45-1-1-1h-122.39c-.89 0-2.05-1.62-2.21-3.7-.09-1.1.03-3.71 2.91-4.2h114.51s7.19-.02 7.19-.02c.55 0 1-.45 1-1v-33.46c0-.27-.11-.52-.3-.71-.19-.18-.44-.29-.7-.29 0 0-6.03.09-6.03.09l-113.97.61c-3.02-.36-4.74-2.01-4.6-4.44.11-2.01 1.62-4.09 3.96-4.09h120.64c.55 0 1-.45 1-1v-13.74c0-.66.29-2.81 3.97-2.83 3.17 0 3.95 1.9 3.96 2.25v14.32c0 .55.45 1 1 1h19.39c.55 0 1-.45 1-1v-31.28c0-2.77-3.79-2.85-7.81-2.94-2.83-.06-6.71-.14-7.29-1.42-.8-1.76-.78-3.59.06-4.91.72-1.12 1.96-1.74 3.49-1.74 9.45.08 15.34.25 17.78 2.78 1.24 1.28 1.75 3.28 1.66 6.49l.02 105.1c-.34 1.98-2.16 3.02-3.81 3.02zm-24.48-66.17c-.55 0-1 .45-1 1v33.58c0 .55.44 1 1 1h1.13c2.89 0 5.46-.05 7.95-.11 2.45-.05 4.99-.11 7.8-.11h.5c.99 0 2.08-.11 2.87-1.38.1-.16.15-.34.15-.52v-32.45c0-.55-.45-1-1-1h-19.39z"/><path d="m47.2 107.64c-2.1-.61-3.44-2.05-3.52-3.76-.08-1.69 1.1-3.21 3.08-4.02l58.89-.09c1.9.5 3.02 1.83 3.01 3.57-.01 1.66-1.14 3.69-3.59 4.3z"/><path d="m54.99 129.51c-4.74 0-7.9-.21-8.57-.42-1.9-.59-2.66-2.49-2.57-4.11.09-1.65 1.06-3.59 3.52-4.08.88-.18 3.8-.3 7.1-.3 4.46 0 7.17.21 7.8.4 2.19.67 2.84 2.73 2.73 4.28-.11 1.61-1.11 3.62-3.53 4-.86.14-3.46.23-6.47.23z"/><path d="m53.64 215.55c-3.39 0-6.07-.11-7-.29-1.97-.37-2.71-2.21-2.74-3.66-.04-1.74.88-3.99 3.61-4.64 1.09-.26 3.94-.43 7.27-.43 2.88 0 5.46.13 6.55.33 1.73.31 3.12 1.52 3.64 3.17.48 1.51.1 3.03-1.02 4.15-.58.59-1.48 1-2.4 1.12-1.23.15-4.55.26-7.9.26z"/><path d="m87.25 215.43c-5.2 0-8.58-.21-9.13-.4-1.62-.68-2.48-2.08-2.28-3.73.23-1.86 1.81-3.95 4.83-4.42 1.14-.18 3.82-.3 6.51-.3 4.18 0 6.37.29 6.98.53 2.11.85 2.86 2.94 2.67 4.64-.17 1.47-1.1 3.16-3.21 3.49-.72.11-3.34.19-6.37.19z"/><path d="m86.82 129.51c-4.05 0-7.44-.17-8.25-.42-2.05-.63-2.86-2.55-2.77-4.19.1-1.63 1.12-3.54 3.7-4 1.01-.18 3.94-.31 7.12-.31 4.07 0 6.55.2 7.21.4 2.19.67 2.84 2.73 2.73 4.28-.11 1.61-1.11 3.62-3.53 4-.85.13-3.35.22-6.21.22z"/><path d="m54.4 172.26c-3.18 0-6.1-.09-7.27-.24-.87-.11-1.96-.59-2.39-1.06-.9-.99-1.21-2.62-.77-4.17.38-1.36 1.24-2.36 2.29-2.66.49-.14 3.15-.3 7.83-.3 3.72 0 7.06.1 7.95.24 2.19.34 3.02 2.27 3.07 3.81.06 1.69-.74 3.58-2.64 4.01-1 .22-4.18.37-8.08.37z"/><path d="m149.64 215.55c-3.39 0-6.07-.11-7-.29-1.97-.37-2.71-2.21-2.74-3.66-.04-1.74.88-3.99 3.61-4.64 1.09-.26 3.94-.43 7.27-.43 2.88 0 5.46.13 6.55.33 1.73.31 3.12 1.52 3.64 3.17.48 1.51.1 3.03-1.02 4.15-.58.59-1.48 1-2.4 1.12-1.23.15-4.55.26-7.9.26z"/><path d="m150.4 172.26c-3.18 0-6.1-.09-7.27-.24-.87-.11-1.96-.59-2.39-1.06-.9-.99-1.21-2.62-.77-4.17.38-1.36 1.24-2.36 2.29-2.66.49-.14 3.15-.3 7.83-.3 3.72 0 7.06.1 7.95.24 2.19.34 3.02 2.27 3.07 3.81.06 1.69-.74 3.58-2.64 4.01-1 .22-4.18.37-8.08.37z"/><path d="m93.17 172.42c-1.05-.33-2.36-.49-4.08-.49-1.04 0-2.15.05-3.22.11-1.07.05-2.18.11-3.22.11-3.58 0-5.46-.7-6.31-2.33-.53-1.03-.53-2.33 0-3.48.53-1.14 1.48-1.94 2.59-2.19.82-.18 3.92-.31 7.55-.31s6.73.13 7.55.31c2.83.63 2.94 3.09 2.9 3.83-.09 1.92-1.41 4.03-3.77 4.44z"/><path d="m119.25 215.43c-5.2 0-8.58-.21-9.13-.4-1.62-.68-2.48-2.08-2.28-3.73.23-1.86 1.81-3.95 4.83-4.42 1.14-.18 3.82-.3 6.51-.3 4.18 0 6.37.29 6.98.53 2.11.85 2.86 2.94 2.67 4.64-.17 1.47-1.1 3.16-3.21 3.49-.72.11-3.34.19-6.37.19z"/><path d="m125.17 172.42c-1.05-.33-2.36-.49-4.08-.49-1.04 0-2.15.05-3.22.11-1.07.05-2.18.11-3.22.11-3.58 0-5.46-.7-6.31-2.33-.53-1.03-.53-2.33 0-3.48.53-1.14 1.48-1.94 2.59-2.19.82-.18 3.92-.31 7.55-.31s6.73.13 7.55.31c2.83.63 2.94 3.09 2.9 3.83-.09 1.92-1.41 4.03-3.77 4.44z"/></g></svg>