<svg height="250" viewBox="0 0 250 250" width="250" xmlns="http://www.w3.org/2000/svg"><g fill="#1fbfe8"><path d="m89.25 187.06-20.41-.12 1.07-14.82h19.35v-7.16c-19.52.1-50.05-.19-69.56-.02-.77 0-2.03-.75-2.7-1.43-.45-.46-1.24-1.13-1.24-2.89v-8.34h73.51v-6.43s-73.51 0-73.51 0v-92.7c0-.95 1.24-2.08 2.08-2.08l9.3-.02c-1.33 3.87-1.61 6.83-2.07 10.81-3.38 20.71 4.4 40.13 19.98 54.03 10.62 9.47 24.45 14.03 38.52 13.85 1.91.02 3.81-.05 5.71-.2v-3.37c0-.4.04-.8.1-1.19.25-1.46.7-2.82 1.3-4.08-1.17.73-2.43 1.34-3.81 1.75v-24.6c2.46.17 4.93.37 7.38.65 3.27.56 6.49 1.35 9.62 2.43-1.75 4.13-3.73 8.89-6.46 12.95 1.29-.65 2.69-1.14 4.19-1.44 1.13-2.95 3.45-5.67 7.73-7.49.24-.58.49-1.16.72-1.74.17-.12 1.11.27 2.11.75.61-.17 1.24-.33 1.91-.48 2.51-.53 5.2-.87 8.01-1.07l-9.65-5.55c1.63-7.6 2.92-15.36 2.97-23.15h20.68c.12.09.19.14.23.21-.19 8.51-2.9 16.73-7.39 23.9-.59.94-1.91 3.05-2.94 4.43.41 0 .81-.03 1.23-.03 2.06 0 4.17.09 6.29.25 7.73-11.93 11.01-26.05 8.6-40.83-.46-3.98-1.33-6.92-2.66-10.79h21.38c1.64 0 2.82.96 2.82 3.08v55.76c1.43.74 3.79 2.53 5.08 3.38.72-.52 1.5-1.06 2.32-1.58-.21-17.65.58-43.57-.44-60.23-1.08-4.04-4.65-7.29-8.82-7.8l-25.3-.16c-4.61-8.13-10.75-15.01-18.06-20.23-3.41-2.55-7.07-4.75-10.88-6.49-8.07-3.69-15.79-5.03-23.96-4.76-8.16-.27-15.89 1.07-23.96 4.76-3.81 1.75-7.47 3.94-10.88 6.49-7.31 5.22-13.44 12.1-18.06 20.23l-.08.17c-2.23.19-11.45-.22-13.27-.01-4.99.58-8.71 5.44-9.02 10.28v107.59c.27 4.68 5.58 10.59 10.33 10.59h44.1l-1.07 14.82c-2.3-.13-4.72-.38-7.11-.28-1.11.05-3.55.25-4.43.67-1.61.77-2.4 3.92-1.56 5.54.16.32 1.19 1.24 1.44 1.24h39.24zm35.66-148.8c.45.01 1.84 2.07 2.22 2.6 5.05 7 7.97 15.54 8.92 24.13.07.92.13 1.84.14 2.76h-20.81c-.06-1.15-.14-2.3-.23-3.44-.35-6.52-1.29-13.04-3.01-19.31l2.86-1.51c2.94-1.29 5.78-2.82 8.52-4.5l1.39-.74zm-8.75-8.68c1.38 1.09 2.6 2.5 4.05 3.33-.63 1.34-8.16 5.35-10.03 5.85l-4.68-10.42-4.95-7.47c5.54 2.23 10.91 5 15.6 8.71zm-29.29-10.08c.86.2 1.66.5 2.43.83 7.42 4.46 11.44 12.49 14.55 20.45-1.36.47-5.53 1.3-6.21 1.43-2.38.44-4.78.75-7.19 1.02-1.2.07-2.39.12-3.58.13zm0 30.3c4.56.09 9.1-.54 13.56-1.42.22-.04.65-.15 1.17-.29 1.39-.26 2.78-.54 4.16-.81 2.3 6.59 2.78 13.6 3.46 20.49h-22.35v-17.96zm0 24.12h22.08c-.18 7.05-1.39 14.01-2.68 20.91-1.46-.36-2.92-.69-4.4-1-.84-.26-1.54-.47-1.81-.53-4.3-.98-8.78-1.41-13.19-1.42zm-39.67 35.23c-.13-.62 4.38-3.21 5.17-3.64.67-.36 4.38-2.34 4.73-2.09 2.55 6.33 5.63 12.6 9.93 17.95-7.83-1.74-14.06-6.99-19.83-12.22zm33.07 13.5c-9.2-2.76-13.55-13.38-17-21.52 3.13-1.09 6.35-1.87 9.62-2.43 2.45-.29 4.92-.48 7.38-.65zm0-30.77c-4.41.01-8.89.44-13.19 1.42-.27.06-.97.28-1.81.53-1.47.31-2.94.64-4.4 1-1.3-6.91-2.5-13.86-2.68-20.91h22.08zm0-24.12h-22.35c.68-6.9 1.16-13.9 3.46-20.49 1.38.28 2.77.55 4.16.81.52.14.95.25 1.17.29 4.46.88 8.99 1.51 13.56 1.42v17.96zm-2.43-47.43c.77-.33 1.57-.62 2.43-.83v23.86c-1.19-.01-2.39-.06-3.58-.13-2.41-.28-4.81-.58-7.19-1.02-.68-.13-4.85-.96-6.21-1.43 3.11-7.95 7.13-15.99 14.55-20.45zm-26.87 9.25c4.7-3.71 10.06-6.48 15.6-8.71l-4.95 7.47-4.68 10.42c-1.87-.5-9.4-4.51-10.03-5.85 1.45-.83 2.67-2.23 4.05-3.33zm-19.89 35.41c.95-8.59 3.87-17.14 8.92-24.13.38-.53 1.77-2.59 2.22-2.6l1.39.74c2.74 1.68 5.58 3.2 8.52 4.5l2.86 1.51c-1.72 6.27-2.66 12.8-3.01 19.31-.09 1.15-.18 2.29-.23 3.44h-20.81c.02-.92.07-1.84.14-2.76zm-.01 8.93h20.68c.05 7.79 1.34 15.55 2.97 23.15l-11.96 6.88c-.36 0-.46-.21-.67-.4-.95-.88-3.07-4.25-3.86-5.52-4.49-7.17-7.19-15.38-7.39-23.9.04-.06.11-.12.23-.21z"/><path d="m229.29 119.58c4.92-.54 11.08 1.74 12.26 6.83-.33 26.51.45 63.26-.01 89.61-.07 4.26.64 6.57-3.39 9.21-1.77 1.16-3.2 1.46-5.3 1.67l-53.34-.03c-1.69 7.16-8.3 7.48-14.51 7-4.22-.33-6.91-3.08-8.06-7h-51.97c-4.41-.35-8.16-2.69-8.73-7.34l.03-93.36c.97-5.59 6.41-7.67 11.5-6.59-.74-5.95 2.56-7.94 7.73-9.03 13.13-2.76 30.68-.15 42.93 5.15 3.68 1.59 7.18 3.64 10.19 6.29 0 0 .35-.31.67-.52 2.5-1.69 4.63-3.52 7.38-4.97 13.74-7.26 33.22-8.66 48.43-6.53 6.04.85 3.77 5.02 4.19 9.62zm-6.43-2.49c-8.9-.99-16.47-1.16-25.32.35-7.73 1.32-18.54 4.58-24.47 9.84-1.39 1.23-1.38 1.23-1.49 3.06-.08 1.3.26 13.81.02 14.25-.22.4-4.83-1.89-4.82-2.72.02-1.54.23-13.01-.27-13.88-.37-.64-4.07-3.14-4.93-3.65-11.77-6.94-29.96-10.2-43.4-7.92-1.28.22-2.92.42-3.97 1.13v89.75c17.6-2.34 36.62-.25 51.2 10.46v-26.32c1.14-1.54 5.9-3.35 5.9-3.19v29.51c7.22-5.7 15.69-8.42 24.66-10.06 2.52-.46 5.39-1.03 7.92-1.2 6.6-.43 12.41.19 18.97.8v-90.23zm-67.49 102.37c-1.2-.91-.92-.91-2.28-1.56-9.75-4.69-24.84-6.29-35.46-4.6-2.55.41-6.76 2.31-8.8.34-.32-.31-1.06-1.56-1.06-1.89v-86c-1.81.85-5.1-.86-5.37 2.01v88.64c-.27 1.3 1.38 3.07 2.55 3.07h50.41zm24.45 0h54.09c.61 0 1.73-1.54 1.49-2.27l-1-89.45c-.53-2.59-3.33-1.28-5.11-2v86c0 .49-.04 1.71-.48 2.01-1.01.69-1.77.6-2.94.53-4.83-.3-9.12-1.45-12.06-1.61-8.38-.47-19.8 1.01-27.63 4.03-2.49.96-4.24 1.21-6.37 2.76zm-7.03 5.55c-2.58.32-6.38 0-9.11 0-.13 0-.78-.71-.67.13.25 1.91 1.65 2.45 3.34 2.56 2.89.2 6.39.54 7.12-2.96-.35-.13-.58.25-.67.27z"/><path d="m151.94 140.99c.97-.2 2.13-.02 3.13-.04 11.66 5.85 22.87 12.71 34.29 19.06 3.3 2.35 4.26 7.29 1.39 10.41-10.43 6.07-21.18 13.11-32.07 18.33-5.34 2.55-10.1 2.34-11.49-4.26l.03-37.5c.29-2.51 2.08-5.46 4.72-6zm1.85 6.94c-.42.14-.46.52-.45.9.72 10.56-.92 22.31 0 32.73.08.86.27 1.72.81 2.42l1-.09c5.46-2.86 10.64-6.18 15.98-9.23 4.13-2.36 9.93-4.84 13.67-7.51 1.07-.76 1.51-1.43.27-2.32-2.53-1.84-7.02-3.71-9.92-5.36-5.17-2.92-10.24-6.12-15.46-8.94-1.05-.57-5.05-2.89-5.91-2.61z"/></g></svg>