<svg height="250" viewBox="0 0 250 250" width="250" xmlns="http://www.w3.org/2000/svg"><g fill="#fc943b"><path d="m51.22 242c-10-.64-17.18-6.92-18.36-16.01 0-.04 0-.08 0-.13l.02-201.7s0-.08 0-.13c1.14-8.86 8.48-15.55 17.45-15.92l110.84-.11c4.39.27 6.87 1.22 9.88 3.75l43.81 43.93s.07.08.1.12c1.21 1.67 2 3.68 2.17 5.53v164.85s0 .09 0 .14c-1.2 8.81-8.78 15.41-18.01 15.68zm148.83-11.88c.05 0 .11 0 .16.01.05 0 .1.01.15.01.78 0 2.1-.69 3.3-1.72 1.32-1.14 1.91-2.19 1.91-2.57v-158.48h-30.38c-7.37 0-16.77-9.76-16.77-17.41v-30.07h-109.85c-.41.21-1.48.82-1.68.95-1.41 1-2.41 2.72-2.48 4.29v199.44c.28 3.05 2.32 5.1 5.6 5.53h150.04zm-30.08-180.61c.16.45.77 1.93.89 2.16.92 1.73 3.91 4.15 5.59 4.15h21.96l-28.45-28.45v22.14z"/><path d="m124.85 171.93c-1.41 0-2.69-.49-3.72-1.42l-28.84-28.91s-.06-.07-.09-.11c-1.47-1.95-1.73-4.24-.72-6.27 1-1.99 3.04-3.28 5.21-3.28 1.48 0 2.91.59 4.12 1.7l18.4 18.25v-81.24c0-.61 1.16-2.2 1.17-2.21 1.09-1.39 2.84-2.21 4.68-2.21 1.34 0 2.62.45 3.6 1.26.44.37 2.11 2.49 2.11 3.48v80.92l19.02-18.85s.1-.09.16-.13c1.03-.67 2.18-1.03 3.32-1.03 2.14 0 4.18 1.25 5.19 3.19 1 1.92.83 4.08-.46 5.92-.03.05-.07.09-.11.13l-28.68 29c-1.21 1.14-2.79 1.78-4.37 1.78z"/><path d="m87.27 204.67c-.05 0-.1 0-.15-.01-4.9-.76-8.91-3.68-10.74-7.8-1.52-3.41-1.55-14.39-1.09-17.64.42-2.95 2.77-4.92 5.86-4.92.48 0 .96.05 1.44.15 4.74.99 4.44 7.3 4.2 12.38-.1 1.99-.19 3.87.06 4.97.12.55.85 1.21 1.45 1.34l73.79-.13c.2-.12.76-.45.96-.6.71-1.02.54-5.14.43-7.89-.1-2.51-.2-4.89.11-6.29.52-2.33 2.68-3.89 5.37-3.89 2.27 0 4.88 1.22 5.59 3.93.57 2.17.43 12.37.17 14.86-.61 6.04-6.79 11.45-13.22 11.59h-.02l-74.22-.05z"/></g></svg>