<svg fill="none" height="42" viewBox="0 0 46 42" width="46" xmlns="http://www.w3.org/2000/svg"><path d="m9.89385 27.3114c-1.04157 1.1712-2.29672 2.8127-2.45188 4.4423-.25603 2.6891 3.08553 4.751 3.08553 4.751s4.5081 2.7976 7.7483 3.5793c3.5238.85 9.2796.2158 9.2796.2158 9.0821 0 16.4446-7.3626 16.4446-16.4447 0-5.5471-3.574-11.3021-6.661-13.3736l-11.2416-8.44128c-1.6514-1.240007-3.9954-.90649-5.2354.74493-.6902.91926-.8929 2.05312-.6521 3.0917.1917.82682.657 1.61772 1.3886 2.16744m-13.88064 8.28101c-1.65141-1.24-3.99537-.9065-5.23538.7449-.69025.9193-.89293 2.0531-.65213 3.0917.19179.8272.6649 1.5939 1.39706 2.1437l11.24159 8.4412m-2.3067-20.4378-2.1211-1.59268c-1.6514-1.24-3.99536-.90649-5.23537.74493-.69025.91925-.89293 2.05315-.65212 3.09175.19179.8271.6649 1.5939 1.39705 2.1436l11.24164 8.4413m-4.6301-12.8289c.0274.0218.0552.0433.0833.0644m-.0833-.0644c-.6848-.54443-1.1293-1.28391-1.3137-2.07926-.2408-1.03859-.0382-2.17244.6521-3.09171 1.24-1.65142 3.584-1.98493 5.2354-.74493l4.8624 3.65119m-9.4362 2.26471 6.8571 5.149m2.5791-7.41371 3.1896 2.39501" stroke="#474747" stroke-linecap="round" stroke-width="2.33219"/></svg>