<svg fill="none" height="54" viewBox="0 0 350 54" width="350" xmlns="http://www.w3.org/2000/svg"><path d="m93.4288 43.2715c-8.9749 0-15.5528-6.4073-15.5528-15.245s6.5779-15.245 15.5528-15.245c9.9782 0 16.6122 7.6225 15.2742 17.8411h-22.6883c.8919 3.4246 3.6234 5.4683 7.4141 5.4683 2.5642 0 4.794-.9943 5.9647-2.5409h8.6405c-2.063 5.9655-7.749 9.7215-14.6052 9.7215zm-7.3583-18.0068h14.8285c-.892-3.2036-3.5123-5.3026-7.4702-5.3026-3.7349 0-6.4107 2.0437-7.3583 5.3026z" fill="#132032"/><path d="m41.8882 7.59012c1.6658 0 3.4451.60573 5.338 1.81719 1.8551 1.17359 4.4105 3.25579 7.6663 6.24659 5.6031-4.6944 8.5917-5.75184 11.4689-5.75184 1.8551 0 3.4451.51104 4.7702 1.53324 2.4408 1.8666 2.848 6.1294 1.1379 8.932-1.3629 2.2336-3.1423 4.6376-5.338 7.212 4.9972 5.6787 7.7885 9.7647 7.7885 12.5663 0 2.0064-.6247 3.5397-1.874 4.5997-1.2872 1.0601-2.8961 1.5901-4.8269 1.5901-2.9151 0-7.4857-2.2121-13.1266-6.9443-3.2179 2.8393-5.7544 4.808-7.6095 5.9059-1.8929 1.0978-3.6912 1.6468-5.3948 1.6468-2.2715 0-4.0319-.7382-5.2812-2.2147-1.2872-1.5144-1.9308-3.2937-1.9308-5.338 0-1.3251.1893-2.4798.5679-3.4641s1.079-2.0822 2.1011-3.2936c1.0222-1.2494 2.6501-2.9719 4.8837-5.1677-2.1579-2.1958-3.7479-3.9562-4.7701-5.2812-1.06-1.3629-1.7793-2.5555-2.1579-3.5776-.4165-1.0222-.6247-2.1579-.6247-3.4073 0-1.325.284-2.5554.8518-3.6911.5679-1.1737 1.4008-2.12011 2.4987-2.83942s2.3851-1.07896 3.8615-1.07896z" fill="#26ddc7"/><g fill="#132032"><path d="m16.0697 43.2715c-8.97496 0-15.552856-6.4073-15.552856-15.245s6.577896-15.245 15.552856-15.245c9.9783 0 16.6119 7.6225 15.2741 17.8411h-22.6882c.89191 3.4246 3.6234 5.4683 7.4141 5.4683 2.5642 0 4.794-.9943 5.9647-2.5409h8.6404c-2.0625 5.9655-7.7485 9.7215-14.6051 9.7215zm-7.35836-18.0068h14.82816c-.8919-3.2036-3.5119-5.3026-7.4698-5.3026-3.7349 0-6.4107 2.0437-7.35836 5.3026z"/><path d="m334.05 53.0768c-2.809 0-5.125-.3227-6.948-.968-1.784-.6453-3.208-1.47-4.271-2.4738-1.063-.968-1.841-1.936-2.335-2.904-.494-.9681-.816-1.7927-.968-2.4739-.114-.6453-.171-.968-.171-.968h8.429s.057.1614.171.484c.151.3586.436.7529.854 1.1832.417.466 1.025.8604 1.822 1.1831.835.3585 1.937.5378 3.303.5378 2.354 0 4.082-.6274 5.183-1.8823 1.139-1.2548 1.708-2.904 1.708-4.9476v-3.0116h-.398c-.38.5737-.949 1.2011-1.709 1.8823-.759.6812-1.727 1.2548-2.904 1.7209s-2.601.6991-4.272.6991c-2.24 0-4.195-.3944-5.865-1.1831-1.671-.8246-3.076-1.9181-4.215-3.2805-1.101-1.3624-1.936-2.8861-2.506-4.5712-.531-1.685-.797-3.4239-.797-5.2165 0-1.7567.266-3.4777.797-5.1627.57-1.7209 1.405-3.2626 2.506-4.625 1.139-1.3623 2.544-2.4379 4.215-3.2267 1.67-.8246 3.625-1.2369 5.865-1.2369 1.671 0 3.095.251 4.272.7529 1.177.4661 2.145 1.0398 2.904 1.7209.797.6454 1.367 1.2728 1.709 1.8823h.398v-3.8183h8.657v26.6741c0 2.3663-.551 4.5533-1.652 6.561s-2.79 3.6211-5.068 4.84c-2.278 1.219-5.183 1.8285-8.714 1.8285zm-.114-18.3922c1.595 0 2.905-.3765 3.93-1.1294 1.063-.7529 1.86-1.7209 2.392-2.904.531-1.219.797-2.4738.797-3.7645 0-1.3265-.266-2.5813-.797-3.7645-.532-1.1831-1.329-2.1511-2.392-2.904-1.025-.7529-2.335-1.1294-3.93-1.1294-1.556 0-2.866.3765-3.929 1.1294-1.025.7529-1.804 1.7209-2.335 2.904-.532 1.1832-.798 2.438-.798 3.7645 0 1.2907.266 2.5455.798 3.7645.531 1.1831 1.31 2.1511 2.335 2.904 1.063.7529 2.373 1.1294 3.929 1.1294z"/><path d="m292.065 25.8225v17.4553h-8.759v-30.193h8.348v5.3271h.37c.699-1.7561 1.871-3.1451 3.516-4.1673 1.644-1.0353 3.639-1.5529 5.983-1.5529 2.193 0 4.105.4587 5.736 1.376s2.899 2.2278 3.804 3.9314c.904 1.6905 1.357 3.7086 1.357 6.0543v19.2244h-8.759v-17.7305c.014-1.8477-.48-3.2892-1.48-4.3245-1.001-1.0484-2.379-1.5726-4.133-1.5726-1.179 0-2.221.2425-3.125.7274-.891.4848-1.59 1.1925-2.097 2.1229-.494.9173-.747 2.0247-.761 3.322z"/><path d="m266.028 5.72469c0-2.7188 2.04-4.757893 4.928-4.757893 2.832 0 4.871 2.039093 4.871 4.757893 0 2.71879-2.039 4.70121-4.871 4.70121-2.888 0-4.928-1.98242-4.928-4.70121z"/><path d="m238.687 25.8225v17.4553h-8.759v-30.193h8.348v5.3271h.37c.699-1.7561 1.871-3.1451 3.515-4.1673 1.645-1.0353 3.64-1.5529 5.984-1.5529 2.193 0 4.105.4587 5.736 1.376s2.899 2.2278 3.804 3.9314c.904 1.6905 1.357 3.7086 1.357 6.0543v19.2244h-8.759v-17.7305c.014-1.8477-.48-3.2892-1.48-4.3245-1.001-1.0484-2.379-1.5726-4.133-1.5726-1.179 0-2.221.2425-3.125.7274-.891.4848-1.59 1.1925-2.098 2.1229-.493.9173-.747 2.0247-.76 3.322z"/><path d="m205.092 43.2776v-30.02h7.534v3.3418c2.039-2.4922 5.211-3.795 8.496-3.795 1.133 0 2.322.17 3.455.4532v7.4767c-1.246-.2266-2.379-.3965-3.455-.3965-4.928 0-7.93 2.8887-7.93 7.8165v15.1233z"/><path d="m179.787 43.9016c-9.006 0-15.124-6.797-15.124-15.6331 0-9.1759 6.401-15.6331 15.124-15.6331 3.851 0 7.476 1.3594 10.025 3.6251v-3.002h7.024v30.02h-7.024v-3.002c-2.605 2.2657-6.287 3.6251-10.025 3.6251zm-6.911-15.6331c0 4.7013 3.342 8.0431 7.987 8.0431 4.588 0 7.93-3.3418 7.93-8.0431 0-4.7012-3.342-8.0431-7.93-8.0431-4.645 0-7.987 3.3419-7.987 8.0431z"/><path d="m145.011 43.9016c-9.119 0-15.803-6.5704-15.803-15.6331 0-9.0626 6.684-15.6331 15.803-15.6331 10.139 0 16.879 7.8166 15.52 18.2953h-23.054c.907 3.5117 3.682 5.6075 7.534 5.6075 2.605 0 4.871-1.0196 6.06-2.6055h8.78c-2.096 6.1173-7.873 9.9689-14.84 9.9689zm-7.477-18.4652h15.067c-.906-3.2852-3.569-5.4376-7.59-5.4376-3.795 0-6.514 2.0958-7.477 5.4376z"/><path d="m122.975 43.2778h-8.1v-38.60664l8.1-1.04177z"/><path d="m274.974 43.2716h-8.092v-29.2258l8.092-.7886z"/></g></svg>