<svg height="250" viewBox="0 0 250 250" width="250" xmlns="http://www.w3.org/2000/svg"><g fill="#7f028c"><path d="m211.39 223.93c-.76 7.37-7.62 13.25-14.74 14.18h-152.83c-7.41-1.04-13.47-7.26-14.18-14.74v-196.15c.85-8.34 7.18-14.76 15.61-15.32h150.55c1.48.21 2.92.38 4.36.79 7.31 2.08 11.93 9.11 11.23 16.68 4.89.29 10.21-.39 15.05-.01 5.65.44 9.48 5.3 9.88 10.74.75 10.27-.6 21.44 0 31.81-.44 4.72-3.16 8.89-7.55 10.78-.93.4-3.19 1.09-4.06 1.09h-13.31v140.15zm-166.35-202.5c-3.99.85-6.49 3.7-6.81 7.79v191.57c.47 4.48 3.22 7.8 7.87 8.16h148.84c4.65-.39 7.55-3.9 7.87-8.45v-191.28c-.3-4.13-2.94-7.14-7.02-7.87zm179.38 16.82h-13.03v36.65h12.45c.28 0 2.16-.97 2.44-1.28.64-.7 1.08-2.2 1.15-3.15.71-9.2-.54-19.33-.03-28.63-.08-.61-.78-2.28-1.2-2.66-.07-.07-1.69-.91-1.79-.93z"/><path d="m145.37 75.33c.03-.37.25-1.49.34-1.95.35-1.67 2.17-2.91 3.8-3.07 5.96-.58 12.84.44 18.89.02 1.72.49 2.81 1.48 3.46 3.13l.13 58.99h5.58c.1 0 1.54.97 1.72 1.14 2.94 2.81.78 7.58-3.15 7.74h-108.25c-3.98.13-6.7-3.7-4.27-7.15.31-.44 1.87-1.73 2.28-1.73h5.87v-20.77c.4-1.99 1.74-3.65 3.86-3.86 5.95-.59 12.84.44 18.89.02 1.09 0 3.59 2.44 3.59 3.28v21.33h10.31v-38.8c0-.07.6-1.09.73-1.27.66-.91 1.74-1.57 2.87-1.71 5.85-.76 13.16.53 19.17-.02 1.61.21 2.99 1.16 3.63 2.67.1.22.51 1.41.51 1.49v37.65h10.02v-57.12zm18.33 3.58h-10.02c.01 8.26-.01 16.52-.01 24.78v5.13c0 7.72 0 15.45.05 23.17l.39.47h9.59v-53.54zm-36.65 19.75c-.22-.06-.35.29-.43.29h-9.73c-.08 0-.21-.35-.43-.29v33.36c.13.26.74.43 1 .43h9.59zm-36.94 17.18h-10.31v16.61h10.31z"/><path d="m143.51 43.69c-.1-.02-1.1-.6-1.27-.73-2.64-1.93-2.46-5.7.13-7.58 2.02-1.47 6.58-.73 9.17-.85 3.2-.14 6.5-.74 9.72-.88 3.54-.15 6.29.13 7.03 4.16l-.06 18.56c-1.02 3-4.54 4.46-7.01 2.12-.24-.23-1.23-1.82-1.23-2.06v-8.16c-1.08 1.15-1.96 2.53-3 3.73-17.85 20.67-50.03 38.68-76.3 45.67-2.55.68-8.05 2.19-10.45 1.84-1.45-.21-3.09-1.84-3.28-3.3-.73-5.56 4.2-5.31 8-6.27 22.37-5.68 44.13-16.81 61.98-31.36 5.42-4.42 10.74-9.37 15.03-14.89h-8.45z"/><path d="m59.35 155.99 126.71-.07c5.22.51 5.22 8.09 0 8.6h-126.78c-4.47-1.1-4.48-7.5.07-8.53z"/><path d="m59.06 179.46 91.5-.07c4.94.89 4.81 8.11-.29 8.61h-90.7c-4.66-1-4.96-6.94-.5-8.54z"/><path d="m59.06 202.94 110.98-.05c4.26 1.17 4.55 6.81.45 8.45l-110.93.14c-4.72-.9-4.98-6.93-.51-8.54z"/></g></svg>